<?xml version="1.0" encoding="utf-8"?>
<!-- Generator: Adobe Illustrator 27.3.1, SVG Export Plug-In . SVG Version: 6.00 Build 0)  -->
<svg version="1.1" id="Layer_1" xmlns="http://www.w3.org/2000/svg" xmlns:xlink="http://www.w3.org/1999/xlink" x="0px" y="0px"
	 viewBox="0 0 748 751" style="enable-background:new 0 0 748 751;" xml:space="preserve">
<style type="text/css">
	.st0{stroke:#000000;stroke-width:10;}
	.st1{stroke:#FFFFFF;stroke-width:10;}
	.st2{stroke:#3C5E99;stroke-width:10;}
	.st3{stroke:#D1D2D4;stroke-width:10;}
	.st4{stroke:#6ECFF7;stroke-width:10;}
	.st5{stroke:#009B4C;stroke-width:10;}
	.st6{stroke:#009B4D;stroke-width:10;}
	.st7{stroke:#6ECFF6;stroke-width:10;}
	.st8{stroke:#25A367;stroke-width:10;}
	.st9{stroke:#2CA365;stroke-width:10;}
	.st10{stroke:#D21142;stroke-width:10;}
	.st11{stroke:#80A38C;stroke-width:10;}
	.st12{stroke:#7C907C;stroke-width:10;}
	.st13{stroke:#839A89;stroke-width:10;}
	.st14{stroke:#7C9D89;stroke-width:10;}
	.st15{stroke:#5B9875;stroke-width:10;}
	.st16{display:none;}
	.st17{display:inline;}
	.st18{fill:#FFFFFF;}
	.st19{fill:#3C5E99;}
	.st20{fill:#D1D2D4;}
	.st21{fill:#6ECFF7;}
	.st22{fill:#009B4C;}
	.st23{fill:#009B4D;}
	.st24{fill:#6ECFF6;}
	.st25{fill:#25A367;}
	.st26{fill:#2CA365;}
	.st27{fill:#D21142;}
	.st28{fill:#80A38C;}
	.st29{fill:#7C907C;}
	.st30{fill:#839A89;}
	.st31{fill:#7C9D89;}
	.st32{fill:#5B9875;}
</style>
<g>
	<g>
		<path id="p1" class="st0" d="M517.8,36.5c42.7,18.1,82,44.4,114.9,77.1c30.8,30.3,56.2,66.2,74.6,105.2
			c24.5,51.8,36.4,109.2,34.8,166.5c-1.2,49.1-12.4,97.7-32.7,142.5c-15.1,33.2-35.2,64.2-59.4,91.5c-5.1,5.4-9.9,11.6-15.7,16.3
			c-3.4,4.4-8,8.1-12.1,11.9c-54.1,49.6-123.2,82.4-196,92.5c-51.6,7.2-105,3.7-155-10.9c-62.7-18.1-120.2-53.5-165-101
			c-45.2-47.7-77.1-107.6-91.4-171.7c-10.8-48.5-11.7-99.2-2.8-148c10.6-57.6,35.2-112.4,71.3-158.5
			C129.5,90.2,194.1,45.4,266.2,23.5C348.2-1.7,438.9,2.8,517.8,36.5z M13.9,425.7c2,18.3,6.5,36.7,11.6,54.4
			c13.3,44.4,35.2,86.3,64.3,122.4c3.8,5.1,8.2,9.8,12.2,14.7c13.1,13.8,26.5,27.8,41.4,39.6c48,39.6,106.2,66.3,167.6,77.1
			c40.3,7,82.1,7.2,122.5,0.7c42.6-7.1,84.1-21.8,121.5-43.3c24-13.8,45.9-30,66.3-48.7c19-17.5,35.9-37.2,50.8-58.2
			c34.2-48.7,56.1-105.5,63.2-164.6c5.5-46,2.5-93.4-9.6-138.2c-10.8-40.6-28.6-79-52.6-113.5c-23.6-34-53.6-64.4-87.3-88.5
			C548.9,53,507,33.6,462.9,22.6c-40-10.1-81.9-13.2-123-9.3c-46.6,4.2-92.3,17.8-133.8,39.3c-23.9,12.6-46.2,27.5-66.9,45
			c-3.6,2.7-6.7,6.1-10.3,8.8c-13.1,12.3-25.6,25-36.9,39.1c-21.8,26.7-40.1,56.8-53.4,88.6c-21.7,51.1-31.1,106.8-28,162.2
			C11.5,406,12.1,416.1,13.9,425.7z"/>
	</g>
	<g>
		<path id="p2" class="st1" d="M462.9,22.6c44.1,11.1,85.9,30.4,122.9,57c33.7,24.1,63.7,54.5,87.3,88.5
			c24,34.5,41.8,72.8,52.6,113.5c12.1,44.8,15.1,92.2,9.6,138.2c-7.1,59.1-29,115.9-63.2,164.6c-14.9,21-31.8,40.7-50.8,58.2
			c-20.4,18.7-42.3,34.9-66.3,48.7c-37.4,21.5-78.9,36.2-121.5,43.3c-40.4,6.5-82.2,6.3-122.5-0.7c-61.4-10.7-119.5-37.4-167.6-77.1
			C128.5,645,115.1,631,102,617.3c-4-4.9-8.4-9.6-12.2-14.7c-29.1-36.1-51-78-64.3-122.4c-5.2-17.7-9.6-36.1-11.6-54.4
			c-1.7-9.5-2.4-19.7-3-29.4c-3.1-55.4,6.3-111.1,28-162.2c13.3-31.9,31.6-61.9,53.4-88.6c11.2-14,23.8-26.7,36.9-39.1
			c3.6-2.8,6.6-6.1,10.3-8.8c20.6-17.5,42.9-32.4,66.9-45C247.7,31,293.4,17.4,340,13.3C381,9.4,422.9,12.5,462.9,22.6z M614,199.2
			c-39.2-53.7-96.8-93.4-161.1-110.9c-41.4-11.4-85.1-13.4-127.5-6.6c-42.1,7-82.6,23.2-118,47.1c-24.4,16.6-46.2,36.4-64.7,59.4
			c-37.9,46.5-61.4,105.1-65.5,165c-4.8,60.8,9.6,122.5,41,174.8c16.3,27.5,37.5,52.5,61.8,73.4C230.5,645,296.1,671,363,673
			c9,0.7,18,0.2,27-0.2c64.5-3,127.4-28.2,176.5-70c38.8-32.9,69-75.4,86.7-123.3c9.6-25.4,15.5-52.3,17.7-79.4
			c0.9-7.9,0.6-15.9,1.2-23.8c-0.4-11.7-0.7-23.4-2.1-35C664.2,290.2,644.6,240.6,614,199.2z"/>
	</g>
	<g>
		<path id="p3" class="st0" d="M453,88.3c64.2,17.5,121.8,57.2,161.1,110.9c30.6,41.3,50.2,91,55.9,142.1c1.5,11.6,1.7,23.3,2.1,35
			c-0.6,7.9-0.3,15.9-1.2,23.8c-2.1,27.1-8.1,54-17.7,79.4c-17.7,47.8-47.8,90.3-86.7,123.3c-49.1,41.9-112,67-176.5,70
			c-9,0.4-18,0.9-27,0.2c-66.9-2-132.5-28-183-71.7c-24.3-20.9-45.4-45.9-61.8-73.4c-31.4-52.3-45.8-114-41-174.8
			c4.1-59.9,27.6-118.4,65.5-165c18.5-23,40.3-42.8,64.7-59.4c35.4-23.9,75.9-40.1,118-47.1C367.8,74.9,411.6,76.9,453,88.3z
			 M85.9,436l1,0.5c3.7,16.8,8.3,33.1,14.9,49c8.9,21.5,20.1,42.3,33.7,61.2c18.1,25.1,40.3,47.5,65.2,65.8
			c32,23.5,68.7,40.2,107.4,49.2c50.3,11.4,104,9.7,153.3-5.8c35.7-11.1,69.4-29.2,98.3-52.9c11.7-9.3,22.4-20.3,32.7-31.2
			c27.5-30.5,48.3-67.1,61.1-106c13.1-41.7,17.5-85.4,11.6-128.7c-5.3-42.1-20.4-83.1-43.1-118.9c-18.8-29.6-43-55.9-71-76.9
			c-38-28.8-83-48-130-55.6c-34.5-5.5-69.7-4.9-104,1.9c-42.5,8.3-82.9,26.2-117.6,52.1c-29.9,22.1-55.3,49.7-74.8,81.3
			C93.2,270.9,78,330.3,80.8,389.3c0.6,14.9,2.7,29.5,5.5,44.1C86.5,434.3,86.4,435.1,85.9,436z"/>
	</g>
	<g>
		<path id="p4" class="st1" d="M421,85.6c47.1,7.5,92.1,26.8,130,55.6c28,21,52.2,47.4,71,76.9c22.7,35.8,37.8,76.8,43.1,118.9
			c5.9,43.3,1.5,87.1-11.6,128.7c-12.8,39-33.6,75.6-61.1,106c-10.3,10.8-21,21.9-32.7,31.2c-28.9,23.7-62.6,41.9-98.3,52.9
			c-49.3,15.5-103,17.3-153.3,5.8c-38.7-9-75.4-25.7-107.4-49.2c-25-18.2-47.2-40.7-65.2-65.8c-13.6-18.9-24.8-39.8-33.7-61.2
			c-6.6-15.9-11.2-32.2-14.9-49l-1-0.5c0.5-0.9,0.6-1.8,0.4-2.6c-2.8-14.6-4.8-29.2-5.5-44.1c-2.8-59,12.4-118.4,43.7-168.5
			c19.5-31.6,45-59.2,74.8-81.3c34.8-25.8,75.1-43.7,117.6-52.1C351.3,80.7,386.5,80.1,421,85.6z M103.6,275.3
			c63.7,0,127.4,0,191.1,0c-0.1,6.5-0.1,13.1,0,19.6c-12.5-11.3-31.1-14.5-46.5-7.5c-14.7,6.6-24.7,21.6-24.8,37.8
			c-0.1,42.6,0,85.4,0,128c0,7.2,0.1,14.5-0.1,21.7c-39.4,0-80.6-0.1-119.8,0.1c21.6,59.6,64,111.5,117.8,145
			c37,23.2,79.3,37.8,122.8,42.3c45.6,4.8,92.3-1.3,135-18.1c34.4-13.4,66.2-33.6,93-58.9c32.3-30.5,57.6-68.6,72.9-110.3
			c-41.9,0-83.8,0-125.6,0c0.1,6.8,0.3,13.7-0.1,20.5c-0.1-4.2,0.2-8.2-0.2-12.4c0-5.1-0.3-10.3-0.6-15.5c1.1-3.7,0.9-7.4,0.9-11.3
			c0-60.3,0-120.7,0-181c41.8,0,83.6,0,125.4,0c-15.6-42.2-41.4-80.7-74.4-111.2C519.5,116.7,451.4,88.6,382,87.3
			c-11.1,0-22-0.3-33,0.9c-67.4,5.5-132.4,36-179.7,84.4C140.3,201.4,117.8,237,103.6,275.3z"/>
	</g>
	<g>
		<path id="p5" class="st2" d="M382,87.3c69.5,1.4,137.5,29.4,188.2,76.8c33,30.5,58.8,69.1,74.4,111.2c-41.8,0-83.6,0-125.4,0
			c0-28.3,0-56.7,0-85c-0.2-15.5-9.9-29.9-23.9-36.3c-11.7-5.4-25.9-4.9-37.1,1.5c-3.4,1.9-6.4,4.4-9.4,6.9
			c-2.1-10-7.7-19-15.9-25.1c-12.8-9.9-31.2-11.2-45.3-3.3c-9.4,5.2-16.7,13.9-19.9,24.2c-1.8,5.6-2,11.3-1.9,17.2
			c-7-6.4-15.4-10.8-24.9-11.6c-16.3-2-32.6,6.5-40.8,20.7c-3.6,6.3-5.5,13.5-5.5,20.8c0,23.3,0,46.7,0,70c-63.7,0-127.4,0-191.1,0
			c14.2-38.3,36.7-73.8,65.7-102.7c47.3-48.4,112.2-78.8,179.7-84.4C360,87,370.9,87.3,382,87.3z"/>
	</g>
	<g>
		<path id="p6" class="st3" d="M433,137.3c8.1,6.1,13.8,15.1,15.9,25.1c3-2.6,5.9-5,9.4-6.9c11.2-6.4,25.4-6.9,37.1-1.5
			c14,6.4,23.7,20.8,23.9,36.3c0.1,28.3,0,56.7,0,85c0,60.3,0,120.7,0,181c0,3.9,0.2,7.6-0.9,11.3c-2-15.7-5.7-31-12.2-45.5
			c0.9-3.8,0.5-7.9,0.5-11.8c0-45,0-90,0-135c0-28.3,0-56.7,0-85c-0.3-15.2-13.6-27.8-28.8-27.5c-14.5-0.1-27.7,12-28.1,26.6
			c0,28.7,0,57.3,0,86c-0.1,27.2,0.1,54.4-0.1,81.5c-4.2-2.5-8.4-4.9-12.8-7.1c0-24.8,0-49.6,0-74.4c0-35.7,0-71.4,0-107
			c-0.8-14.5-13.5-26.5-28-26.9c-13.4-0.8-25.9,8.5-29.5,21.3c-1.4,4.5-1,8.9-1.1,13.6c0.1,9.7-0.2,19.3,0.2,29c0,23.3,0,46.7,0,70
			c0.1,19.7-0.1,39.4,0.1,59.1c-1.1-0.1-2.3-0.1-3.5-0.1c-3.1-0.1-6.3-0.1-9.4,0c-0.1-19.7,0-39.3,0-59c0-23.7,0-47.4,0-71
			c-0.1-14.9-12.9-27.7-27.8-28.2c-11.5-0.8-23,6-27.9,16.4c-2.1,4-3,8.4-3,12.9c0,23.3,0,46.7,0,70c0,12,0,24,0,36
			c-0.2,3.3,1.8,5.9,3.2,8.7c4.1,7.5,7.8,15.1,11.8,22.6c1.8,3.4,3.4,6.9,5.4,10.2c2.2,4.8,4.6,9.5,7.2,14.1
			c1.2,2.5,2.5,4.9,3.8,7.4c0.7,1.6,1.5,3.1,2.3,4.7c0.8-0.2,1.5-0.5,2.3-0.8c8.4-4,17.9-4.6,27-4c1.1,0.2,2.2,0.4,3.4,0.6
			c1.9,0.5,3.7,1,5.6,1.4c5.8,2.1,11.4,4.8,16.2,8.8c2.9,2.1,5.3,4.8,8.1,6.9c2.6,2.1,4.9,4.8,7.7,6.6c1.9,0.6,4.1,0.4,6.1,0.6
			c-1.8,0.1-3.6,0-5.4,0c4.1,4,8.6,7.6,13,11.4c30.9,26.7,62.2,53.8,93,80.4c2.3,4.5,0.1,10.8-0.7,15.4c-0.7-0.3-1.3-0.6-1.9-0.9
			c-34-29.2-69.5-60.3-103.4-89.2c-0.9-1.2-2.3-2.2-3.5-3.2c-3.7-3-6.5-6.3-10.6-8.7c-1.4-2.3-4.2-3.8-6.1-5.6
			c-3.7-3.5-7.6-6.6-12.3-8.7c-1.8-0.8-3.6-1.5-5.5-2c-4.5-1.4-9.1-1.6-13.8-1.3c-15.1,1-28.6,11.8-33.4,26
			c-5,14.2-0.9,30.6,10.1,40.9c31.2,27.1,62.4,54.3,93.6,81.4c8.4,6.7,15.2,15,18.8,25.2c4.9,13.2,3.6,28.1-0.9,41.2
			c-0.9,2.8-2.6,5.6-2.8,8.6c-9.1,5.5-19.4,10.3-29.6,13.1c3.6-1.5,7-3.5,9.6-6.4c7.6-8.5,12.1-20.1,13.7-31.3
			c1.3-8.9,0.1-18-4.2-25.9c-3.3-6.4-8.2-10.8-13.6-15.3c-27.5-23.9-55-47.8-82.5-71.8c-6.4,2.4-12.9,3.8-19.8,3.2
			c-11.9-0.8-23.5-7.1-30.5-16.7c-2.1-2.6-3.5-5.6-5.1-8.5c-10-19.2-20-38.6-30-57.8c-5.6-11.2-11.4-22.2-17.2-33.3
			c-0.3,14,0,28.1-0.1,42.1c0.1,6.9-0.3,13.8,0.3,20.6c-8.3,18.9-13,39.8-12.6,60.4c0,4,0.3,8,0.3,12.1c-1-6.4-0.9-12.9-0.8-19.4
			c0.2-7.2,0.1-14.5,0.1-21.7c0-42.6,0-85.4,0-128c0-16.2,10.1-31.2,24.8-37.8c15.4-7.1,34-3.8,46.5,7.5c-0.1-6.6-0.1-13.1,0-19.6
			c0-23.3,0-46.7,0-70c0-7.3,1.9-14.5,5.5-20.8c8.2-14.2,24.5-22.7,40.8-20.7c9.5,0.9,17.9,5.3,24.9,11.6
			c-0.1-5.9,0.1-11.6,1.9-17.2c3.2-10.3,10.5-19.1,19.9-24.2C401.8,126.2,420.2,127.4,433,137.3z M262,381.4c0.6-0.3,1.2-0.6,1.8-1
			c-0.5,0.6-1,1.2-1.4,1.7c3,6,6.2,11.9,9.2,17.8c2,4.1,4.1,8.1,6.3,12.1c5.4,10.6,11,21.1,16.4,31.7c1.9,3.8,3.8,7.4,6.8,10.4
			c6.8,6.8,16.4,9.9,25.9,8.5c-0.6-1.9-2.4-3.3-3.6-4.8c-13-15.4-15.2-38.3-5.9-56.1c3.1-6.3,7.6-10.9,12.5-15.8
			c-0.4-1.7-1.3-3.1-2.1-4.6c-4.6-9-9.2-17.9-13.9-26.8c-1.3-2.3-2.2-5.2-4.2-7c-0.5-2.9-2.1-5.1-3.4-7.7c-4.6-9-9.4-18-14-27
			c-3.3-6.8-9.2-12.1-16.4-14.7c-8.4-3.3-18.6-1.8-26.1,3.1c-9.8,6.2-15,18.6-12.8,30c0.7,4.1,2.5,7.7,4.5,11.3
			C248.4,355.5,255.1,368.5,262,381.4z"/>
	</g>
	<g>
		<path id="p7" class="st2" d="M409,141.4c14.5,0.4,27.2,12.4,28,26.9c0,35.6,0,71.4,0,107c-19.5,0-38.9,0-58.4,0
			c0-23.3,0-46.7,0-70c-0.4-9.7-0.1-19.3-0.2-29c0.1-4.7-0.2-9,1.1-13.6C383.1,149.9,395.6,140.6,409,141.4z"/>
	</g>
	<g>
		<path id="p8" class="st2" d="M478,162.7c15.1-0.2,28.5,12.3,28.8,27.5c0.1,28.3,0,56.7,0,85c-19,0-37.9,0-56.9,0
			c0-28.7,0-57.4,0-86C450.3,174.7,463.5,162.6,478,162.7z"/>
	</g>
	<g>
		<path id="p9" class="st2" d="M338,176c14.9,0.5,27.6,13.3,27.8,28.2c0.1,23.7,0,47.4,0,71c-19.6,0-39.1,0-58.7,0
			c0-23.3,0-46.7,0-70c0-4.5,1-8.9,3-12.9C315.1,182,326.5,175.3,338,176z"/>
	</g>
	<g>
		<path id="p10" class="st1" d="M307.1,275.3c19.6,0,39.1,0,58.7,0c0,19.7-0.1,39.3,0,59c-14.9,0.6-29.6,3.5-43.8,8.3
			c-4-7.5-7.7-15.1-11.8-22.6c-1.3-2.8-3.4-5.4-3.2-8.7C307.1,299.3,307.1,287.3,307.1,275.3z"/>
	</g>
	<g>
		<path id="p11" class="st1" d="M378.6,275.3c19.5,0,38.9,0,58.4,0c0,24.8,0,49.6,0,74.4c-17.7-9-38.5-14.4-58.3-15.3
			C378.5,314.7,378.7,295,378.6,275.3z"/>
	</g>
	<g>
		<path id="p12" class="st1" d="M449.9,275.3c19,0,37.9,0,56.9,0c0,45,0,90,0,135c-0.1,3.9,0.3,8-0.5,11.8c-1.1-2.7-2.4-5.2-3.7-7.8
			c-1.3-2.7-2.6-5.3-4.2-7.8c-12.2-20.1-28.6-37.3-48.6-49.7C450,329.6,449.8,302.4,449.9,275.3z"/>
	</g>
	<g>
		<path id="p13" class="st1" d="M276.1,298.1c7.2,2.5,13,7.9,16.4,14.7c4.6,9.1,9.4,18,14,27c1.3,2.6,2.9,4.8,3.4,7.7
			c-9.3,4.3-17.9,9.6-26.4,15.4c-7.1,5.3-13.6,11.1-19.7,17.5c-0.6,0.3-1.2,0.6-1.8,1c-6.9-12.9-13.5-25.9-20.2-38.9
			c-2-3.6-3.8-7.2-4.5-11.3c-2.3-11.4,2.9-23.8,12.8-30C257.5,296.4,267.7,294.9,276.1,298.1z"/>
	</g>
	<g>
		<path id="p14" class="st4" d="M365.8,334.3c3.1-0.1,6.3-0.1,9.4,0c0.6,0.7,1.2,1.4,1.8,2.1c0.8,4.6-4.1,6.8-7.6,8.3
			c-6.1,2.3-9.7,9.3-7.3,15.5c1.8,4.9,4,10.5,7.9,14.2c-9.1-0.7-18.6,0-27,4c0-1.8-0.1-2.4-1.3-3.6c-1-0.3-2.1-0.4-3.2-0.2
			c-1.3-2.5-2.6-4.9-3.8-7.4c0.2-4.9-0.7-9.4-4.7-12.6c-0.8-0.5-1.6-1-2.5-1.5c-2-3.3-3.6-6.8-5.4-10.2
			C336.2,337.8,350.9,334.8,365.8,334.3z M338.2,348.2c1.5,3,5.1,3,7.9,2.2c0.7-2.6-0.5-4.9-3.1-5.7
			C341,344.8,339.4,346.8,338.2,348.2z"/>
	</g>
	<g>
		<path id="p15" class="st5" d="M375.2,334.3c1.1,0,2.3,0.1,3.5,0.1c19.8,0.9,40.6,6.3,58.3,15.3c4.4,2.2,8.6,4.6,12.8,7.1
			c20,12.4,36.4,29.6,48.6,49.7c-5-1.2-8.2-6.5-13.5-7.8c0.1,2.9,2.4,5.3,4.2,7.5c3.7,3.6,8.4,6.9,13.5,8.1c1.3,2.6,2.6,5.1,3.7,7.8
			c6.5,14.5,10.2,29.8,12.2,45.5c0.3,5.1,0.6,10.3,0.6,15.5c-0.5,2.6,0,5.6-1.2,8c-30.8-26.6-62.1-53.8-93-80.4
			c5.7,0,10.7-2,16.1-3.6c5.4-6.6,16.1-9.1,20.9-16.6c-1.1-3.1-3.7-5.6-6.3-7.5c-1.5-1.1-2.8-0.7-4.5-0.7c-2.3,2.5-3.9,7.2-8,6.9
			c-2.7,0.3-4.1-3-4.7-5.1c-1.6-4.2-0.1-9.2,3.7-11.6c1.5-1.3,3.7-3.1,2.4-5.3c-3.7-0.7-7.8,0.4-11.3,1.4c-2.9,1-6.3,2.4-8,5
			c-0.1,2.9,3,4.6,5.4,5.3c2.3,0.6,3.9,1.4,5,3.6c-0.7,2.5-2.9,3-4.3,4.9c1.5,3.4,7.1,4.8,5.7,9c-3-0.1-5.3-1.3-7.6-3.1
			c-4.9-3.8-11.5-4.8-17.4-3c-1.3,0.5-3.3,0.8-3.9,2.2c4.7,2.2,12.8,0.7,16,5c-1.5,1.9-4.4,1.6-6.6,1.8c-2-0.2-4.2-0.1-6.1-0.6
			c-2.9-1.7-5.1-4.5-7.7-6.6c-2.9-2.1-5.2-4.8-8.1-6.9c-4.8-4-10.4-6.7-16.2-8.8c2.6-0.2,4.4,1.6,7,0.8c6.1-1,10.8-9.4,6.9-14.7
			c-2.9-3.4-5.9-1.3-9.6-3.5c-3.2-1.3-6.2-5.9-9.9-5.3c-0.2,3.1,0.6,6.1,2.6,8.5c2.4,2.6,5.7,1.2,8.5,3.5c2.1,1.5,2.9,4.3,1.5,6.5
			c-3.4,1.8-5.6,0-9.1,0.1c-1.8,0-2.4,1.3-3.6,2.5c-1.1-0.2-2.2-0.5-3.4-0.6c-3.9-3.6-6.1-9.3-7.9-14.2c-2.4-6.2,1.2-13.1,7.3-15.5
			c3.5-1.5,8.4-3.7,7.6-8.3C376.4,335.7,375.8,335,375.2,334.3z"/>
	</g>
	<g>
		<path id="p16" class="st6" d="M343,344.8c2.7,0.7,3.8,3,3.1,5.7c-2.8,0.8-6.4,0.8-7.9-2.2C339.4,346.8,341,344.8,343,344.8z"/>
	</g>
	<g>
		<path id="p17" class="st7" d="M309.8,347.6c1.9,1.8,2.9,4.7,4.2,7c-5.6,2.1-10.9,4.6-16,7.7c-4.1,2.3-8,4.8-12.9,3.8
			c-1.4-0.3-1.4-2.1-1.7-3.2C291.9,357.2,300.5,351.8,309.8,347.6z"/>
	</g>
	<g>
		<path id="p18" class="st8" d="M327.5,352.8c0.8,0.5,1.7,1,2.5,1.5c4,3.1,5,7.7,4.7,12.6C332.1,362.3,329.7,357.6,327.5,352.8z"/>
	</g>
	<g>
		<path id="p19" class="st7" d="M373.4,353.7c3.7-0.6,6.6,4,9.9,5.3c3.7,2.1,6.7,0,9.6,3.5c3.9,5.3-0.8,13.6-6.9,14.7
			c-2.6,0.8-4.4-1-7-0.8c-1.9-0.4-3.7-0.9-5.6-1.4c1.2-1.1,1.8-2.4,3.6-2.5c3.4-0.1,5.7,1.7,9.1-0.1c1.4-2.2,0.6-5.1-1.5-6.5
			c-2.8-2.3-6-0.9-8.5-3.5C374,359.8,373.2,356.8,373.4,353.7z"/>
	</g>
	<g>
		<path id="p20" class="st5" d="M314,354.6c4.7,8.9,9.3,17.9,13.9,26.8c-3.1,2.9-5.8,6.3-7.8,10c-1.5,2.7-0.9,5.6-2.7,8.3
			c-1.1,1.6-2.4,2.3-4.3,2.8c-3.1-2.3-3.4-7.6-3.7-11.1c-0.8-6,0.6-13.3-2.7-18.7c-0.9-1.7-2.3-1.4-3.6-0.4c-2.4,2.9-2.9,6.3-2.9,10
			c0,4.2-1.1,8.4-2.9,12.2c-1.2,2.3-3.4,4.7-6.2,4.8c-2.5-0.2-3.8-2.8-3.6-5.1c-0.1-2.2,2.4-4.2,3.6-6c0-1.1,0-2.2,0-3.3
			c-3.9-0.3-8.1,2.9-11.1,5.2c-3.6,2.5-6.5,5.8-8.3,9.8c-3.1-5.9-6.2-11.9-9.2-17.8c0.5-0.6,0.9-1.2,1.4-1.7
			c6.1-6.4,12.6-12.2,19.7-17.5c0.4,1.1,0.4,2.9,1.7,3.2c4.9,1,8.8-1.5,12.9-3.8C303.1,359.2,308.5,356.7,314,354.6z"/>
	</g>
	<g>
		<path id="p21" class="st1" d="M236.1,359.2c5.8,11.1,11.6,22.1,17.2,33.3c-4.7,6.6-8.9,13.2-12.4,20.5c-2,2.6-3.2,5.8-4.7,8.9
			c-0.6-6.8-0.2-13.7-0.3-20.6C236.1,387.3,235.8,373.2,236.1,359.2z"/>
	</g>
	<g>
		<path id="p22" class="st4" d="M444.4,367c1.3,2.1-0.9,4-2.4,5.3c-3.8,2.4-5.2,7.4-3.7,11.6c0.6,2.1,2,5.4,4.7,5.1
			c4.1,0.4,5.6-4.4,8-6.9c1.7,0,3.1-0.3,4.5,0.7c2.5,2,5.1,4.5,6.3,7.5c-4.9,7.5-15.5,10.1-20.9,16.6c-5.4,1.6-10.3,3.6-16.1,3.6
			c-4.3-3.8-8.9-7.4-13-11.4c1.8,0,3.6,0,5.4,0c2.2-0.2,5.1,0.1,6.6-1.8c-3.1-4.3-11.2-2.8-16-5c0.6-1.5,2.6-1.7,3.9-2.2
			c5.9-1.9,12.5-0.8,17.4,3c2.3,1.8,4.6,3,7.6,3.1c1.5-4.2-4.1-5.6-5.7-9c1.5-1.9,3.7-2.4,4.3-4.9c-1.1-2.1-2.7-3-5-3.6
			c-2.5-0.7-5.5-2.3-5.4-5.3c1.7-2.6,5.1-4,8-5C436.6,367.3,440.7,366.3,444.4,367z"/>
	</g>
	<g>
		<path id="p23" class="st4" d="M306.7,372.7c3.3,5.4,1.9,12.6,2.7,18.7c0.3,3.5,0.6,8.8,3.7,11.1c1.9-0.4,3.2-1.1,4.3-2.8
			c1.8-2.6,1.2-5.6,2.7-8.3c2.1-3.7,4.7-7.1,7.8-10c0.9,1.5,1.7,2.9,2.1,4.6c-4.9,4.9-9.5,9.5-12.5,15.8
			c-9.3,17.8-7.1,40.7,5.9,56.1c1.2,1.5,3,3,3.6,4.8c-9.5,1.4-19.1-1.6-25.9-8.5c-3-3.1-4.9-6.6-6.8-10.4c3.1-3.3,4.9-7,5.3-11.5
			c0.8-5.8-1.3-10.8-3.9-15.8c-1.4-2.3-2.7-4.6-4.9-6.3c-1.6-0.3-3.6,0.3-4.5-1.3c-0.8-2.5-0.1-4.9-2.3-6.7c-0.8-0.9-2.3-1-3.2-0.1
			c-2.7,2.5-2.1,6.6-3,9.9c-2.2-4-4.3-8-6.3-12.1c1.8-4,4.7-7.3,8.3-9.8c3-2.2,7.2-5.5,11.1-5.2c0,1.1,0,2.2,0,3.3
			c-1.2,1.8-3.7,3.7-3.6,6c-0.2,2.3,1.1,4.9,3.6,5.1c2.8-0.1,5-2.6,6.2-4.8c1.8-3.8,2.9-8,2.9-12.2c0-3.7,0.6-7.1,2.9-10
			C304.3,371.2,305.7,371,306.7,372.7z"/>
	</g>
	<g>
		<path id="p24" class="st9" d="M338.5,374.3c1.1-0.1,2.2,0,3.2,0.2c1.2,1.3,1.4,1.9,1.3,3.6c-0.7,0.3-1.5,0.6-2.3,0.8
			C340,377.4,339.2,375.9,338.5,374.3z"/>
	</g>
	<g>
		<path id="p25" class="st5" d="M373.7,388.1c0.5,0.8,0.9,1.5,1.4,2.3c-0.4,2.8-1.8,5.4-3.4,7.6c-0.6,0.4-1.3,0.4-2.3,0
			c-0.7-2.2-0.6-4.3-2.2-5.9c-1.9-2.5-4.9-3.3-7.3-5.3C364.6,386.5,369.2,386.7,373.7,388.1z"/>
	</g>
	<g>
		<path id="p26" class="st4" d="M359.9,386.8c2.4,2,5.4,2.9,7.3,5.3c1.5,1.6,1.5,3.7,2.2,5.9c0.9,0.3,1.7,0.3,2.3,0
			c1.6-2.2,3.1-4.9,3.4-7.6c-0.5-0.8-0.9-1.5-1.4-2.3c1.9,0.5,3.8,1.2,5.5,2c-1,3.8-4.7,9.1-2.1,12.9c2.8,1.2,6.3,1.3,7.8,4.4
			c-0.8,4.5-7.4,5.7-9.2,9.7c-1.4,2.6-1.5,5.3-0.6,8.1c1.8,3,5.3,5.1,8.9,4.8c4.4-0.1,8.2-4,10-7.8c2.9-5.8,1.3-11.7,3.7-17.8
			c4,2.4,6.9,5.7,10.6,8.7c1.1,1,2.6,2,3.5,3.2c-4.7,4.8-9.2,9.5-12,15.8c-5.1,10.8-8.1,23.4-8.4,35.3c-0.4,9.9,3.8,19.9,11.1,26.6
			c4.4,4.4,10.4,7,16.6,7.5c9.3,0.9,19.3-0.4,27.7-4.4c5.2-2.3,7.9-6.9,13.2-8.8c3.1-1,7.2-1.2,8.8,2.2c2.4,5.1,5.3,9.8,9.2,13.9
			c2.6,2.8,6,4.4,8.4,7.6c2.4,3.3,4.4,7.3,4.6,11.5c0.5,7.9,4.4,15.7,8.8,22.2c0.8,0.9,1.9,2.9,3.1,3.1c0.6-1.3,1.1-2.6,2.1-3.6
			c-12.3,27.1-33.9,50.2-59.6,65.1c0.2-2.9,1.9-5.7,2.8-8.6c4.4-13.1,5.8-28,0.9-41.2c-3.6-10.2-10.4-18.5-18.8-25.2
			c-31.2-27.1-62.4-54.3-93.6-81.4c-11-10.2-15.1-26.7-10.1-40.9C331.3,398.5,344.8,387.8,359.9,386.8z M360.3,393.5
			c-3.9,1.5-2.1,8.1,1.7,8.2C366.4,400.7,364.9,392.2,360.3,393.5z"/>
	</g>
	<g>
		<path id="p27" class="st5" d="M379.2,390c4.7,2.1,8.6,5.1,12.3,8.7c1.9,1.8,4.7,3.3,6.1,5.6c-2.4,6.1-0.8,12-3.7,17.8
			c-1.8,3.7-5.5,7.7-10,7.8c-3.6,0.3-7-1.9-8.9-4.8c-0.9-2.8-0.7-5.5,0.6-8.1c1.8-3.9,8.4-5.1,9.2-9.7c-1.4-3.1-4.9-3.3-7.8-4.4
			C374.6,399.2,378.3,393.8,379.2,390z"/>
	</g>
	<g>
		<path id="p28" class="st5" d="M253.4,392.5c10,19.2,20,38.6,30,57.8c-3.2,1.4-6.1,1.1-8.3,4.1c-5.7,7.2-7,16.6-13.4,23.6
			c-4.8,7.3,0.4,13.1-1.7,20.2c-1,0.2-1.9,0.2-2.7,0c-2.5-2.3-2.9-6.9-4.5-9.7c-1.5-2.2-2.8-4.2-5.6-4.7c-4.8,2.8-4.5,9.6-4.8,14.5
			c-0.2,3.9,0.2,10.6,3.7,13.1c1.4-0.4,1.3-3.6,1.6-4.9c0.8-0.2,1.6-0.4,2.3-0.6c3,5.2-0.2,10.3,3.7,14.7c6,2.3,6.5,9.8,7.1,15.3
			c3.1,1.8,6.3,3.1,9.7,4c1.6-2.7,3.8-4.7,7-5c9.8-1.1,20.5,0.2,28.4,6.6c3.2,3.1,7.7,5.5,12.2,5.6c5.8,0.4,9.7,3.9,14,7.2
			c7.1,3.3,15.2,4.9,23,5.1c7.1,0.6,15.2,1.1,21.9,3.9c2.8,0.9,3.5,3.4,4.2,6c1,4.6-1.5,8.4-0.7,13.1c0.2,6.7,4.3,10.7,2,17.2
			c-1.3,4.6-5.6,4.8-7.5,8.9c-2.1,3.7,0.6,6.8,0.5,10.9c0,3.7,0.8,8-2.5,10.6c-7.6,0.1-15.1-0.5-22.6-1.5c-2.1-1-4.5-0.7-6.5-1.7
			c-6.1-2.9-11.7-7.1-15.4-12.8c-2.1-3.2-4.8-5.7-7.7-8.2c-13.4-13.2-30-18-42.6-32.3c-2.2-3.2-4-7.1-4.6-11c0.2-3.7,0-7.4-1.6-10.8
			c-1.5-2.4-3.3-4.7-5.4-6.5c-6-4.6-11.5-10.1-15.4-16.6c-3.4-4.6-4.5-9.6-9.3-12.8c-1.9-1.3-2.8-2.3-3.6-4.4
			c-3.4-7.9-5.3-16.8-6.9-25.1c-1.6-6.4-2-13.2-2-19.8c0.4-14,2.5-28.3,7.1-41.5c1.3-4,3.3-7.8,4.7-11.7
			C244.5,405.7,248.7,399.1,253.4,392.5z"/>
	</g>
	<g>
		<path id="p29" class="st5" d="M360.3,393.5c4.6-1.4,6.2,7.2,1.7,8.2C358.1,401.7,356.3,395,360.3,393.5z"/>
	</g>
	<g>
		<path id="p30" class="st7" d="M484.9,398.7c5.3,1.3,8.5,6.5,13.5,7.8c1.6,2.5,2.9,5.1,4.2,7.8c-5.1-1.2-9.8-4.4-13.5-8.1
			C487.3,404,484.9,401.6,484.9,398.7z"/>
	</g>
	<g>
		<path id="p31" class="st5" d="M284,402.2c2.2,1.8,1.5,4.2,2.3,6.7c1,1.6,2.9,1,4.5,1.3c2.2,1.7,3.5,3.9,4.9,6.3
			c2.6,5,4.7,10,3.9,15.8c-0.5,4.5-2.2,8.2-5.3,11.5c-5.4-10.6-11-21.1-16.4-31.7c0.8-3.3,0.2-7.5,3-9.9
			C281.7,401.2,283.2,401.3,284,402.2z"/>
	</g>
	<g>
		<path id="p32" class="st4" d="M241,413c-1.4,4-3.4,7.7-4.7,11.7c-4.5,13.2-6.7,27.6-7.1,41.5c-0.1,6.6,0.4,13.3,2,19.8
			c1.7,8.3,3.5,17.2,6.9,25.1c0.9,2.1,1.7,3.1,3.6,4.4c4.7,3.2,5.8,8.2,9.3,12.8c3.9,6.5,9.4,12,15.4,16.6c2.1,1.9,4,4.1,5.4,6.5
			c1.6,3.4,1.8,7.2,1.6,10.8c0.6,3.8,2.4,7.8,4.6,11c12.7,14.3,29.2,19.2,42.6,32.3c2.9,2.5,5.6,5,7.7,8.2c3.6,5.7,9.3,10,15.4,12.8
			c2.1,1,4.4,0.7,6.5,1.7c-37.1-5.1-71.7-25-94.9-54.5c-17.9-22.7-29.1-50.6-31.4-79.5c-0.1-4-0.3-8-0.3-12.1
			c-0.4-20.6,4.3-41.5,12.6-60.4C237.7,418.9,238.9,415.6,241,413z"/>
	</g>
	<g>
		<path id="p33" class="st5" d="M411.7,416.2c33.9,28.9,69.4,60.1,103.4,89.2c0.5,0.5,1,1,1.4,1.5c-0.4,3.2-1.7,6.3-1.5,9.5
			l-0.1,0.3c-1.4,0.7-2.2,5.3-1.8,6.8l-0.3,0.4c-0.9,0.7-1.1,1.5-0.6,2.6l-0.4,0.5c-0.9,0.6-1.1,1.5-0.6,2.5l0,0
			c-1.8,2-2.3,5-3.4,7.4c-0.9,2.5-2.5,5-2.8,7.7v0.2c-1,1.1-1.5,2.4-2.1,3.6c-1.2-0.2-2.3-2.2-3.1-3.1c-4.4-6.5-8.3-14.3-8.8-22.2
			c-0.2-4.1-2.1-8.2-4.6-11.5c-2.4-3.1-5.8-4.8-8.4-7.6c-3.9-4.1-6.8-8.8-9.2-13.9c-1.6-3.4-5.8-3.2-8.8-2.2
			c-5.4,1.9-8.1,6.5-13.2,8.8c-8.5,4.1-18.4,5.3-27.7,4.4c-6.2-0.6-12.1-3.1-16.6-7.5c-7.3-6.7-11.5-16.7-11.1-26.6
			c0.3-11.9,3.3-24.5,8.4-35.3C402.5,425.8,407,421.1,411.7,416.2z"/>
	</g>
	<g>
		<path id="p34" class="st4" d="M283.4,450.3c1.6,2.9,3,5.9,5.1,8.5c7,9.6,18.7,15.9,30.5,16.7c6.9,0.6,13.4-0.8,19.8-3.2
			c27.5,23.9,55,47.8,82.5,71.8c5.4,4.5,10.4,9,13.6,15.3c4.3,8,5.5,17,4.2,25.9c-1.6,11.2-6.1,22.8-13.7,31.3c-2.7,3-6,4.9-9.6,6.4
			c-13.8,4.4-28.3,6.7-42.8,6.8c3.2-2.6,2.5-6.9,2.5-10.6c0.1-4.1-2.6-7.2-0.5-10.9c1.8-4.1,6.2-4.3,7.5-8.9
			c2.3-6.5-1.7-10.5-2-17.2c-0.8-4.6,1.7-8.5,0.7-13.1c-0.6-2.6-1.4-5.1-4.2-6c-6.7-2.8-14.8-3.3-21.9-3.9c-7.8-0.3-15.9-1.8-23-5.1
			c-4.3-3.3-8.3-6.8-14-7.2c-4.5,0-9-2.5-12.2-5.6c-7.9-6.4-18.6-7.7-28.4-6.6c-3.2,0.3-5.4,2.3-7,5c-3.5-0.9-6.6-2.2-9.7-4
			c-0.6-5.5-1.1-13-7.1-15.3c-3.9-4.4-0.7-9.5-3.7-14.7c-0.8,0.2-1.6,0.4-2.3,0.6c-0.4,1.3-0.2,4.5-1.6,4.9
			c-3.4-2.5-3.9-9.2-3.7-13.1c0.3-4.9,0-11.6,4.8-14.5c2.9,0.4,4.1,2.5,5.6,4.7c1.6,2.9,2,7.5,4.5,9.7c0.9,0.2,1.8,0.2,2.7,0
			c2.1-7.1-3.1-12.9,1.7-20.2c6.4-7,7.7-16.4,13.4-23.6C277.3,451.4,280.2,451.7,283.4,450.3z"/>
	</g>
	<g>
		<path id="p35" class="st10" d="M103.4,475.1c39.2-0.2,80.4,0,119.8-0.1c-0.1,6.5-0.2,12.9,0.8,19.4c2.3,28.8,13.5,56.8,31.4,79.5
			c23.2,29.4,57.8,49.4,94.9,54.5c7.5,1.1,15,1.6,22.6,1.5c14.5-0.1,29-2.4,42.8-6.8c10.2-2.8,20.6-7.6,29.6-13.1
			c25.7-14.9,47.3-38,59.6-65.1v-0.2c1.4-1.5,2-3.8,2.9-5.6c1.2-3.1,2.7-6.2,3.3-9.5l0,0c0.8-0.6,1-1.5,0.6-2.5l0.4-0.5
			c0.8-0.6,1-1.5,0.6-2.6l0.3-0.4c1-1.2,2.2-5.4,1.8-6.8l0.1-0.3c1-1.9,1.2-4.3,1.7-6.4c0.8-4.9,2.1-9.8,2.5-14.7
			c0.4-6.8,0.2-13.7,0.1-20.5c41.9,0.1,83.7,0,125.6,0c-15.2,41.7-40.6,79.9-72.9,110.3c-26.8,25.3-58.6,45.5-93,58.9
			c-42.7,16.7-89.4,22.9-135,18.1c-43.4-4.4-85.8-19-122.8-42.3C167.4,586.6,125,534.6,103.4,475.1z"/>
	</g>
	<g>
		<path id="p36" class="st11" d="M519,483c0.5,4.1,0.1,8.2,0.2,12.4c-0.4,4.9-1.8,9.8-2.5,14.7c-0.5,2.2-0.6,4.5-1.7,6.4
			c-0.1-3.2,1.2-6.3,1.5-9.5c-0.4-0.5-0.9-1.1-1.4-1.5c0.6,0.3,1.3,0.6,1.9,0.9c0.8-4.6,3-10.9,0.7-15.4
			C519,488.6,518.4,485.7,519,483z"/>
	</g>
	<g>
		<path id="p37" class="st12" d="M514.9,516.9c0.5,1.4-0.8,5.6-1.8,6.8C512.6,522.2,513.5,517.6,514.9,516.9z"/>
	</g>
	<g>
		<path id="p38" class="st13" d="M512.8,524c0.4,1.1,0.2,2-0.6,2.6C511.7,525.6,511.9,524.7,512.8,524z"/>
	</g>
	<g>
		<path id="p39" class="st14" d="M511.8,527.1c0.4,1,0.2,1.9-0.6,2.5C510.7,528.6,510.9,527.8,511.8,527.1z"/>
	</g>
	<g>
		<path id="p40" class="st15" d="M511.2,529.7c-0.6,3.3-2.1,6.4-3.3,9.5c-0.9,1.9-1.5,4.1-2.9,5.6c0.3-2.7,1.9-5.2,2.8-7.7
			C508.9,534.7,509.4,531.6,511.2,529.7z"/>
	</g>
</g>
<g>
	<g class="st16">
		<path id="p1_00000091004370598113068520000004996735263724309681_" class="st17" d="M514.8,39.2c42.7,18.1,82,44.4,114.9,77.1
			c30.8,30.3,56.2,66.2,74.6,105.2c24.5,51.8,36.4,109.2,34.8,166.5c-1.2,49.1-12.4,97.7-32.7,142.5c-15.1,33.2-35.2,64.2-59.4,91.5
			c-5.1,5.4-9.9,11.6-15.7,16.3c-3.4,4.4-8,8.1-12.1,11.9c-54.1,49.6-123.2,82.4-196,92.5c-51.6,7.2-105,3.7-155-10.9
			c-62.7-18.1-120.2-53.5-165-101C58.1,583,26.2,523.1,11.9,459C1.1,410.5,0.2,359.8,9.1,311c10.6-57.6,35.2-112.4,71.3-158.5
			C126.5,92.9,191.1,48.1,263.2,26.2C345.2,1,435.9,5.5,514.8,39.2z M10.9,428.4c2,18.3,6.5,36.7,11.6,54.4
			c13.3,44.4,35.2,86.3,64.3,122.4c3.8,5.1,8.2,9.8,12.2,14.7c13.1,13.8,26.5,27.8,41.4,39.6c48,39.6,106.2,66.3,167.6,77.1
			c40.3,7,82.1,7.2,122.5,0.7c42.6-7.1,84.1-21.8,121.5-43.3c24-13.8,45.9-30,66.3-48.7c19-17.5,35.9-37.2,50.8-58.2
			c34.2-48.7,56.1-105.5,63.2-164.6c5.5-46,2.5-93.4-9.6-138.2c-10.8-40.6-28.6-79-52.6-113.5c-23.6-34-53.6-64.4-87.3-88.5
			C545.9,55.7,504,36.4,460,25.3c-40-10.1-81.9-13.2-123-9.3c-46.6,4.2-92.3,17.8-133.8,39.3c-23.9,12.6-46.2,27.5-66.9,45
			c-3.6,2.7-6.7,6.1-10.3,8.8c-13.1,12.3-25.6,25-36.9,39.1c-21.8,26.7-40.1,56.8-53.4,88.6C14.1,287.9,4.7,343.6,7.8,399
			C8.5,408.7,9.1,418.9,10.9,428.4z"/>
	</g>
	<g>
		<path id="p2_00000178890851806234126330000010648299249693840034_" class="st18" d="M462.9,22.6c44.1,11.1,85.9,30.4,122.9,57
			c33.7,24.1,63.7,54.5,87.3,88.5c24,34.5,41.8,72.8,52.6,113.5c12.1,44.8,15.1,92.2,9.6,138.2c-7.1,59.1-29,115.9-63.2,164.6
			c-14.9,21-31.8,40.7-50.8,58.2c-20.4,18.7-42.3,34.9-66.3,48.7c-37.4,21.5-78.9,36.2-121.5,43.3c-40.4,6.5-82.2,6.3-122.5-0.7
			c-61.4-10.7-119.5-37.4-167.6-77.1C128.5,645,115.1,631,102,617.3c-4-4.9-8.4-9.6-12.2-14.7c-29.1-36.1-51-78-64.3-122.4
			c-5.2-17.7-9.6-36.1-11.6-54.4c-1.7-9.5-2.4-19.7-3-29.4c-3.1-55.4,6.3-111.1,28-162.2c13.3-31.9,31.6-61.9,53.4-88.6
			c11.2-14,23.8-26.7,36.9-39.1c3.6-2.8,6.6-6.1,10.3-8.8c20.6-17.5,42.9-32.4,66.9-45C247.7,31,293.4,17.4,340,13.3
			C381,9.4,422.9,12.5,462.9,22.6z M614,199.2c-39.2-53.7-96.8-93.4-161.1-110.9c-41.4-11.4-85.1-13.4-127.5-6.6
			c-42.1,7-82.6,23.2-118,47.1c-24.4,16.6-46.2,36.4-64.7,59.4c-37.9,46.5-61.4,105.1-65.5,165c-4.8,60.8,9.6,122.5,41,174.8
			c16.3,27.5,37.5,52.5,61.8,73.4C230.5,645,296.1,671,363,673c9,0.7,18,0.2,27-0.2c64.5-3,127.4-28.2,176.5-70
			c38.8-32.9,69-75.4,86.7-123.3c9.6-25.4,15.5-52.3,17.7-79.4c0.9-7.9,0.6-15.9,1.2-23.8c-0.4-11.7-0.7-23.4-2.1-35
			C664.2,290.2,644.6,240.6,614,199.2z"/>
	</g>
	<g>
		<path id="p3_00000155107879148299913390000008351844711871048590_" d="M453,88.3c64.2,17.5,121.8,57.2,161.1,110.9
			c30.6,41.3,50.2,91,55.9,142.1c1.5,11.6,1.7,23.3,2.1,35c-0.6,7.9-0.3,15.9-1.2,23.8c-2.1,27.1-8.1,54-17.7,79.4
			c-17.7,47.8-47.8,90.3-86.7,123.3c-49.1,41.9-112,67-176.5,70c-9,0.4-18,0.9-27,0.2c-66.9-2-132.5-28-183-71.7
			c-24.3-20.9-45.4-45.9-61.8-73.4c-31.4-52.3-45.8-114-41-174.8c4.1-59.9,27.6-118.4,65.5-165c18.5-23,40.3-42.8,64.7-59.4
			c35.4-23.9,75.9-40.1,118-47.1C367.8,74.9,411.6,76.9,453,88.3z M85.9,436l1,0.5c3.7,16.8,8.3,33.1,14.9,49
			c8.9,21.5,20.1,42.3,33.7,61.2c18.1,25.1,40.3,47.5,65.2,65.8c32,23.5,68.7,40.2,107.4,49.2c50.3,11.4,104,9.7,153.3-5.8
			c35.7-11.1,69.4-29.2,98.3-52.9c11.7-9.3,22.4-20.3,32.7-31.2c27.5-30.5,48.3-67.1,61.1-106c13.1-41.7,17.5-85.4,11.6-128.7
			c-5.3-42.1-20.4-83.1-43.1-118.9c-18.8-29.6-43-55.9-71-76.9c-38-28.8-83-48-130-55.6c-34.5-5.5-69.7-4.9-104,1.9
			c-42.5,8.3-82.9,26.2-117.6,52.1c-29.9,22.1-55.3,49.7-74.8,81.3C93.2,270.9,78,330.3,80.8,389.3c0.6,14.9,2.7,29.5,5.5,44.1
			C86.5,434.3,86.4,435.1,85.9,436z"/>
	</g>
	<g>
		<path id="p4_00000114050594747361485580000009584244566359708580_" class="st18" d="M421,85.6c47.1,7.5,92.1,26.8,130,55.6
			c28,21,52.2,47.4,71,76.9c22.7,35.8,37.8,76.8,43.1,118.9c5.9,43.3,1.5,87.1-11.6,128.7c-12.8,39-33.6,75.6-61.1,106
			c-10.3,10.8-21,21.9-32.7,31.2c-28.9,23.7-62.6,41.9-98.3,52.9c-49.3,15.5-103,17.3-153.3,5.8c-38.7-9-75.4-25.7-107.4-49.2
			c-25-18.2-47.2-40.7-65.2-65.8c-13.6-18.9-24.8-39.8-33.7-61.2c-6.6-15.9-11.2-32.2-14.9-49l-1-0.5c0.5-0.9,0.6-1.8,0.4-2.6
			c-2.8-14.6-4.8-29.2-5.5-44.1c-2.8-59,12.4-118.4,43.7-168.5c19.5-31.6,45-59.2,74.8-81.3c34.8-25.8,75.1-43.7,117.6-52.1
			C351.3,80.7,386.5,80.1,421,85.6z M103.6,275.3c63.7,0,127.4,0,191.1,0c-0.1,6.5-0.1,13.1,0,19.6c-12.5-11.3-31.1-14.5-46.5-7.5
			c-14.7,6.6-24.7,21.6-24.8,37.8c-0.1,42.6,0,85.4,0,128c0,7.2,0.1,14.5-0.1,21.7c-39.4,0-80.6-0.1-119.8,0.1
			c21.6,59.6,64,111.5,117.8,145c37,23.2,79.3,37.8,122.8,42.3c45.6,4.8,92.3-1.3,135-18.1c34.4-13.4,66.2-33.6,93-58.9
			c32.3-30.5,57.6-68.6,72.9-110.3c-41.9,0-83.8,0-125.6,0c0.1,6.8,0.3,13.7-0.1,20.5c-0.1-4.2,0.2-8.2-0.2-12.4
			c0-5.1-0.3-10.3-0.6-15.5c1.1-3.7,0.9-7.4,0.9-11.3c0-60.3,0-120.7,0-181c41.8,0,83.6,0,125.4,0c-15.6-42.2-41.4-80.7-74.4-111.2
			C519.5,116.7,451.4,88.6,382,87.3c-11.1,0-22-0.3-33,0.9c-67.4,5.5-132.4,36-179.7,84.4C140.3,201.4,117.8,237,103.6,275.3z"/>
	</g>
	<g>
		<path id="p5_00000008872055888685751600000006079030569330655139_" class="st19" d="M382,87.3c69.5,1.4,137.5,29.4,188.2,76.8
			c33,30.5,58.8,69.1,74.4,111.2c-41.8,0-83.6,0-125.4,0c0-28.3,0-56.7,0-85c-0.2-15.5-9.9-29.9-23.9-36.3
			c-11.7-5.4-25.9-4.9-37.1,1.5c-3.4,1.9-6.4,4.4-9.4,6.9c-2.1-10-7.7-19-15.9-25.1c-12.8-9.9-31.2-11.2-45.3-3.3
			c-9.4,5.2-16.7,13.9-19.9,24.2c-1.8,5.6-2,11.3-1.9,17.2c-7-6.4-15.4-10.8-24.9-11.6c-16.3-2-32.6,6.5-40.8,20.7
			c-3.6,6.3-5.5,13.5-5.5,20.8c0,23.3,0,46.7,0,70c-63.7,0-127.4,0-191.1,0c14.2-38.3,36.7-73.8,65.7-102.7
			c47.3-48.4,112.2-78.8,179.7-84.4C360,87,370.9,87.3,382,87.3z"/>
	</g>
	<g>
		<path id="p6_00000106825590575875980230000006569327381594291888_" class="st20" d="M433,137.3c8.1,6.1,13.8,15.1,15.9,25.1
			c3-2.6,5.9-5,9.4-6.9c11.2-6.4,25.4-6.9,37.1-1.5c14,6.4,23.7,20.8,23.9,36.3c0.1,28.3,0,56.7,0,85c0,60.3,0,120.7,0,181
			c0,3.9,0.2,7.6-0.9,11.3c-2-15.7-5.7-31-12.2-45.5c0.9-3.8,0.5-7.9,0.5-11.8c0-45,0-90,0-135c0-28.3,0-56.7,0-85
			c-0.3-15.2-13.6-27.8-28.8-27.5c-14.5-0.1-27.7,12-28.1,26.6c0,28.7,0,57.3,0,86c-0.1,27.2,0.1,54.4-0.1,81.5
			c-4.2-2.5-8.4-4.9-12.8-7.1c0-24.8,0-49.6,0-74.4c0-35.7,0-71.4,0-107c-0.8-14.5-13.5-26.5-28-26.9c-13.4-0.8-25.9,8.5-29.5,21.3
			c-1.4,4.5-1,8.9-1.1,13.6c0.1,9.7-0.2,19.3,0.2,29c0,23.3,0,46.7,0,70c0.1,19.7-0.1,39.4,0.1,59.1c-1.1-0.1-2.3-0.1-3.5-0.1
			c-3.1-0.1-6.3-0.1-9.4,0c-0.1-19.7,0-39.3,0-59c0-23.7,0-47.4,0-71c-0.1-14.9-12.9-27.7-27.8-28.2c-11.5-0.8-23,6-27.9,16.4
			c-2.1,4-3,8.4-3,12.9c0,23.3,0,46.7,0,70c0,12,0,24,0,36c-0.2,3.3,1.8,5.9,3.2,8.7c4.1,7.5,7.8,15.1,11.8,22.6
			c1.8,3.4,3.4,6.9,5.4,10.2c2.2,4.8,4.6,9.5,7.2,14.1c1.2,2.5,2.5,4.9,3.8,7.4c0.7,1.6,1.5,3.1,2.3,4.7c0.8-0.2,1.5-0.5,2.3-0.8
			c8.4-4,17.9-4.6,27-4c1.1,0.2,2.2,0.4,3.4,0.6c1.9,0.5,3.7,1,5.6,1.4c5.8,2.1,11.4,4.8,16.2,8.8c2.9,2.1,5.3,4.8,8.1,6.9
			c2.6,2.1,4.9,4.8,7.7,6.6c1.9,0.6,4.1,0.4,6.1,0.6c-1.8,0.1-3.6,0-5.4,0c4.1,4,8.6,7.6,13,11.4c30.9,26.7,62.2,53.8,93,80.4
			c2.3,4.5,0.1,10.8-0.7,15.4c-0.7-0.3-1.3-0.6-1.9-0.9c-34-29.2-69.5-60.3-103.4-89.2c-0.9-1.2-2.3-2.2-3.5-3.2
			c-3.7-3-6.5-6.3-10.6-8.7c-1.4-2.3-4.2-3.8-6.1-5.6c-3.7-3.5-7.6-6.6-12.3-8.7c-1.8-0.8-3.6-1.5-5.5-2c-4.5-1.4-9.1-1.6-13.8-1.3
			c-15.1,1-28.6,11.8-33.4,26c-5,14.2-0.9,30.6,10.1,40.9c31.2,27.1,62.4,54.3,93.6,81.4c8.4,6.7,15.2,15,18.8,25.2
			c4.9,13.2,3.6,28.1-0.9,41.2c-0.9,2.8-2.6,5.6-2.8,8.6c-9.1,5.5-19.4,10.3-29.6,13.1c3.6-1.5,7-3.5,9.6-6.4
			c7.6-8.5,12.1-20.1,13.7-31.3c1.3-8.9,0.1-18-4.2-25.9c-3.3-6.4-8.2-10.8-13.6-15.3c-27.5-23.9-55-47.8-82.5-71.8
			c-6.4,2.4-12.9,3.8-19.8,3.2c-11.9-0.8-23.5-7.1-30.5-16.7c-2.1-2.6-3.5-5.6-5.1-8.5c-10-19.2-20-38.6-30-57.8
			c-5.6-11.2-11.4-22.2-17.2-33.3c-0.3,14,0,28.1-0.1,42.1c0.1,6.9-0.3,13.8,0.3,20.6c-8.3,18.9-13,39.8-12.6,60.4
			c0,4,0.3,8,0.3,12.1c-1-6.4-0.9-12.9-0.8-19.4c0.2-7.2,0.1-14.5,0.1-21.7c0-42.6,0-85.4,0-128c0-16.2,10.1-31.2,24.8-37.8
			c15.4-7.1,34-3.8,46.5,7.5c-0.1-6.6-0.1-13.1,0-19.6c0-23.3,0-46.7,0-70c0-7.3,1.9-14.5,5.5-20.8c8.2-14.2,24.5-22.7,40.8-20.7
			c9.5,0.9,17.9,5.3,24.9,11.6c-0.1-5.9,0.1-11.6,1.9-17.2c3.2-10.3,10.5-19.1,19.9-24.2C401.8,126.2,420.2,127.4,433,137.3z
			 M262,381.4c0.6-0.3,1.2-0.6,1.8-1c-0.5,0.6-1,1.2-1.4,1.7c3,6,6.2,11.9,9.2,17.8c2,4.1,4.1,8.1,6.3,12.1
			c5.4,10.6,11,21.1,16.4,31.7c1.9,3.8,3.8,7.4,6.8,10.4c6.8,6.8,16.4,9.9,25.9,8.5c-0.6-1.9-2.4-3.3-3.6-4.8
			c-13-15.4-15.2-38.3-5.9-56.1c3.1-6.3,7.6-10.9,12.5-15.8c-0.4-1.7-1.3-3.1-2.1-4.6c-4.6-9-9.2-17.9-13.9-26.8
			c-1.3-2.3-2.2-5.2-4.2-7c-0.5-2.9-2.1-5.1-3.4-7.7c-4.6-9-9.4-18-14-27c-3.3-6.8-9.2-12.1-16.4-14.7c-8.4-3.3-18.6-1.8-26.1,3.1
			c-9.8,6.2-15,18.6-12.8,30c0.7,4.1,2.5,7.7,4.5,11.3C248.4,355.5,255.1,368.5,262,381.4z"/>
	</g>
	<g>
		<path id="p7_00000134936519633619911570000014234443354147991993_" class="st19" d="M409,141.4c14.5,0.4,27.2,12.4,28,26.9
			c0,35.6,0,71.4,0,107c-19.5,0-38.9,0-58.4,0c0-23.3,0-46.7,0-70c-0.4-9.7-0.1-19.3-0.2-29c0.1-4.7-0.2-9,1.1-13.6
			C383.1,149.9,395.6,140.6,409,141.4z"/>
	</g>
	<g>
		<path id="p8_00000147903121872070420210000012846517142896165807_" class="st19" d="M478,162.7c15.1-0.2,28.5,12.3,28.8,27.5
			c0.1,28.3,0,56.7,0,85c-19,0-37.9,0-56.9,0c0-28.7,0-57.4,0-86C450.3,174.7,463.5,162.6,478,162.7z"/>
	</g>
	<g>
		<path id="p9_00000029033838052891241330000004517463730466548887_" class="st19" d="M338,176c14.9,0.5,27.6,13.3,27.8,28.2
			c0.1,23.7,0,47.4,0,71c-19.6,0-39.1,0-58.7,0c0-23.3,0-46.7,0-70c0-4.5,1-8.9,3-12.9C315.1,182,326.5,175.3,338,176z"/>
	</g>
	<g>
		<path id="p10_00000160878577422210080680000015963177581104834963_" class="st18" d="M307.1,275.3c19.6,0,39.1,0,58.7,0
			c0,19.7-0.1,39.3,0,59c-14.9,0.6-29.6,3.5-43.8,8.3c-4-7.5-7.7-15.1-11.8-22.6c-1.3-2.8-3.4-5.4-3.2-8.7
			C307.1,299.3,307.1,287.3,307.1,275.3z"/>
	</g>
	<g>
		<path id="p11_00000099661540176693907180000014573708582830464692_" class="st18" d="M378.6,275.3c19.5,0,38.9,0,58.4,0
			c0,24.8,0,49.6,0,74.4c-17.7-9-38.5-14.4-58.3-15.3C378.5,314.7,378.7,295,378.6,275.3z"/>
	</g>
	<g>
		<path id="p12_00000101097582768949742580000009642371221056750506_" class="st18" d="M449.9,275.3c19,0,37.9,0,56.9,0
			c0,45,0,90,0,135c-0.1,3.9,0.3,8-0.5,11.8c-1.1-2.7-2.4-5.2-3.7-7.8c-1.3-2.7-2.6-5.3-4.2-7.8c-12.2-20.1-28.6-37.3-48.6-49.7
			C450,329.6,449.8,302.4,449.9,275.3z"/>
	</g>
	<g>
		<path id="p13_00000183971050671122037400000007470687369817600657_" class="st18" d="M276.1,298.1c7.2,2.5,13,7.9,16.4,14.7
			c4.6,9.1,9.4,18,14,27c1.3,2.6,2.9,4.8,3.4,7.7c-9.3,4.3-17.9,9.6-26.4,15.4c-7.1,5.3-13.6,11.1-19.7,17.5c-0.6,0.3-1.2,0.6-1.8,1
			c-6.9-12.9-13.5-25.9-20.2-38.9c-2-3.6-3.8-7.2-4.5-11.3c-2.3-11.4,2.9-23.8,12.8-30C257.5,296.4,267.7,294.9,276.1,298.1z"/>
	</g>
	<g>
		<path id="p14_00000136407969183922180840000011276422134165007534_" class="st21" d="M365.8,334.3c3.1-0.1,6.3-0.1,9.4,0
			c0.6,0.7,1.2,1.4,1.8,2.1c0.8,4.6-4.1,6.8-7.6,8.3c-6.1,2.3-9.7,9.3-7.3,15.5c1.8,4.9,4,10.5,7.9,14.2c-9.1-0.7-18.6,0-27,4
			c0-1.8-0.1-2.4-1.3-3.6c-1-0.3-2.1-0.4-3.2-0.2c-1.3-2.5-2.6-4.9-3.8-7.4c0.2-4.9-0.7-9.4-4.7-12.6c-0.8-0.5-1.6-1-2.5-1.5
			c-2-3.3-3.6-6.8-5.4-10.2C336.2,337.8,350.9,334.8,365.8,334.3z M338.2,348.2c1.5,3,5.1,3,7.9,2.2c0.7-2.6-0.5-4.9-3.1-5.7
			C341,344.8,339.4,346.8,338.2,348.2z"/>
	</g>
	<g>
		<path id="p15_00000044886511066278798650000015185302774297480837_" class="st22" d="M375.2,334.3c1.1,0,2.3,0.1,3.5,0.1
			c19.8,0.9,40.6,6.3,58.3,15.3c4.4,2.2,8.6,4.6,12.8,7.1c20,12.4,36.4,29.6,48.6,49.7c-5-1.2-8.2-6.5-13.5-7.8
			c0.1,2.9,2.4,5.3,4.2,7.5c3.7,3.6,8.4,6.9,13.5,8.1c1.3,2.6,2.6,5.1,3.7,7.8c6.5,14.5,10.2,29.8,12.2,45.5
			c0.3,5.1,0.6,10.3,0.6,15.5c-0.5,2.6,0,5.6-1.2,8c-30.8-26.6-62.1-53.8-93-80.4c5.7,0,10.7-2,16.1-3.6c5.4-6.6,16.1-9.1,20.9-16.6
			c-1.1-3.1-3.7-5.6-6.3-7.5c-1.5-1.1-2.8-0.7-4.5-0.7c-2.3,2.5-3.9,7.2-8,6.9c-2.7,0.3-4.1-3-4.7-5.1c-1.6-4.2-0.1-9.2,3.7-11.6
			c1.5-1.3,3.7-3.1,2.4-5.3c-3.7-0.7-7.8,0.4-11.3,1.4c-2.9,1-6.3,2.4-8,5c-0.1,2.9,3,4.6,5.4,5.3c2.3,0.6,3.9,1.4,5,3.6
			c-0.7,2.5-2.9,3-4.3,4.9c1.5,3.4,7.1,4.8,5.7,9c-3-0.1-5.3-1.3-7.6-3.1c-4.9-3.8-11.5-4.8-17.4-3c-1.3,0.5-3.3,0.8-3.9,2.2
			c4.7,2.2,12.8,0.7,16,5c-1.5,1.9-4.4,1.6-6.6,1.8c-2-0.2-4.2-0.1-6.1-0.6c-2.9-1.7-5.1-4.5-7.7-6.6c-2.9-2.1-5.2-4.8-8.1-6.9
			c-4.8-4-10.4-6.7-16.2-8.8c2.6-0.2,4.4,1.6,7,0.8c6.1-1,10.8-9.4,6.9-14.7c-2.9-3.4-5.9-1.3-9.6-3.5c-3.2-1.3-6.2-5.9-9.9-5.3
			c-0.2,3.1,0.6,6.1,2.6,8.5c2.4,2.6,5.7,1.2,8.5,3.5c2.1,1.5,2.9,4.3,1.5,6.5c-3.4,1.8-5.6,0-9.1,0.1c-1.8,0-2.4,1.3-3.6,2.5
			c-1.1-0.2-2.2-0.5-3.4-0.6c-3.9-3.6-6.1-9.3-7.9-14.2c-2.4-6.2,1.2-13.1,7.3-15.5c3.5-1.5,8.4-3.7,7.6-8.3
			C376.4,335.7,375.8,335,375.2,334.3z"/>
	</g>
	<g>
		<path id="p16_00000078725554920612149430000002291648755459356846_" class="st23" d="M343,344.8c2.7,0.7,3.8,3,3.1,5.7
			c-2.8,0.8-6.4,0.8-7.9-2.2C339.4,346.8,341,344.8,343,344.8z"/>
	</g>
	<g>
		<path id="p17_00000022522829324779845830000016826906825761080508_" class="st24" d="M309.8,347.6c1.9,1.8,2.9,4.7,4.2,7
			c-5.6,2.1-10.9,4.6-16,7.7c-4.1,2.3-8,4.8-12.9,3.8c-1.4-0.3-1.4-2.1-1.7-3.2C291.9,357.2,300.5,351.8,309.8,347.6z"/>
	</g>
	<g>
		<path id="p18_00000067197125610192786210000008817954756160839048_" class="st25" d="M327.5,352.8c0.8,0.5,1.7,1,2.5,1.5
			c4,3.1,5,7.7,4.7,12.6C332.1,362.3,329.7,357.6,327.5,352.8z"/>
	</g>
	<g>
		<path id="p19_00000131343762075931538030000013879536209274864560_" class="st24" d="M373.4,353.7c3.7-0.6,6.6,4,9.9,5.3
			c3.7,2.1,6.7,0,9.6,3.5c3.9,5.3-0.8,13.6-6.9,14.7c-2.6,0.8-4.4-1-7-0.8c-1.9-0.4-3.7-0.9-5.6-1.4c1.2-1.1,1.8-2.4,3.6-2.5
			c3.4-0.1,5.7,1.7,9.1-0.1c1.4-2.2,0.6-5.1-1.5-6.5c-2.8-2.3-6-0.9-8.5-3.5C374,359.8,373.2,356.8,373.4,353.7z"/>
	</g>
	<g>
		<path id="p20_00000076599420178452712590000006657557819036682637_" class="st22" d="M314,354.6c4.7,8.9,9.3,17.9,13.9,26.8
			c-3.1,2.9-5.8,6.3-7.8,10c-1.5,2.7-0.9,5.6-2.7,8.3c-1.1,1.6-2.4,2.3-4.3,2.8c-3.1-2.3-3.4-7.6-3.7-11.1c-0.8-6,0.6-13.3-2.7-18.7
			c-0.9-1.7-2.3-1.4-3.6-0.4c-2.4,2.9-2.9,6.3-2.9,10c0,4.2-1.1,8.4-2.9,12.2c-1.2,2.3-3.4,4.7-6.2,4.8c-2.5-0.2-3.8-2.8-3.6-5.1
			c-0.1-2.2,2.4-4.2,3.6-6c0-1.1,0-2.2,0-3.3c-3.9-0.3-8.1,2.9-11.1,5.2c-3.6,2.5-6.5,5.8-8.3,9.8c-3.1-5.9-6.2-11.9-9.2-17.8
			c0.5-0.6,0.9-1.2,1.4-1.7c6.1-6.4,12.6-12.2,19.7-17.5c0.4,1.1,0.4,2.9,1.7,3.2c4.9,1,8.8-1.5,12.9-3.8
			C303.1,359.2,308.5,356.7,314,354.6z"/>
	</g>
	<g>
		<path id="p21_00000155130902157180288720000001103811863123729311_" class="st18" d="M236.1,359.2c5.8,11.1,11.6,22.1,17.2,33.3
			c-4.7,6.6-8.9,13.2-12.4,20.5c-2,2.6-3.2,5.8-4.7,8.9c-0.6-6.8-0.2-13.7-0.3-20.6C236.1,387.3,235.8,373.2,236.1,359.2z"/>
	</g>
	<g>
		<path id="p22_00000173863633380176877540000006537824390174178971_" class="st21" d="M444.4,367c1.3,2.1-0.9,4-2.4,5.3
			c-3.8,2.4-5.2,7.4-3.7,11.6c0.6,2.1,2,5.4,4.7,5.1c4.1,0.4,5.6-4.4,8-6.9c1.7,0,3.1-0.3,4.5,0.7c2.5,2,5.1,4.5,6.3,7.5
			c-4.9,7.5-15.5,10.1-20.9,16.6c-5.4,1.6-10.3,3.6-16.1,3.6c-4.3-3.8-8.9-7.4-13-11.4c1.8,0,3.6,0,5.4,0c2.2-0.2,5.1,0.1,6.6-1.8
			c-3.1-4.3-11.2-2.8-16-5c0.6-1.5,2.6-1.7,3.9-2.2c5.9-1.9,12.5-0.8,17.4,3c2.3,1.8,4.6,3,7.6,3.1c1.5-4.2-4.1-5.6-5.7-9
			c1.5-1.9,3.7-2.4,4.3-4.9c-1.1-2.1-2.7-3-5-3.6c-2.5-0.7-5.5-2.3-5.4-5.3c1.7-2.6,5.1-4,8-5C436.6,367.3,440.7,366.3,444.4,367z"
			/>
	</g>
	<g>
		<path id="p23_00000003074705771448968230000017708800044291560084_" class="st21" d="M306.7,372.7c3.3,5.4,1.9,12.6,2.7,18.7
			c0.3,3.5,0.6,8.8,3.7,11.1c1.9-0.4,3.2-1.1,4.3-2.8c1.8-2.6,1.2-5.6,2.7-8.3c2.1-3.7,4.7-7.1,7.8-10c0.9,1.5,1.7,2.9,2.1,4.6
			c-4.9,4.9-9.5,9.5-12.5,15.8c-9.3,17.8-7.1,40.7,5.9,56.1c1.2,1.5,3,3,3.6,4.8c-9.5,1.4-19.1-1.6-25.9-8.5
			c-3-3.1-4.9-6.6-6.8-10.4c3.1-3.3,4.9-7,5.3-11.5c0.8-5.8-1.3-10.8-3.9-15.8c-1.4-2.3-2.7-4.6-4.9-6.3c-1.6-0.3-3.6,0.3-4.5-1.3
			c-0.8-2.5-0.1-4.9-2.3-6.7c-0.8-0.9-2.3-1-3.2-0.1c-2.7,2.5-2.1,6.6-3,9.9c-2.2-4-4.3-8-6.3-12.1c1.8-4,4.7-7.3,8.3-9.8
			c3-2.2,7.2-5.5,11.1-5.2c0,1.1,0,2.2,0,3.3c-1.2,1.8-3.7,3.7-3.6,6c-0.2,2.3,1.1,4.9,3.6,5.1c2.8-0.1,5-2.6,6.2-4.8
			c1.8-3.8,2.9-8,2.9-12.2c0-3.7,0.6-7.1,2.9-10C304.3,371.2,305.7,371,306.7,372.7z"/>
	</g>
	<g>
		<path id="p24_00000170266819446267518510000011555403143458305431_" class="st26" d="M338.5,374.3c1.1-0.1,2.2,0,3.2,0.2
			c1.2,1.3,1.4,1.9,1.3,3.6c-0.7,0.3-1.5,0.6-2.3,0.8C340,377.4,339.2,375.9,338.5,374.3z"/>
	</g>
	<g>
		<path id="p25_00000066481529610095694870000008333529774935978138_" class="st22" d="M373.7,388.1c0.5,0.8,0.9,1.5,1.4,2.3
			c-0.4,2.8-1.8,5.4-3.4,7.6c-0.6,0.4-1.3,0.4-2.3,0c-0.7-2.2-0.6-4.3-2.2-5.9c-1.9-2.5-4.9-3.3-7.3-5.3
			C364.6,386.5,369.2,386.7,373.7,388.1z"/>
	</g>
	<g>
		<path id="p26_00000076603727525242865310000008889366690037546386_" class="st21" d="M359.9,386.8c2.4,2,5.4,2.9,7.3,5.3
			c1.5,1.6,1.5,3.7,2.2,5.9c0.9,0.3,1.7,0.3,2.3,0c1.6-2.2,3.1-4.9,3.4-7.6c-0.5-0.8-0.9-1.5-1.4-2.3c1.9,0.5,3.8,1.2,5.5,2
			c-1,3.8-4.7,9.1-2.1,12.9c2.8,1.2,6.3,1.3,7.8,4.4c-0.8,4.5-7.4,5.7-9.2,9.7c-1.4,2.6-1.5,5.3-0.6,8.1c1.8,3,5.3,5.1,8.9,4.8
			c4.4-0.1,8.2-4,10-7.8c2.9-5.8,1.3-11.7,3.7-17.8c4,2.4,6.9,5.7,10.6,8.7c1.1,1,2.6,2,3.5,3.2c-4.7,4.8-9.2,9.5-12,15.8
			c-5.1,10.8-8.1,23.4-8.4,35.3c-0.4,9.9,3.8,19.9,11.1,26.6c4.4,4.4,10.4,7,16.6,7.5c9.3,0.9,19.3-0.4,27.7-4.4
			c5.2-2.3,7.9-6.9,13.2-8.8c3.1-1,7.2-1.2,8.8,2.2c2.4,5.1,5.3,9.8,9.2,13.9c2.6,2.8,6,4.4,8.4,7.6c2.4,3.3,4.4,7.3,4.6,11.5
			c0.5,7.9,4.4,15.7,8.8,22.2c0.8,0.9,1.9,2.9,3.1,3.1c0.6-1.3,1.1-2.6,2.1-3.6c-12.3,27.1-33.9,50.2-59.6,65.1
			c0.2-2.9,1.9-5.7,2.8-8.6c4.4-13.1,5.8-28,0.9-41.2c-3.6-10.2-10.4-18.5-18.8-25.2c-31.2-27.1-62.4-54.3-93.6-81.4
			c-11-10.2-15.1-26.7-10.1-40.9C331.3,398.5,344.8,387.8,359.9,386.8z M360.3,393.5c-3.9,1.5-2.1,8.1,1.7,8.2
			C366.4,400.7,364.9,392.2,360.3,393.5z"/>
	</g>
	<g>
		<path id="p27_00000084523016304264348690000007233177461756119480_" class="st22" d="M379.2,390c4.7,2.1,8.6,5.1,12.3,8.7
			c1.9,1.8,4.7,3.3,6.1,5.6c-2.4,6.1-0.8,12-3.7,17.8c-1.8,3.7-5.5,7.7-10,7.8c-3.6,0.3-7-1.9-8.9-4.8c-0.9-2.8-0.7-5.5,0.6-8.1
			c1.8-3.9,8.4-5.1,9.2-9.7c-1.4-3.1-4.9-3.3-7.8-4.4C374.6,399.2,378.3,393.8,379.2,390z"/>
	</g>
	<g>
		<path id="p28_00000168085974863314764980000014149745281916478649_" class="st22" d="M253.4,392.5c10,19.2,20,38.6,30,57.8
			c-3.2,1.4-6.1,1.1-8.3,4.1c-5.7,7.2-7,16.6-13.4,23.6c-4.8,7.3,0.4,13.1-1.7,20.2c-1,0.2-1.9,0.2-2.7,0c-2.5-2.3-2.9-6.9-4.5-9.7
			c-1.5-2.2-2.8-4.2-5.6-4.7c-4.8,2.8-4.5,9.6-4.8,14.5c-0.2,3.9,0.2,10.6,3.7,13.1c1.4-0.4,1.3-3.6,1.6-4.9
			c0.8-0.2,1.6-0.4,2.3-0.6c3,5.2-0.2,10.3,3.7,14.7c6,2.3,6.5,9.8,7.1,15.3c3.1,1.8,6.3,3.1,9.7,4c1.6-2.7,3.8-4.7,7-5
			c9.8-1.1,20.5,0.2,28.4,6.6c3.2,3.1,7.7,5.5,12.2,5.6c5.8,0.4,9.7,3.9,14,7.2c7.1,3.3,15.2,4.9,23,5.1c7.1,0.6,15.2,1.1,21.9,3.9
			c2.8,0.9,3.5,3.4,4.2,6c1,4.6-1.5,8.4-0.7,13.1c0.2,6.7,4.3,10.7,2,17.2c-1.3,4.6-5.6,4.8-7.5,8.9c-2.1,3.7,0.6,6.8,0.5,10.9
			c0,3.7,0.8,8-2.5,10.6c-7.6,0.1-15.1-0.5-22.6-1.5c-2.1-1-4.5-0.7-6.5-1.7c-6.1-2.9-11.7-7.1-15.4-12.8c-2.1-3.2-4.8-5.7-7.7-8.2
			c-13.4-13.2-30-18-42.6-32.3c-2.2-3.2-4-7.1-4.6-11c0.2-3.7,0-7.4-1.6-10.8c-1.5-2.4-3.3-4.7-5.4-6.5c-6-4.6-11.5-10.1-15.4-16.6
			c-3.4-4.6-4.5-9.6-9.3-12.8c-1.9-1.3-2.8-2.3-3.6-4.4c-3.4-7.9-5.3-16.8-6.9-25.1c-1.6-6.4-2-13.2-2-19.8
			c0.4-14,2.5-28.3,7.1-41.5c1.3-4,3.3-7.8,4.7-11.7C244.5,405.7,248.7,399.1,253.4,392.5z"/>
	</g>
	<g>
		<path id="p29_00000080172719444329754510000017919197295014224316_" class="st22" d="M360.3,393.5c4.6-1.4,6.2,7.2,1.7,8.2
			C358.1,401.7,356.3,395,360.3,393.5z"/>
	</g>
	<g>
		<path id="p30_00000113347663510837291870000005168706762664558517_" class="st24" d="M484.9,398.7c5.3,1.3,8.5,6.5,13.5,7.8
			c1.6,2.5,2.9,5.1,4.2,7.8c-5.1-1.2-9.8-4.4-13.5-8.1C487.3,404,484.9,401.6,484.9,398.7z"/>
	</g>
	<g>
		<path id="p31_00000072968632492022176510000009796775970664934546_" class="st22" d="M284,402.2c2.2,1.8,1.5,4.2,2.3,6.7
			c1,1.6,2.9,1,4.5,1.3c2.2,1.7,3.5,3.9,4.9,6.3c2.6,5,4.7,10,3.9,15.8c-0.5,4.5-2.2,8.2-5.3,11.5c-5.4-10.6-11-21.1-16.4-31.7
			c0.8-3.3,0.2-7.5,3-9.9C281.7,401.2,283.2,401.3,284,402.2z"/>
	</g>
	<g>
		<path id="p32_00000061470910899706671700000011011013794863600521_" class="st21" d="M241,413c-1.4,4-3.4,7.7-4.7,11.7
			c-4.5,13.2-6.7,27.6-7.1,41.5c-0.1,6.6,0.4,13.3,2,19.8c1.7,8.3,3.5,17.2,6.9,25.1c0.9,2.1,1.7,3.1,3.6,4.4
			c4.7,3.2,5.8,8.2,9.3,12.8c3.9,6.5,9.4,12,15.4,16.6c2.1,1.9,4,4.1,5.4,6.5c1.6,3.4,1.8,7.2,1.6,10.8c0.6,3.8,2.4,7.8,4.6,11
			c12.7,14.3,29.2,19.2,42.6,32.3c2.9,2.5,5.6,5,7.7,8.2c3.6,5.7,9.3,10,15.4,12.8c2.1,1,4.4,0.7,6.5,1.7
			c-37.1-5.1-71.7-25-94.9-54.5c-17.9-22.7-29.1-50.6-31.4-79.5c-0.1-4-0.3-8-0.3-12.1c-0.4-20.6,4.3-41.5,12.6-60.4
			C237.7,418.9,238.9,415.6,241,413z"/>
	</g>
	<g>
		<path id="p33_00000093858208102559935260000010625807253790765455_" class="st22" d="M411.7,416.2c33.9,28.9,69.4,60.1,103.4,89.2
			c0.5,0.5,1,1,1.4,1.5c-0.4,3.2-1.7,6.3-1.5,9.5l-0.1,0.3c-1.4,0.7-2.2,5.3-1.8,6.8l-0.3,0.4c-0.9,0.7-1.1,1.5-0.6,2.6l-0.4,0.5
			c-0.9,0.6-1.1,1.5-0.6,2.5l0,0c-1.8,2-2.3,5-3.4,7.4c-0.9,2.5-2.5,5-2.8,7.7v0.2c-1,1.1-1.5,2.4-2.1,3.6c-1.2-0.2-2.3-2.2-3.1-3.1
			c-4.4-6.5-8.3-14.3-8.8-22.2c-0.2-4.1-2.1-8.2-4.6-11.5c-2.4-3.1-5.8-4.8-8.4-7.6c-3.9-4.1-6.8-8.8-9.2-13.9
			c-1.6-3.4-5.8-3.2-8.8-2.2c-5.4,1.9-8.1,6.5-13.2,8.8c-8.5,4.1-18.4,5.3-27.7,4.4c-6.2-0.6-12.1-3.1-16.6-7.5
			c-7.3-6.7-11.5-16.7-11.1-26.6c0.3-11.9,3.3-24.5,8.4-35.3C402.5,425.8,407,421.1,411.7,416.2z"/>
	</g>
	<g>
		<path id="p34_00000163040052039942269300000001535024042159403687_" class="st21" d="M283.4,450.3c1.6,2.9,3,5.9,5.1,8.5
			c7,9.6,18.7,15.9,30.5,16.7c6.9,0.6,13.4-0.8,19.8-3.2c27.5,23.9,55,47.8,82.5,71.8c5.4,4.5,10.4,9,13.6,15.3
			c4.3,8,5.5,17,4.2,25.9c-1.6,11.2-6.1,22.8-13.7,31.3c-2.7,3-6,4.9-9.6,6.4c-13.8,4.4-28.3,6.7-42.8,6.8c3.2-2.6,2.5-6.9,2.5-10.6
			c0.1-4.1-2.6-7.2-0.5-10.9c1.8-4.1,6.2-4.3,7.5-8.9c2.3-6.5-1.7-10.5-2-17.2c-0.8-4.6,1.7-8.5,0.7-13.1c-0.6-2.6-1.4-5.1-4.2-6
			c-6.7-2.8-14.8-3.3-21.9-3.9c-7.8-0.3-15.9-1.8-23-5.1c-4.3-3.3-8.3-6.8-14-7.2c-4.5,0-9-2.5-12.2-5.6c-7.9-6.4-18.6-7.7-28.4-6.6
			c-3.2,0.3-5.4,2.3-7,5c-3.5-0.9-6.6-2.2-9.7-4c-0.6-5.5-1.1-13-7.1-15.3c-3.9-4.4-0.7-9.5-3.7-14.7c-0.8,0.2-1.6,0.4-2.3,0.6
			c-0.4,1.3-0.2,4.5-1.6,4.9c-3.4-2.5-3.9-9.2-3.7-13.1c0.3-4.9,0-11.6,4.8-14.5c2.9,0.4,4.1,2.5,5.6,4.7c1.6,2.9,2,7.5,4.5,9.7
			c0.9,0.2,1.8,0.2,2.7,0c2.1-7.1-3.1-12.9,1.7-20.2c6.4-7,7.7-16.4,13.4-23.6C277.3,451.4,280.2,451.7,283.4,450.3z"/>
	</g>
	<g>
		<path id="p35_00000080888643686184174740000013311637270164684457_" class="st27" d="M103.4,475.1c39.2-0.2,80.4,0,119.8-0.1
			c-0.1,6.5-0.2,12.9,0.8,19.4c2.3,28.8,13.5,56.8,31.4,79.5c23.2,29.4,57.8,49.4,94.9,54.5c7.5,1.1,15,1.6,22.6,1.5
			c14.5-0.1,29-2.4,42.8-6.8c10.2-2.8,20.6-7.6,29.6-13.1c25.7-14.9,47.3-38,59.6-65.1v-0.2c1.4-1.5,2-3.8,2.9-5.6
			c1.2-3.1,2.7-6.2,3.3-9.5l0,0c0.8-0.6,1-1.5,0.6-2.5l0.4-0.5c0.8-0.6,1-1.5,0.6-2.6l0.3-0.4c1-1.2,2.2-5.4,1.8-6.8l0.1-0.3
			c1-1.9,1.2-4.3,1.7-6.4c0.8-4.9,2.1-9.8,2.5-14.7c0.4-6.8,0.2-13.7,0.1-20.5c41.9,0.1,83.7,0,125.6,0
			c-15.2,41.7-40.6,79.9-72.9,110.3c-26.8,25.3-58.6,45.5-93,58.9c-42.7,16.7-89.4,22.9-135,18.1c-43.4-4.4-85.8-19-122.8-42.3
			C167.4,586.6,125,534.6,103.4,475.1z"/>
	</g>
	<g>
		<path id="p36_00000017514820655011208110000015855470845307131818_" class="st28" d="M519,483c0.5,4.1,0.1,8.2,0.2,12.4
			c-0.4,4.9-1.8,9.8-2.5,14.7c-0.5,2.2-0.6,4.5-1.7,6.4c-0.1-3.2,1.2-6.3,1.5-9.5c-0.4-0.5-0.9-1.1-1.4-1.5c0.6,0.3,1.3,0.6,1.9,0.9
			c0.8-4.6,3-10.9,0.7-15.4C519,488.6,518.4,485.7,519,483z"/>
	</g>
	<g>
		<path id="p37_00000010285320284631770270000004320716378028605570_" class="st29" d="M514.9,516.9c0.5,1.4-0.8,5.6-1.8,6.8
			C512.6,522.2,513.5,517.6,514.9,516.9z"/>
	</g>
	<g>
		<path id="p38_00000089573647013287077300000000429457625683388324_" class="st30" d="M512.8,524c0.4,1.1,0.2,2-0.6,2.6
			C511.7,525.6,511.9,524.7,512.8,524z"/>
	</g>
	<g>
		<path id="p39_00000075843372323202742700000008486144909930257796_" class="st31" d="M511.8,527.1c0.4,1,0.2,1.9-0.6,2.5
			C510.7,528.6,510.9,527.8,511.8,527.1z"/>
	</g>
	<g>
		<path id="p40_00000060023154903405507440000002587975716271718822_" class="st32" d="M511.2,529.7c-0.6,3.3-2.1,6.4-3.3,9.5
			c-0.9,1.9-1.5,4.1-2.9,5.6c0.3-2.7,1.9-5.2,2.8-7.7C508.9,534.7,509.4,531.6,511.2,529.7z"/>
	</g>
</g>
</svg>
