<?xml version="1.0" encoding="utf-8"?>
<!-- Generator: Adobe Illustrator 27.3.1, SVG Export Plug-In . SVG Version: 6.00 Build 0)  -->
<svg version="1.1" id="Layer_1" xmlns="http://www.w3.org/2000/svg" xmlns:xlink="http://www.w3.org/1999/xlink" x="0px" y="0px"
	 viewBox="0 0 1040 1040" style="enable-background:new 0 0 1040 1040;" xml:space="preserve">
<style type="text/css">
	.st0{stroke:#A5C938;stroke-width:10;}
	.st1{stroke:#FFFFFF;stroke-width:10;}
	.st2{stroke:#E7DCC4;stroke-width:10;}
	.st3{stroke:#000000;stroke-width:10;}
	.st4{stroke:#8E5B2F;stroke-width:10;}
	.st5{stroke:#8E582E;stroke-width:10;}
	.st6{stroke:#612A0E;stroke-width:10;}
	.st7{stroke:#BEC0C2;stroke-width:10;}
	.st8{stroke:#232324;stroke-width:10;}
	.st9{fill:#A5C938;}
	.st10{fill:#FFFFFF;}
	.st11{fill:#E7DCC4;}
	.st12{fill:#8E5B2F;}
	.st13{fill:#8E582E;}
	.st14{fill:#612A0E;}
	.st15{fill:#BEC0C2;}
	.st16{fill:#232324;}
</style>
<g>
	<g>
		<path id="p1" class="st0" d="M531,8.8c57.5,1.3,115,12.1,168.9,32.3c59.2,22.3,114.1,55.5,161.3,97.7
			c50.4,45,91.9,100.1,120.9,161.1c27,55.8,43,117.1,48.1,178.9c4.8,59.1-0.8,119-16.4,176.2c-13,48.4-33.8,94.9-60.4,137.4
			c-17.8,27.9-38,54.3-60.7,78.2c-48.1,51.1-106.8,92.1-171.3,119.7c-59.6,25.6-124.5,39.3-189.3,40.9
			c-61.7,1.4-123.5-8.3-181.8-28.6c-25.3-8.8-49.7-19.9-73.4-32.5c-24.8-13.2-48.5-29-70.8-46.1c-14.9-11.6-29.3-24-42.7-37.2
			c-26-25-49-52.9-69.2-82.9c-14.7-21.6-27.4-44.9-38.5-68.5c-13.2-28.2-23.7-57.6-31.4-87.8C11.5,597.5,6.3,545.5,8.9,494
			c2.3-45.5,10.8-90.6,24.8-134c11.8-35.9,27.9-70.5,47.2-103c23.8-39.3,52.6-75.5,85.9-107.1c53.3-51,118.1-90.2,187.9-114
			C411.4,16.8,471.3,7.6,531,8.8z M499,957.9c21.9,1.4,44,0.4,65.8-1.7c57.3-5.9,113.6-23.5,164.1-51.3
			c24.4-13.6,47.5-29.2,68.8-47.2c14.7-12.4,28.7-25.2,41.4-39.6c22-23.7,40.9-50,57-78c39.1-68.2,58.9-147.5,56.5-226.1
			c-1.4-57.4-14.8-114-38.3-166.3c-18.7-41.1-43.9-79.3-74.3-112.7c-4.9-5.1-9.5-10.5-14.5-15.5c-18.6-18.5-38.8-35.6-60.3-50.7
			c-27.4-19-56.9-34.9-87.9-47.2C629.2,102.9,577.6,92.6,526,92c-57.7-1-115.6,10.2-169,32c-28.4,11.7-55.6,26.6-81,44.1
			c-21.6,15-41.8,32.1-60.5,50.5c-3.2,3.1-6.2,6.4-9.2,9.8c-32.8,34.4-59.7,74.4-79.7,117.4C106.5,390,93.6,437.6,89.2,486
			c-2,21.1-2.3,42.3-1.2,63.5C91,608,106.4,666,132.4,718.5c13.3,26.3,29.1,51.5,47.4,74.7c14.8,18.4,30.6,36.1,48.2,51.8
			c20.6,18.9,42.9,35.8,66.8,50.2c51.7,31.8,110.6,52.1,170.8,59.8C476.6,956.4,487.8,957.5,499,957.9z"/>
	</g>
	<g>
		<path id="p2" class="st1" d="M526,92c51.6,0.5,103.2,10.9,151.2,29.6c31,12.2,60.5,28.2,87.9,47.2c21.5,15.1,41.7,32.2,60.3,50.7
			c5,5,9.6,10.4,14.5,15.5c30.4,33.4,55.6,71.6,74.3,112.7c23.5,52.3,36.9,108.9,38.3,166.3c2.4,78.6-17.4,157.9-56.5,226.1
			c-16.1,28-35.1,54.3-57,78c-12.8,14.4-26.8,27.2-41.4,39.6c-21.3,18-44.4,33.6-68.8,47.2c-50.4,27.8-106.8,45.4-164.1,51.3
			c-21.8,2-43.9,3.1-65.8,1.7c-11.2-0.3-22.4-1.4-33.5-2.8c-60.2-7.7-119-28-170.8-59.8c-23.9-14.5-46.2-31.3-66.8-50.2
			c-17.6-15.7-33.4-33.4-48.2-51.8c-18.3-23.2-34.1-48.4-47.4-74.7C106.4,666,91,608,87.9,549.5c-1-21.1-0.7-42.4,1.2-63.5
			c4.4-48.4,17.4-96,37.5-140.2c20-43.1,46.9-83.1,79.7-117.4c3-3.3,6-6.6,9.2-9.8c18.7-18.4,38.9-35.5,60.5-50.5
			c25.3-17.4,52.5-32.3,81-44.1C410.4,102.2,468.3,91.1,526,92z M219.6,226.6c-19,18.9-36.1,39.7-51.2,61.8
			c-17.3,25.8-32.3,53.5-43.6,82.4C104.9,421.7,94.8,476.3,95.5,531c0.5,52,10.9,104.1,30.1,152.4C150.4,745.3,189.9,801.1,240,845
			c33.1,29.2,70.9,53,111.4,70.6c43,18.5,89,29.9,135.6,33.5c77,6.1,155.8-9.4,224.7-44.4c56.5-28.6,106.2-69.9,145-120.1
			c16.7-21.6,31.2-45.1,43.5-69.4c28.3-56.7,43.5-119.9,44.4-183.2c0.8-54.7-9.2-109.5-29.1-160.5c-29.2-74.3-79.6-139.9-144-187.1
			c-28-20.8-58.7-37.7-90.9-51.1c-110.9-45.5-240.7-41.4-348,12.2C290.8,166.1,252.4,193.6,219.6,226.6z"/>
	</g>
	<g>
		<path id="p3" class="st2" d="M680.6,133.4c32.2,13.3,62.9,30.3,90.9,51.1c64.4,47.2,114.8,112.8,144,187.1
			c19.8,51,29.8,105.7,29.1,160.5c-0.9,63.3-16.1,126.6-44.4,183.2c-12.4,24.3-26.8,47.9-43.5,69.4c-38.7,50.1-88.4,91.5-145,120.1
			c-68.9,35-147.7,50.5-224.7,44.4c-46.6-3.6-92.6-15.1-135.6-33.5C311,898,273.1,874.2,240,845c-50.2-43.9-89.6-99.7-114.5-161.5
			C106.4,635.1,96,583,95.5,531c-0.7-54.7,9.4-109.3,29.3-160.2c11.3-28.9,26.3-56.6,43.6-82.4c15.1-22.1,32.2-42.9,51.2-61.8
			c32.8-33,71.2-60.5,113-81C439.9,92,569.7,87.9,680.6,133.4z M222.1,614.6c12.8,31,30.2,60.1,50.6,86.6c2,2.7,4.9,5.2,4.9,8.8
			c3.2,29.5,12.1,58.8,26.9,84.5c7.5,13.1,16.5,25.2,26.5,36.5c4,4.4,8.4,8.4,12.4,12.7c-0.9,1.8-1.7,3.7-2.5,5.6
			c22.7,11.4,46,21.6,69.5,31.2c37.1,15.1,75.4,26.2,114.6,34.4c4.6,1,9,1.4,13.5-0.4c9.1-3.2,13-16.6,7-24.1
			c-4.3-5.2-9.7-8.7-16.5-9.3c-21-4.4-41.8-9.6-62.3-15.9c-17.5-5.4-34.4-12-51.4-18.8c-19.3-7.7-38.3-16-57.3-24.2
			c-2.4,0.4-3.4,1-5.3-1c-22.4-20.5-40.4-46-51.3-74.5c-2.4-5.7-3.8-11.8-6.2-17.5c4.7,4.2,8.6,9,13,13.5c10.1,10.9,21,21,31.8,31.2
			c26.9,24.9,59,44.1,93.3,56.7c26.4,9.6,54,15.2,81.9,17.4c8.2,1,16.4,0.3,24.5,1.1c4.1,0.3,8.1-0.6,12.2-0.4
			c12.1,0.1,23.9-1.2,35.9-2.5c4.7-0.7,9.5-1.5,14.2-1.9l0.7-0.5c5.5-0.6,10.9-1.8,16.3-2.9c49.2-10.2,96.4-30,138.5-57.4
			c20.5-13.6,40.1-29.1,57.5-46.5c24-23.9,44.7-51.9,59.2-82.7c16.3-34.9,24.8-73.8,22.7-112.4c-1.2-23-6-45.1-12.5-67.1
			c3-3.3,5.8-7,4.7-11.9c-1.7-6.3-7.3-10.3-12.2-14.1c-1.9-1.4-2.9-3.3-3.8-5.4c-9.4-22.7-22.2-43.9-37.9-62.8
			c-8.2-9.5-16.5-18.8-25.9-27.1c-6.7-5.5-11.7-13-17.9-19.1c-14.2-14.6-29.2-28.2-45.7-40.2c-33.6-24.1-71.7-42.1-111.8-52.2
			c-25.8-6.5-52.4-10.1-78.9-10.6c-61.5-1.3-122.9,14.5-178,41.4c-35.3,17.3-68.3,39.1-96.4,66.7c-14.3,13.8-27,29.2-38.1,45.6
			c7-25.2,18.7-49.3,34.4-70.2c15.5-20.8,35-38.3,56.8-52.2c20.2-13,42.8-23,65.6-30.4c35.4-11.5,72.7-17.8,109.8-20.2
			c8-1,15.9-0.4,23.9-1.3c12.4-0.4,24.8-0.3,37.1,0c5.6,0.6,11.3,0.6,16.9,0.7c31.2,1.7,62.3,5,93,10.5c3.2,0.6,6.6,1,9.4,2.6
			c2.5,1.3,5.1,2.5,7.8,3.4c17.6,5.2,38,9,54.2,17.9c4.6,2.3,7.2,6.3,12.1,6.8c-0.6-1.8-0.5-3.5-2.2-4.8c-5.7-4.9-13-8.3-20-11
			c-13.7-5.3-29-8.6-43-12.6c21,2.7,43.3,5.8,63.3,13.1c4.4,1.4,8.2,3.9,12.3,6c1.1-0.2,2.1-0.5,3.2-0.8c-1.3-2-2.7-3.7-4.9-4.8
			c-10.1-5.5-22.1-8.6-33.3-11.1c-4.4-1.1-8.9-1.7-13.4-2.3c8.8-0.5,17.5,0.4,26.2,1.2c5.8,0.7,11.4,1.3,17,2.9
			c2.3,0.7,4.6,1.1,7,1.2c-0.1-1.1-0.3-2.2-0.4-3.2c-13.7-5.5-30.8-5.1-45.4-6.7c-9.7-0.3-19.4,0-29.1-0.3
			c12.8-0.2,25.4-0.7,38.1,0.5c11,0.2,22,1.1,33,1.5c4.6,0.4,9.1,0.9,13.6,0.1c-0.1-1-0.1-2.1-0.2-3.1c-7.5-1.1-15-0.7-22.5-1.6
			c-14.3-0.6-28.6-1.6-43-1.5c-8.3,0.1-17-0.4-25.2,0.9c-2.8,0.3-5.2,1.4-7.6,2.8c-30.4-5.7-61.2-9.4-92.1-11.2
			c-9-0.9-18-0.6-27.1-1.2c-43.9-0.8-89,1.8-132,11c-26.6,5.6-53,13.8-77.6,25.2c-24.6,11.3-47.8,26.3-67.5,44.9
			c-5.4,4.6-10,10-14.7,15.2c-26.9,30.5-44.3,69.4-52.6,109c-1.2,5.4-1.4,10.4-3.7,15.5c-3.5,8-6.2,16.2-8.7,24.6
			c-0.5,2.1-1.6,2.7-3.5,3.7c-19.7,10-39.7,21.7-56,36.8c-8.8,8.3-16.8,18.4-19.8,30.3c-2,7-1.8,13.9-1.4,21.1
			c1.6,14.1,8.6,26.3,18.2,36.5c11.4,11.6,25.6,19.6,40.7,25.4C199.9,609.8,210.9,612.6,222.1,614.6z"/>
	</g>
	<g>
		<path id="p4" class="st3" d="M568,206.8c9,0.7,18.1,0.4,27.1,1.2c30.9,1.7,61.7,5.4,92.1,11.2c2.4-1.4,4.8-2.5,7.6-2.8
			c8.2-1.2,16.9-0.8,25.2-0.9c14.4-0.1,28.7,0.9,43,1.5c7.5,0.8,15.1,0.5,22.5,1.6c0.1,1,0.1,2.1,0.2,3.1c-4.6,0.8-9.1,0.3-13.6-0.1
			c-11-0.5-22-1.4-33-1.5c-12.7-1.2-25.4-0.7-38.1-0.5c9.7,0.3,19.4,0,29.1,0.3c14.6,1.6,31.7,1.2,45.4,6.7c0.1,1.1,0.3,2.2,0.4,3.2
			c-2.4-0.1-4.7-0.6-7-1.2c-5.6-1.6-11.2-2.2-17-2.9c-8.8-0.8-17.4-1.7-26.2-1.2c4.5,0.6,9,1.3,13.4,2.3
			c11.2,2.5,23.2,5.6,33.3,11.1c2.2,1.1,3.6,2.7,4.9,4.8c-1.1,0.3-2.1,0.5-3.2,0.8c-4.1-2-7.9-4.5-12.3-6
			c-20-7.3-42.2-10.4-63.3-13.1c14,4,29.3,7.3,43,12.6c7,2.7,14.2,6.2,20,11c1.6,1.3,1.6,3,2.2,4.8c-4.9-0.5-7.5-4.5-12.1-6.8
			c-16.2-8.9-36.5-12.6-54.2-17.9c-2.7-0.8-5.3-2-7.8-3.4c-2.8-1.6-6.2-2-9.4-2.6c-30.8-5.5-61.8-8.8-93-10.5
			c-5.7-0.1-11.3-0.2-16.9-0.7c-12.4-0.3-24.8-0.3-37.1,0c-8,0.9-15.9,0.3-23.9,1.3c-37.1,2.4-74.4,8.7-109.8,20.2
			c-22.8,7.5-45.4,17.4-65.6,30.4c-21.9,13.9-41.3,31.4-56.8,52.2c-15.7,20.9-27.4,45-34.4,70.2c11.1-16.5,23.8-31.8,38.1-45.6
			c28.1-27.6,61.2-49.3,96.4-66.7c55.1-26.9,116.5-42.7,178-41.4c26.6,0.5,53.2,4.1,78.9,10.6c40.1,10.1,78.2,28.1,111.8,52.2
			c16.5,12,31.5,25.5,45.7,40.2c6.2,6.2,11.2,13.6,17.9,19.1c9.3,8.4,17.7,17.6,25.9,27.1c15.7,18.9,28.5,40.1,37.9,62.8
			c0.9,2.1,1.8,4.1,3.8,5.4c4.9,3.8,10.5,7.8,12.2,14.1c1.2,4.8-1.6,8.5-4.7,11.9c6.5,22,11.3,44.1,12.5,67.1
			c2.1,38.5-6.4,77.5-22.7,112.4c-14.5,30.8-35.1,58.7-59.2,82.7c-17.4,17.5-36.9,32.9-57.5,46.5c-42.1,27.3-89.3,47.2-138.5,57.4
			c-5.4,1.1-10.8,2.3-16.3,2.9l-0.7,0.5c-4.7,0.5-9.5,1.2-14.2,1.9c-12,1.2-23.8,2.6-35.9,2.5c-4.1-0.1-8.1,0.8-12.2,0.4
			c-8.1-0.9-16.4-0.1-24.5-1.1c-27.9-2.2-55.6-7.8-81.9-17.4C399,818,367,798.8,340.1,773.9c-10.9-10.2-21.7-20.3-31.8-31.2
			c-4.4-4.5-8.3-9.3-13-13.5c2.4,5.7,3.8,11.8,6.2,17.5c10.9,28.5,28.9,53.9,51.3,74.5c1.8,2,2.9,1.3,5.3,1
			c19,8.2,38.1,16.5,57.3,24.2c17,6.8,34,13.5,51.4,18.8c20.5,6.3,41.3,11.5,62.3,15.9c6.9,0.6,12.2,4.1,16.5,9.3
			c6,7.6,2.1,20.9-7,24.1c-4.5,1.8-8.9,1.3-13.5,0.4c-39.2-8.3-77.5-19.4-114.6-34.4c-23.5-9.6-46.8-19.9-69.5-31.2
			c0.7-1.9,1.6-3.8,2.5-5.6c-4.1-4.3-8.4-8.3-12.4-12.7c-10-11.2-19-23.4-26.5-36.5c-14.7-25.8-23.6-55.1-26.9-84.5
			c0-3.6-3-6-4.9-8.8c-20.4-26.5-37.8-55.7-50.6-86.6c-11.2-2-22.2-4.8-32.9-8.8c-15.1-5.8-29.3-13.8-40.7-25.4
			c-9.6-10.2-16.6-22.4-18.2-36.5c-0.3-7.2-0.5-14.1,1.4-21.1c3-11.9,11-22,19.8-30.3c16.2-15.1,36.3-26.8,56-36.8
			c1.8-1,3-1.6,3.5-3.7c2.5-8.3,5.2-16.6,8.7-24.6c2.3-5.1,2.5-10.1,3.7-15.5c8.2-39.6,25.7-78.5,52.6-109
			c4.8-5.3,9.3-10.6,14.7-15.2c19.7-18.5,42.9-33.6,67.5-44.9c24.7-11.3,51.1-19.5,77.6-25.2C479,208.6,524.1,206,568,206.8z
			 M232.1,444.5c9.7-4.3,19.6-8.2,29.5-11.9c14.3-5.1,28.8-10.2,43.7-13.5c0.3-10.8,0.9-21.7,1.2-32.5c0.7-12.7,1-24.6,5.2-36.8
			c2.2-6.3,5.1-12.6,9.4-17.7c4.4-5.3,11.6-7.9,17.8-10.4c21.6-8.4,43.8-15.5,65.9-22.5c29.3-9,58.9-17.2,88.8-24.2
			c12-2.7,24.2-5.4,36.4-6.9c17.3-1.9,34.6-2.7,52-2.1c10,0.7,20.2,1.5,29.8,4.8c4.9,1.7,10.8,4.5,12.7,9.8
			c1.5,4.4,3.1,8.7,5.3,12.8c30.5-0.2,61.4,3.6,90.7,12.1c23.2,6.8,45.4,16.8,65.7,30c-20.7-22.3-45.5-40.9-72-55.8
			c-30.9-17.4-64.5-29.8-99.2-36.7c-31.9-6.2-64.6-8.1-97-5.2c-48.7,4-96,18.4-139.9,39.5c-27.3,12.9-52.8,29.6-75.6,49.4
			c-28.3,24.7-51.7,54.8-66.6,89.4c-1.6,3.7-1.7,7.4-2.3,11.3C233,433,232.3,438.7,232.1,444.5z M305,475c-0.6,3.8-2.9,8.2-0.6,11.8
			c3.8,7.2,12.4,9.8,19.5,12.5c27.7,9.5,59,11.7,88.1,11.5c29.6-0.3,58.8-3.6,88-8.5c44.9-7.5,90.3-19.6,131.7-38.7
			c12.3-5.8,24.8-12,35.7-20.2c3.9-3.2,8-7,10.4-11.5c0.2-4.6-1-9.3-1.7-13.9c-4-19.3-10.2-38.4-16.9-57
			c-6.6-17.9-13.9-36-23.7-52.4c-3.2-5.5-7.4-10-10.2-15.8c-1.9-3.7-3-7.7-4.6-11.5c-1.3-3.4-5.4-5.1-8.5-6.4
			c-8.9-3.3-18.7-4.3-28-5c-10-0.1-20-0.1-30,0c-11.9,0.7-23.5,1.5-35.2,3.7c-25.8,4.8-51.5,11.6-76.8,18.6
			c-28.8,8.2-57.5,17.1-85.8,27.1c-8.4,3.1-17,6-25,9.9c-8.3,4-12.7,13.1-15.7,21.3c-4,11-4.3,22-5.2,33.5c-0.2,5,0,9.9-0.5,14.8
			c-1,9.6,0,19.2-1,28.8c-0.8,7.2-0.1,14.4-1.1,21.7C307.3,457.9,306.6,466.5,305,475z M791,413.1c18.4,5,36.3,11.2,53.8,19
			c-8.3-24.7-20.4-48-35.7-69.1c-2.5-3.3-4.9-7.1-8-9.9c-21.4-17-45.9-29.2-71.9-37.6c-30.2-9.6-62-14.2-93.7-14.4
			c6.1,9.2,11,19.1,15.5,29.1c7.1,15.9,13.1,32.3,18.5,48.8c1.4,3.9,2.2,8,3.9,11.8c2.8,1.2,6.3,0.9,9.2,1.5
			C719,397,755.4,403.5,791,413.1z M854.3,436.4c3.5,1.8,7.1,3.5,10.6,5.3c-3.2-6.7-5.9-13.6-9.3-20.2c-9-17.5-19.8-34.5-33.2-48.9
			c5,8.1,10,16,14.4,24.4C843.7,409.6,849.4,422.9,854.3,436.4z M302.2,470.3c1.1-9.8,2.2-19.5,2.3-29.3c0.6-6,1.1-11.9,0.7-18
			c-7.9,1.7-15.8,4.2-23.5,6.7c-21.9,7.1-43.3,15.9-64.2,25.6c-19.3,9.2-37.7,19.4-54.5,32.7c-5.3,4-9.8,8.8-14.5,13.5
			c-7.8,8.2-13.6,19-14.2,30.5c-0.2,7-0.5,13.4,1.7,20.1c4.3,14.3,13.8,25.6,25.5,34.5c16.8,12.5,37.9,19.8,58.3,23.7
			c12,2.2,24.1,3.6,36.2,3.7c7.1,0.8,13.8,0.9,21,0c17-0.2,34.1-2.2,51-4.4c32.4-4.5,64.3-12.1,95.5-21.9
			c55.1-17,104.6-42,158.6-61.6c27.8-10.1,56.2-18.2,85-24.6c39.2-8.6,79.1-14.5,119.2-17.2c7.2-0.7,14.5-0.4,21.8-1.2
			c9.3-0.1,18.6-1,27.9-1.5c12.7-1.2,26.5-2,38.7-6c4.3-1.5,9.3-3.6,10.6-8.5c1.1-4-2.2-7.7-4.9-10.3c-5.9-5.3-13-9.4-20-13
			c-20.9-10.5-42.8-19.2-65.3-25.5c-39.4-11-80-18.1-120.7-23c1.5,6.6,3.6,13.1,4.8,19.8c0.5,2.2,0.7,4.9,1.9,6.9
			c2.8,1.7,5.8,2.5,8.4,4.7c4,3.4,6.6,8.2,6.3,13.5c0.4,6.6-4.3,12.6-8.8,17c-9,8.1-20.3,14.4-30.9,20.1
			c-14.9,7.9-30.4,14.7-46.3,20.5c-48.9,17.9-99.9,28.2-151.8,32.4c-6.3,0.8-12.6,0.7-18.8,1.4c-5.7,0.6-11.4,0.2-17.1,0.6
			c-9.4,0.4-18.6,1.2-28,0.4c-9.3-0.7-18.7-0.3-28-1.3c-18.3-1.4-37.7-3.7-55-10c-6.7-2.5-13.9-5.9-19.1-10.9
			c-3.9-3.8-6.5-8.9-7.8-14.2c-1.4-6.1,1-12.3,5-16.8C292.6,475.1,297.6,472.8,302.2,470.3z M681.7,426c0,2.2,0.2,4.5-0.1,6.7
			c-0.7,2.2-2.4,4.2-3.9,6c-6.8,8.3-17.3,14.2-26.6,19.4c-23.4,12.6-48.5,22.3-73.9,30.1c-25,7.6-50.6,13.3-76.3,17.7
			c-23.8,4-47.8,6.8-72,8.2c-14.4,0.2-28.6,0.3-43-0.1c-22.5-1.5-46.1-4.7-67.4-12.7c-7.3-3-14.3-5.6-17.8-13.3
			c-2.4-4.4-1-8.2,0-12.8c-5.5,2.7-10.8,6.8-12.8,12.8c-2,7.6,2.2,16,7.9,20.9c6.8,5.4,15.7,8.7,23.9,11.1c21.9,6.1,43.5,7.5,66,8.7
			c10.7,0.1,21.3,0,32,0c7,0,14-1.1,21-1c34.6-2.1,68.9-6.4,102.7-14.1c39.6-9,79.7-22,115.5-41.5c9.9-5.5,19.3-10.4,27.5-18.4
			c3.7-3.6,7.5-8.4,7.9-13.8c-0.4-5.2-3.5-9.8-8.1-12.4C683.6,427.1,682.6,426.6,681.7,426z M865.7,481.8c3.7,22.8,4,46.2,1.6,69.2
			c-5,43-19.5,85-44.9,120.2c-27.2,37.7-65.6,65.6-108.2,83.4c-49.7,20.7-103.5,29.3-157.1,29.7c-38.9,0.3-77.8-3.5-115.9-11.3
			c-17.6-3.6-36.1-7.6-52.8-14.3c-26.4-10.2-50.2-25.9-71-45c12,13.6,25,26.4,38.3,38.7c19.1,16.9,40.1,31.4,63.1,42.5
			c40.7,19.6,86.2,29.5,131.4,28.8c23.8,0.2,47.8-2.9,71-7.8c44.9-9.8,87.9-27.4,126.5-52.5c26.5-16.9,50.4-37.4,71.3-60.8
			c24.2-27.6,44.1-59.6,55.3-94.7c1-3.3,2-6.6,3-9.9c3.9-15,6.7-30.6,7.4-46.1c0.1-6.1,1-12,0.3-18c-0.3-14.3-2.1-28.5-5.2-42.5
			c-0.9-4.1-2-8.2-2.6-12.4C873.2,479.9,869.5,480.9,865.7,481.8z M696.8,499c0.8,0.2,1.5,0.5,2.3,0.7c2.6,0.8,5.3,1.6,8,2.1
			l0.6,0.5c1.2,0.1,2.3,0.3,3.5,0.4c-13.7,9.8-21.8,23.4-28.8,38.4c-3.7,0.7-6.7,2.3-10.5,1.3c-5.6-1.4-11.2-3-16.8-4.5
			c-8.1-2.2-16.3-4.4-24.4-6.7c-4.9-1.4-9.6-3.1-14.8-2.2c-4,0.5-6.9,2.5-11,1.4c-4.3-1.1-8.8-2.1-13-3.8c-2.5,0.9-5.1,1.8-7.6,2.7
			c6.4,2.3,13.1,3.4,19.5,5.5c-6.1,4.2-11.5,9.2-16,15c-9.9,12.4-17.1,27-22,42.1c-4.4,13.3-6.8,27.1-7.2,41.1
			c0.2,6,0.8,12.2,2.3,18c0.4,1.8,0.8,3.6,1.1,5.4c-29.4-13.3-58.8-26.9-88.2-40.2c-3.8-1.5-6.1-4.6-7.8-8.2
			c-4.5-9.6-3.8-19.5-3.2-29.8c-1.5,0.5-2.9,1-4.4,1.5c-0.2,3.7-0.4,7.4-0.6,11.1c-3.9-1.8-7.8-3.8-11.8-5.3
			c-2.3-0.9-5.2,0.5-7.4,1.2c-41.9,14.2-84.8,24.5-128.9,28.9c-6.1,0.7-12.2,1-18.3,1.7c-1.2,7.2-2.1,14.5-2.9,21.7
			c-0.1,2.7-1,5.1,1,7.4c7.9,11.2,16.6,21.9,26.3,31.7c27.8,29.1,62.9,50.8,102,60.9c33.8,8.5,68.4,13.7,103.2,15.9
			c13.9,0.9,28,0.7,42,0.7c15.4-0.1,30.7-1.1,46-2.9c35.3-3.9,70.8-12.3,103.5-26.4c26.6-11.4,52.1-26.8,73.2-46.8
			c3.7-3.2,7.3-6.6,10.5-10.4c15.1-15.9,27.6-34.1,37-53.8c15.3-32.2,23.5-67.8,24.2-103.4c0.2-9.6-0.4-19.2-1.4-28.7
			c-24.6,3.3-50.5,3.4-75,5.2C752.7,490.4,724.8,494.5,696.8,499z M271.9,618.4c2.6,4.6,5.2,9.1,8.1,13.5c0.7-4.7,1.5-9.5,2.5-14.2
			c-2.5,0-5,0-7.6,0.2C273.9,618,272.9,618.2,271.9,618.4z"/>
	</g>
	<g>
		<path id="p5" class="st2" d="M615,242.9c34.8,6.9,68.4,19.3,99.2,36.7c26.5,14.9,51.3,33.5,72,55.8c-20.3-13.1-42.4-23.2-65.7-30
			c-29.3-8.6-60.2-12.3-90.7-12.1c-2.3-4.1-3.8-8.4-5.3-12.8c-1.9-5.2-7.8-8.1-12.7-9.8c-9.6-3.2-19.8-4-29.8-4.8
			c-17.4-0.6-34.7,0.2-52,2.1c-12.2,1.5-24.4,4.2-36.4,6.9c-29.8,7-59.5,15.2-88.8,24.2c-22.1,6.9-44.3,14.1-65.9,22.5
			c-6.2,2.6-13.5,5.1-17.8,10.4c-4.2,5.2-7.2,11.5-9.4,17.7c-4.2,12.1-4.5,24.1-5.2,36.8c-0.3,10.9-0.9,21.7-1.2,32.5
			c-14.8,3.3-29.4,8.4-43.7,13.5c-9.9,3.8-19.8,7.6-29.5,11.9c0.2-5.8,0.9-11.5,1.5-17.3c0.5-4,0.7-7.6,2.3-11.3
			c14.9-34.6,38.3-64.7,66.6-89.4c22.8-19.9,48.2-36.5,75.6-49.4c43.9-21,91.3-35.4,139.9-39.5C550.4,234.8,583.1,236.7,615,242.9z"
			/>
	</g>
	<g>
		<path id="p6" class="st4" d="M554,269.9c10-0.1,20-0.1,30,0c9.4,0.6,19.2,1.7,28,5c3.1,1.3,7.2,3.1,8.5,6.4
			c1.6,3.8,2.7,7.8,4.6,11.5c2.8,5.8,7,10.2,10.2,15.8c9.8,16.4,17.1,34.5,23.7,52.4c6.7,18.5,12.9,37.7,16.9,57
			c0.8,4.5,1.9,9.3,1.7,13.9c-2.4,4.5-6.4,8.4-10.4,11.5c-10.9,8.2-23.4,14.4-35.7,20.2c-41.5,19.1-86.8,31.2-131.7,38.7
			c-29.2,4.9-58.4,8.1-88,8.5c-29.1,0.3-60.3-2-88.1-11.5c-7.1-2.7-15.7-5.3-19.5-12.5c-2.3-3.6,0.1-8,0.6-11.8
			c1.5-8.5,2.2-17.1,2.7-25.8c1-7.2,0.3-14.4,1.1-21.7c1-9.6,0-19.2,1-28.8c0.6-4.9,0.4-9.8,0.5-14.8c0.9-11.5,1.2-22.5,5.2-33.5
			c3-8.2,7.3-17.4,15.7-21.3c8.1-3.9,16.6-6.8,25-9.9c28.3-10,56.9-18.9,85.8-27.1c25.3-7,51-13.8,76.8-18.6
			C530.5,271.4,542.2,270.6,554,269.9z M334.7,336.2c-0.7,1.1-1.3,2.2-1.7,3.5c4.5,2.1,9,3.8,13.9,4.3c12.9,1.2,26.1-0.9,39-2.7
			c16.8-2.1,33.6-5.9,50.2-9.3c42.7-9.2,85.4-19.1,127.6-30.3c12.8-3.7,27-7.4,38.4-14.6c3.7-2.4,5.1-4.8,5.9-9.1
			c-2.1,0.5-3.3,0.6-4.6,2.5c-3.5,4.5-8.2,6.6-13.3,8.7c-13.5,5.5-27.2,8.9-41.3,12.6c-44,11.2-88.2,21.6-132.7,30.6
			c-9.3,1.8-18.7,3.7-28.2,4.9c-11.8,1.6-23,3.4-35,3.3C346.5,340.5,340.4,339.4,334.7,336.2z M530.7,322.5
			c-5.7,9.8-9.1,21.2-10.9,32.4c-1.1,10.9-1,21.5,3.8,31.6c4.7,10,13.9,18.1,23.4,23.5c16.9,9.5,39.2,9.1,55.6-1.3
			c1.4-0.9,2.5-2,3-3.6c-0.1-2.2-1.7-3.6-3.6-4.4c-2.4,0.6-4.7,2.2-6.9,3.4c-5.4,3.1-12,4.6-18.2,5.3c-15.1,1-29.5-5.6-39.6-16.6
			c-8-7.9-10.9-18.7-10.7-29.7c0.8-11.4,3.6-22.5,8.6-32.7c0.7-2,2.5-4.3,0.9-6.4C535.3,321.9,532.5,322.6,530.7,322.5z"/>
	</g>
	<g>
		<path id="p7" class="st3" d="M608,278c-0.8,4.3-2.2,6.7-5.9,9.1c-11.3,7.2-25.5,11-38.4,14.6c-42.3,11.2-84.9,21.1-127.6,30.3
			c-16.6,3.4-33.4,7.1-50.2,9.3c-12.9,1.7-26.1,3.9-39,2.7c-5-0.4-9.5-2.2-13.9-4.3c0.4-1.3,1-2.4,1.7-3.5
			c5.7,3.1,11.8,4.3,18.2,4.4c12,0,23.2-1.8,35-3.3c9.4-1.3,18.8-3.1,28.2-4.9c44.5-9,88.7-19.5,132.7-30.6
			c14.1-3.6,27.8-7,41.3-12.6c5.1-2.2,9.8-4.2,13.3-8.7C604.8,278.6,605.9,278.5,608,278z"/>
	</g>
	<g>
		<path id="p8" class="st2" d="M635.3,301.1c31.7,0.1,63.5,4.8,93.7,14.4c26,8.4,50.5,20.6,71.9,37.6c3.2,2.8,5.5,6.6,8,9.9
			c15.4,21,27.4,44.4,35.7,69.1c-17.4-7.8-35.3-14-53.8-19c-35.6-9.5-71.9-16.1-108.4-20.8c-3-0.5-6.5-0.3-9.2-1.5
			c-1.7-3.8-2.5-7.9-3.9-11.8c-5.5-16.5-11.5-32.9-18.5-48.8C646.3,320.2,641.4,310.4,635.3,301.1z"/>
	</g>
	<g>
		<path id="p9" class="st3" d="M536.2,323.9c1.6,2-0.2,4.4-0.9,6.4c-5,10.2-7.8,21.4-8.6,32.7c-0.3,11,2.7,21.8,10.7,29.7
			c10.2,11,24.6,17.6,39.6,16.6c6.2-0.7,12.7-2.2,18.2-5.3c2.2-1.2,4.5-2.8,6.9-3.4c2,0.7,3.5,2.1,3.6,4.4c-0.5,1.6-1.7,2.7-3,3.6
			c-16.4,10.4-38.7,10.9-55.6,1.3c-9.5-5.4-18.6-13.5-23.4-23.5c-4.8-10.1-4.9-20.7-3.8-31.6c1.8-11.2,5.1-22.6,10.9-32.4
			C532.5,322.6,535.3,321.9,536.2,323.9z"/>
	</g>
	<g>
		<path id="p10" class="st2" d="M822.4,372.5c13.4,14.5,24.2,31.4,33.2,48.9c3.5,6.6,6.2,13.5,9.3,20.2c-3.5-1.8-7-3.5-10.6-5.3
			c-4.9-13.6-10.6-26.8-17.5-39.5C832.4,388.5,827.3,380.6,822.4,372.5z"/>
	</g>
	<g>
		<path id="p11" class="st5" d="M674.3,395.2c40.6,4.9,81.2,12,120.7,23c22.5,6.3,44.4,15,65.3,25.5c7,3.6,14.1,7.7,20,13
			c2.6,2.6,6,6.3,4.9,10.3c-1.4,4.8-6.3,6.9-10.6,8.5c-12.2,3.9-26,4.8-38.7,6c-9.3,0.5-18.5,1.4-27.9,1.5
			c-7.2,0.9-14.5,0.5-21.8,1.2c-40.1,2.7-80,8.6-119.2,17.2c-28.8,6.4-57.2,14.5-85,24.6c-54,19.7-103.4,44.6-158.6,61.6
			c-31.2,9.9-63.1,17.4-95.5,21.9c-16.9,2.2-34,4.2-51,4.4c-7.2,0.8-13.8,0.7-21,0c-12.2-0.1-24.3-1.4-36.2-3.7
			c-20.5-3.8-41.5-11.1-58.3-23.7c-11.7-8.9-21.2-20.2-25.5-34.5c-2.2-6.7-1.9-13.1-1.7-20.1c0.6-11.5,6.4-22.3,14.2-30.5
			c4.7-4.7,9.2-9.5,14.5-13.5c16.8-13.3,35.2-23.5,54.5-32.7c20.9-9.8,42.2-18.5,64.2-25.6c7.7-2.5,15.6-5,23.5-6.7
			c0.4,6.1-0.1,12-0.7,18c-0.1,9.8-1.2,19.5-2.3,29.3c-4.6,2.5-9.5,4.8-13.1,8.8c-4,4.6-6.4,10.7-5,16.8c1.2,5.3,3.9,10.4,7.8,14.2
			c5.2,5.1,12.3,8.4,19.1,10.9c17.3,6.3,36.7,8.7,55,10c9.3,1,18.7,0.6,28,1.3c9.4,0.8,18.6,0,28-0.4c5.8-0.4,11.4,0,17.1-0.6
			c6.3-0.7,12.6-0.6,18.8-1.4c51.9-4.2,102.9-14.5,151.8-32.4c15.8-5.9,31.3-12.6,46.3-20.5c10.7-5.7,21.9-11.9,30.9-20.1
			c4.5-4.4,9.2-10.3,8.8-17c0.3-5.3-2.3-10.1-6.3-13.5c-2.6-2.2-5.7-3-8.4-4.7c-1.2-2-1.4-4.6-1.9-6.9
			C678,408.3,675.8,401.8,674.3,395.2z"/>
	</g>
	<g>
		<path id="p12" class="st6" d="M681.7,426c0.9,0.5,1.9,1,2.8,1.6c4.5,2.6,7.7,7.2,8.1,12.4c-0.4,5.4-4.2,10.2-7.9,13.8
			c-8.2,8-17.6,12.9-27.5,18.4c-35.8,19.4-75.9,32.5-115.5,41.5c-33.8,7.6-68.1,12-102.7,14.1c-7-0.1-14,1-21,1
			c-10.7,0-21.3,0.1-32,0c-22.5-1.2-44.1-2.6-66-8.7c-8.3-2.4-17.2-5.7-23.9-11.1c-5.7-4.9-10-13.2-7.9-20.9
			c2-6.1,7.3-10.1,12.8-12.8c-0.9,4.6-2.4,8.4,0,12.8c3.5,7.7,10.5,10.3,17.8,13.3c21.2,8,44.8,11.2,67.4,12.7
			c14.4,0.4,28.6,0.3,43,0.1c24.1-1.4,48.1-4.2,72-8.2c25.8-4.4,51.3-10,76.3-17.7c25.4-7.8,50.5-17.5,73.9-30.1
			c9.3-5.2,19.8-11.1,26.6-19.4c1.5-1.8,3.1-3.8,3.9-6C682,430.6,681.7,428.3,681.7,426z"/>
	</g>
	<g>
		<path id="p13" class="st2" d="M877,479.1c0.7,4.2,1.7,8.3,2.6,12.4c3,14,4.9,28.2,5.2,42.5c0.8,6.1-0.2,12-0.3,18
			c-0.7,15.5-3.5,31.1-7.4,46.1c-1,3.3-2,6.6-3,9.9c-11.3,35.1-31.1,67.1-55.3,94.7c-21,23.3-44.9,43.9-71.3,60.8
			c-38.5,25.1-81.6,42.7-126.5,52.5c-23.3,4.9-47.2,8-71,7.8c-45.2,0.7-90.6-9.1-131.4-28.8c-23-11.1-44-25.6-63.1-42.5
			c-13.3-12.3-26.3-25.1-38.3-38.7c20.9,19.1,44.6,34.8,71,45c16.7,6.7,35.2,10.7,52.8,14.3c38.1,7.7,77,11.5,115.9,11.3
			c53.6-0.4,107.4-9,157.1-29.7c42.6-17.8,81-45.8,108.2-83.4c25.4-35.2,40-77.2,44.9-120.2c2.5-23,2.2-46.4-1.6-69.2
			C869.5,480.9,873.2,479.9,877,479.1z"/>
	</g>
	<g>
		<path id="p14" class="st2" d="M856,483.3c1,9.5,1.6,19.2,1.4,28.7c-0.8,35.6-8.9,71.2-24.2,103.4c-9.5,19.7-22,38-37,53.8
			c-3.2,3.8-6.7,7.2-10.5,10.4c-21.1,19.9-46.6,35.3-73.2,46.8c-32.7,14.1-68.2,22.5-103.5,26.4c-15.3,1.8-30.6,2.8-46,2.9
			c-14-0.1-28,0.2-42-0.7c-34.8-2.2-69.4-7.4-103.2-15.9c-39.1-10.1-74.1-31.9-102-60.9c-9.6-9.8-18.3-20.5-26.3-31.7
			c-1.9-2.3-1.1-4.7-1-7.4c0.8-7.2,1.7-14.5,2.9-21.7c6.1-0.7,12.2-1,18.3-1.7c44-4.5,87-14.7,128.9-28.9c6.5,3.1,13.2,5.9,19.6,9.1
			c1.3,6.7,2.3,12.9,6.5,18.5c2.2,3.1,5.2,4.9,8.6,6.4c26.9,12,53.6,24.4,80.3,36.7c3.8,1.8,8.7,3.2,11.5,6.5
			c2.2,2.3,3.9,4.6,6.7,6.3c3.5,2,7.4,3.3,11,5c12.8,5.8,25.5,11.8,38.3,17.7c3.2,1.4,5.2,4,7.6,6.5c3.1,3.4,7.6,5.5,11.8,7.2
			c2.1,0.9,4.2,0.9,6.4,0.8c4.9,5.4,11.8,8.4,19,8.2c9.1-0.6,17-4.8,24-10.4c7.3-6.1,13.6-13.3,18.9-21.2
			c8.9-13,15.7-27.6,20.6-42.6c4,6.5,10.2,9.7,17.2,12c4.8,1.4,9.4,4.5,14.4,3c10.5,0.8,18.7-4.4,26.3-10.9
			c13-11.5,22.2-27.6,28.4-43.7c7-18.7,11.1-40.3,7.3-60.2c-2-9.3-5.2-18.6-13.9-23.7c-0.3-0.8-0.6-1.6-0.9-2.4
			c-5.4-2-10.8-4-16.2-5.7c-3.9-1.1-7.8-2-11.9-1.2c-2.3,0.4-4.8,1.3-7.1,1.2c-2.7-0.3-5.4-1.2-8-2c-10.4-3-20.9-5.6-31.3-8.6
			c-2.9-0.8-5.9-1.6-8.8-1.8c-3.3,0-6.7,1.4-10,1.5c-2.6-0.1-5.3-0.8-7.8-0.6c-2.7,0.2-5.3,0.9-8,1.3c-0.8-0.2-1.5-0.4-2.3-0.7
			c27.9-4.5,55.9-8.6,84.1-10.6C805.5,486.6,831.4,486.5,856,483.3z"/>
	</g>
	<g>
		<path id="p15" class="st1" d="M707.2,498.4c2.5-0.2,5.3,0.5,7.8,0.6c3.3-0.1,6.7-1.6,10-1.5c3,0.1,6,1,8.8,1.8
			c10.4,3,20.9,5.6,31.3,8.6c2.6,0.7,5.3,1.7,8,2c2.4,0,4.8-0.8,7.1-1.2c4.1-0.8,8,0.1,11.9,1.2c5.5,1.7,10.9,3.7,16.2,5.7
			c0.3,0.8,0.6,1.6,0.9,2.4c-3.3-1.4-6.7-2.2-10.3-1.6c-6.8,0.9-12.7,4.5-17.9,8.8c-7.9,6.8-14.4,15.3-19.7,24.3
			c-10.2,17.6-16.8,37.5-18.9,57.8c-0.3,11.5-1.1,22,2.9,33c2.6,7.7,7.8,13.7,15.7,16.1c-4.9,1.5-9.6-1.7-14.4-3
			c-7-2.3-13.2-5.5-17.2-12c0.5-1.7,1.1-3.4,1.6-5.1c1.5,2.7,2.9,5.3,5.2,7.5c3.1,2.9,7,3.8,10.9,5.2c-3.6-6.2-5.7-12.7-6.6-19.8
			c-0.5-6-1.5-11.8-0.5-17.9c0.8-13.8,4.1-27.2,8.7-40.2c5-13,11.3-25.2,19.9-36.2c7-8.5,14.8-15.9,25.4-19.8
			c-6-2.3-11.4-4.2-17.7-1.6c-13,5.6-23,18-30.2,29.9c-5,8.3-9,17.4-12.2,26.5c-0.8-2.3-1.6-4.5-2.5-6.7
			c7.8-19.3,18.4-38.1,35.9-50.2c-13-3.5-25.9-7.1-38.8-10.6c-3.1-0.8-6.4-1.4-9.2,0.5c-4.4,3-8.8,5.4-12.5,9.1
			c-8.5,8.2-14.1,17.9-19.4,28.4c6.5,1.1,12.3,3.8,18.6,5.7c-4.9,0.5-8.6,2.6-13.3,0c-5.1-1.3-11-1.3-15.8,1.1
			c-5.6,2.7-10.8,6.3-15.3,10.7c-11.6,11-20.4,25.6-26.9,40.1c-8.7,19.8-14.3,41.4-14.2,63.1c0.3,11.7,2.1,24.4,9.3,34
			c3.4,4.4,8,6.2,13.1,7.8c1.3,1.5,2.5,3,3.8,4.5c-2.2,0.1-4.3,0.1-6.4-0.8c-4.2-1.8-8.7-3.9-11.8-7.2c-2.4-2.5-4.4-5-7.6-6.5
			c-12.8-5.9-25.5-11.9-38.3-17.7c-3.6-1.7-7.6-3-11-5c-2.8-1.7-4.5-4-6.7-6.3c-2.8-3.2-7.7-4.6-11.5-6.5
			c-26.7-12.3-53.4-24.7-80.3-36.7c-3.4-1.5-6.4-3.4-8.6-6.4c-4.2-5.6-5.2-11.8-6.5-18.5c-6.5-3.2-13.1-6-19.6-9.1
			c2.2-0.7,5.1-2,7.4-1.2c4,1.5,7.9,3.5,11.8,5.3c0.2-3.7,0.4-7.4,0.6-11.1c1.5-0.5,2.9-1,4.4-1.5c-0.5,10.3-1.2,20.2,3.2,29.8
			c1.7,3.6,4,6.6,7.8,8.2c29.5,13.3,58.8,26.9,88.2,40.2c-0.3-1.8-0.7-3.6-1.1-5.4c-1.5-5.9-2-12-2.3-18c0.4-14,2.8-27.8,7.2-41.1
			c4.9-15.1,12.1-29.7,22-42.1c4.6-5.8,10-10.8,16-15c-6.4-2.1-13.2-3.2-19.5-5.5c2.5-0.9,5.1-1.8,7.6-2.7c4.1,1.7,8.6,2.7,13,3.8
			c4.1,1.2,7-0.9,11-1.4c5.2-0.9,9.8,0.9,14.8,2.2c8.1,2.3,16.3,4.4,24.4,6.7c5.6,1.5,11.2,3.1,16.8,4.5c3.8,1,6.8-0.5,10.5-1.3
			c7-15,15.1-28.6,28.8-38.4c-1.2-0.1-2.3-0.3-3.5-0.4l-0.6-0.5c-2.7-0.6-5.3-1.3-8-2.1C701.8,499.4,704.5,498.6,707.2,498.4z
			 M579.1,668.9c14,6,27.8,12.6,41.6,19c-2.6-7.4-4.2-15-4.4-22.9c-0.2-6.4,0.1-12.8,0.3-19.2l0.6-0.7c0.1-2.1,0.3-4.3,0.4-6.4
			l0.5-0.6c0.7-5.6,2-11.2,3.5-16.6c4.9-17.9,12.6-35.4,23.2-50.7c6.5-9.3,13.7-17.7,23.4-23.8c0.1-0.3,0.2-0.7,0.3-1
			c-14.2-3.6-28.4-7.6-42.5-11.5c-4.3-1.4-8.4-1.5-12.8-0.6c-2.9,2.4-6.2,4.2-9.3,6.3c-7.8,5.6-14.1,13.7-19.3,21.6
			c-11.7,18.4-18.9,39.6-21.2,61.2c-0.4,8.8-0.8,18.4,1.5,26.9c1,4.2,3,8.3,4.6,12.3C571.5,665.9,575.6,667.4,579.1,668.9z"/>
	</g>
	<g>
		<path id="p16" class="st3" d="M719.5,502.8c2.8-1.9,6.1-1.3,9.2-0.5c12.9,3.5,25.9,7.1,38.8,10.6c-17.5,12.1-28.1,30.9-35.9,50.2
			c0.8,2.2,1.7,4.5,2.5,6.7c3.1-9.2,7.1-18.2,12.2-26.5c7.1-11.8,17.2-24.3,30.2-29.9c6.3-2.6,11.8-0.8,17.7,1.6
			c-10.6,3.8-18.3,11.2-25.4,19.8c-8.7,11-14.9,23.2-19.9,36.2c-4.7,13-7.9,26.4-8.7,40.2c-0.9,6.1,0,11.9,0.5,17.9
			c0.9,7.2,3,13.6,6.6,19.8c-3.9-1.4-7.8-2.3-10.9-5.2c-2.4-2.1-3.7-4.7-5.2-7.5c-0.5,1.7-1,3.4-1.6,5.1
			c-4.9,15-11.7,29.6-20.6,42.6c-5.3,7.9-11.6,15.1-18.9,21.2c-7,5.7-14.8,9.9-24,10.4c-7.2,0.2-14.2-2.8-19-8.2
			c-1.3-1.5-2.6-3-3.8-4.5c-5.1-1.6-9.7-3.4-13.1-7.8c-7.2-9.6-9-22.3-9.3-34c-0.1-21.7,5.5-43.3,14.2-63.1
			c6.5-14.5,15.3-29,26.9-40.1c4.5-4.4,9.6-8,15.3-10.7c4.8-2.4,10.7-2.4,15.8-1.1c4.8,2.5,8.4,0.5,13.3,0
			c-6.2-1.8-12.1-4.5-18.6-5.7c5.2-10.5,10.8-20.2,19.4-28.4C710.7,508.2,715.1,505.8,719.5,502.8z M648.7,618.9
			c-0.1,0.8-0.3,1.5-0.4,2.3l-0.5,0.6c-4.4,14.8-7.3,29.7-7,45.2c0.6,10.6,2,21,8,30.1c2.8,4.4,6.9,7.8,11.9,9.2
			c6.2,1,12.6,0.7,18.2-2.2c11.4-5.4,20.6-16.1,27.5-26.4c13.5-20.6,22.3-45.2,24.8-69.7c0.5-11.4,0.8-22.2-2.7-33.1
			c-2.3-7.2-6.5-14.4-13.4-18.1c-4.6-2.6-10-3.2-15-1.7c-9.5,2.4-17.6,8.9-24.2,15.9C663.2,584.9,655.2,601.2,648.7,618.9z"/>
	</g>
	<g>
		<path id="p17" class="st3" d="M799,516.3c3.6-0.6,7,0.3,10.3,1.6c8.7,5.1,11.9,14.4,13.9,23.7c3.7,19.9-0.3,41.4-7.3,60.2
			c-6.2,16-15.4,32.1-28.4,43.7c-7.6,6.5-15.8,11.8-26.3,10.9c-7.9-2.5-13.1-8.4-15.7-16.1c-4-11-3.2-21.6-2.9-33
			c2.1-20.3,8.7-40.1,18.9-57.8c5.3-9,11.8-17.5,19.7-24.3C786.2,520.8,792.2,517.2,799,516.3z M748.3,601.8
			c-1.4,11.1-1.6,23.6,2.5,34.2c0.9,2.1,2.1,5.2,4.6,5.8c4.6,1,9.8,0,13.5-2.9c4.3-3.2,8.7-6.7,12-10.9c3.3-4.4,5.6-9.7,7.8-14.7
			c6.7-16,12.1-32,14-49.3c1.2-9.7,1.5-20.7-1.6-30.1c-1.4-4.1-3.8-7.6-8.3-8.5c-3.4,1-6.5,3.2-9.2,5.3c-7.6,6.2-13.5,14-18.5,22.4
			C756.4,567.9,750.6,584.8,748.3,601.8z"/>
	</g>
	<g>
		<path id="p18" class="st7" d="M792.9,525.5c4.5,0.9,6.9,4.4,8.3,8.5c3.1,9.4,2.8,20.3,1.6,30.1c-1.9,17.3-7.4,33.3-14,49.3
			c-2.2,5-4.5,10.3-7.8,14.7c-3.3,4.2-7.8,7.7-12,10.9c-3.8,2.9-9,3.9-13.5,2.9c-2.5-0.6-3.7-3.7-4.6-5.8c-4.2-10.5-4-23.1-2.5-34.2
			c2.4-17,8.1-33.9,16.9-48.7c5-8.4,10.9-16.2,18.5-22.4C786.5,528.7,789.6,526.5,792.9,525.5z"/>
	</g>
	<g>
		<path id="p19" class="st3" d="M613.3,533.8c4.4-0.9,8.5-0.8,12.8,0.6c14.1,3.9,28.3,7.8,42.5,11.5c-0.1,0.3-0.2,0.7-0.3,1
			c-9.6,6.2-16.9,14.6-23.4,23.8c-10.6,15.3-18.3,32.8-23.2,50.7c-1.5,5.5-2.8,11-3.5,16.6l-0.5,0.6c-0.1,2.1-0.3,4.3-0.4,6.4
			l-0.6,0.7c-0.2,6.4-0.6,12.8-0.3,19.2c0.1,7.9,1.8,15.5,4.4,22.9c-13.9-6.4-27.6-13-41.6-19c-3.5-1.5-7.6-3-9.4-6.7
			c-1.7-4-3.6-8.1-4.6-12.3c-2.3-8.5-1.9-18.1-1.5-26.9c2.3-21.6,9.5-42.8,21.2-61.2c5.2-8,11.5-16,19.3-21.6
			C607.1,538,610.4,536.2,613.3,533.8z"/>
	</g>
	<g>
		<path id="p20" class="st1" d="M700.1,555.1c5.1-1.4,10.5-0.9,15,1.7c6.9,3.7,11.1,10.8,13.4,18.1c3.5,11,3.2,21.8,2.7,33.1
			c-2.5,24.5-11.3,49.1-24.8,69.7c-6.9,10.3-16.2,21-27.5,26.4c-5.7,2.9-12,3.3-18.2,2.2c-5-1.5-9.1-4.8-11.9-9.2
			c-6-9-7.4-19.5-8-30.1c-0.4-15.5,2.6-30.4,7-45.2l0.5-0.6c0.2-0.8,0.3-1.5,0.4-2.3c6.4-17.6,14.4-34,27.2-47.9
			C682.5,564,690.6,557.5,700.1,555.1z M705.5,559c4.6,7.9,6.7,16.9,7.2,26c1.2,22-4.3,44.6-13,64.6c-6.2,13.8-13.9,26.6-24.7,37.4
			c-5.4,5.1-11.4,9.3-18.2,12.2c4.8,3.3,9.2,4.5,15,3.1c8.6-2.4,16.3-8.9,22.2-15.4c9.5-10.7,16.8-23.5,22.2-36.7
			c6-14.7,10-30.3,11.2-46.2c0.5-11.9-0.2-25.3-6.5-35.8C717.3,562.6,712.3,559,705.5,559z M652.9,695.4l2.1-0.3
			c10.9-4.2,19.7-13.4,26.6-22.6c11.9-16.2,19.8-35.7,24.1-55.3c2.9-13.3,4.2-27.8,1.6-41.2c-1-5.7-3.4-10.7-5.5-16
			c-2.1-0.2-3.8,0.1-5.7,1c-8.3,3.9-15.5,10.8-21.2,17.9c-13.5,16.8-22.3,37.8-26.9,58.7c-2.9,13.7-4.3,27.6-1.7,41.5
			C647.5,684.9,649.4,690.5,652.9,695.4z"/>
	</g>
	<g>
		<path id="p21" class="st3" d="M705.5,559c6.8,0,11.9,3.6,15.3,9.3c6.3,10.5,7,23.9,6.5,35.8c-1.1,15.8-5.2,31.5-11.2,46.2
			c-5.4,13.2-12.7,26-22.2,36.7c-5.9,6.5-13.6,13-22.2,15.4c-5.9,1.4-10.2,0.2-15-3.1c6.9-2.8,12.9-7.1,18.2-12.2
			c10.7-10.8,18.5-23.5,24.7-37.4c8.7-20,14.3-42.7,13-64.6C712.2,575.9,710.1,566.9,705.5,559z"/>
	</g>
	<g>
		<path id="p22" class="st8" d="M701.7,559.9c-1.7,1.3-3.6,2.4-5.5,3.3c-6,2.7-11.3,7.4-15.7,12.2c-9.2,10-16.2,22.1-21.5,34.6
			c-7.8,18.6-12.8,39.6-11.6,60c0.5,8.9,2.6,17.6,7.7,25.1l-2.1,0.3c-3.5-4.9-5.4-10.5-6.6-16.4c-2.6-13.8-1.2-27.8,1.7-41.5
			c4.6-20.9,13.4-41.9,26.9-58.7c5.7-7.1,12.9-14,21.2-17.9C698,560,699.6,559.8,701.7,559.9z"/>
	</g>
	<g>
		<path id="p23" class="st7" d="M701.7,559.9c2.1,5.3,4.5,10.3,5.5,16c2.6,13.4,1.3,27.9-1.6,41.2c-4.3,19.6-12.2,39.1-24.1,55.3
			c-6.9,9.2-15.7,18.4-26.6,22.6c-5-7.5-7.2-16.2-7.7-25.1c-1.2-20.3,3.8-41.3,11.6-60c5.3-12.5,12.4-24.6,21.5-34.6
			c4.5-4.8,9.7-9.5,15.7-12.2C698.2,562.3,700,561.3,701.7,559.9z"/>
	</g>
	<g>
		<path id="p24" class="st2" d="M271.9,618.4c1-0.2,2-0.3,3-0.5c2.5-0.2,5-0.2,7.6-0.2c-1,4.7-1.8,9.4-2.5,14.2
			C277.1,627.5,274.5,622.9,271.9,618.4z"/>
	</g>
</g>
<g>
	<g>
		<path id="p1_00000014627680297905479610000007937243506740417957_" class="st9" d="M531,8.8c57.5,1.3,115,12.1,168.9,32.3
			c59.2,22.3,114.1,55.5,161.3,97.7c50.4,45,91.9,100.1,120.9,161.1c27,55.8,43,117.1,48.1,178.9c4.8,59.1-0.8,119-16.4,176.2
			c-13,48.4-33.8,94.9-60.4,137.4c-17.8,27.9-38,54.3-60.7,78.2c-48.1,51.1-106.8,92.1-171.3,119.7
			c-59.6,25.6-124.5,39.3-189.3,40.9c-61.7,1.4-123.5-8.3-181.8-28.6c-25.3-8.8-49.7-19.9-73.4-32.5c-24.8-13.2-48.5-29-70.8-46.1
			c-14.9-11.6-29.3-24-42.7-37.2c-26-25-49-52.9-69.2-82.9c-14.7-21.6-27.4-44.9-38.5-68.5c-13.2-28.2-23.7-57.6-31.4-87.8
			C11.5,597.5,6.3,545.5,8.9,494c2.3-45.5,10.8-90.6,24.8-134c11.8-35.9,27.9-70.5,47.2-103c23.8-39.3,52.6-75.5,85.9-107.1
			c53.3-51,118.1-90.2,187.9-114C411.4,16.8,471.3,7.6,531,8.8z M499,957.9c21.9,1.4,44,0.4,65.8-1.7
			c57.3-5.9,113.6-23.5,164.1-51.3c24.4-13.6,47.5-29.2,68.8-47.2c14.7-12.4,28.7-25.2,41.4-39.6c22-23.7,40.9-50,57-78
			c39.1-68.2,58.9-147.5,56.5-226.1c-1.4-57.4-14.8-114-38.3-166.3c-18.7-41.1-43.9-79.3-74.3-112.7c-4.9-5.1-9.5-10.5-14.5-15.5
			c-18.6-18.5-38.8-35.6-60.3-50.7c-27.4-19-56.9-34.9-87.9-47.2C629.2,102.9,577.6,92.6,526,92c-57.7-1-115.6,10.2-169,32
			c-28.4,11.7-55.6,26.6-81,44.1c-21.6,15-41.8,32.1-60.5,50.5c-3.2,3.1-6.2,6.4-9.2,9.8c-32.8,34.4-59.7,74.4-79.7,117.4
			C106.5,390,93.6,437.6,89.2,486c-2,21.1-2.3,42.3-1.2,63.5C91,608,106.4,666,132.4,718.5c13.3,26.3,29.1,51.5,47.4,74.7
			c14.8,18.4,30.6,36.1,48.2,51.8c20.6,18.9,42.9,35.8,66.8,50.2c51.7,31.8,110.6,52.1,170.8,59.8
			C476.6,956.4,487.8,957.5,499,957.9z"/>
	</g>
	<g>
		<path id="p2_00000004540528411345005780000000733375707267677359_" class="st10" d="M526,92c51.6,0.5,103.2,10.9,151.2,29.6
			c31,12.2,60.5,28.2,87.9,47.2c21.5,15.1,41.7,32.2,60.3,50.7c5,5,9.6,10.4,14.5,15.5c30.4,33.4,55.6,71.6,74.3,112.7
			c23.5,52.3,36.9,108.9,38.3,166.3c2.4,78.6-17.4,157.9-56.5,226.1c-16.1,28-35.1,54.3-57,78c-12.8,14.4-26.8,27.2-41.4,39.6
			c-21.3,18-44.4,33.6-68.8,47.2c-50.4,27.8-106.8,45.4-164.1,51.3c-21.8,2-43.9,3.1-65.8,1.7c-11.2-0.3-22.4-1.4-33.5-2.8
			c-60.2-7.7-119-28-170.8-59.8c-23.9-14.5-46.2-31.3-66.8-50.2c-17.6-15.7-33.4-33.4-48.2-51.8c-18.3-23.2-34.1-48.4-47.4-74.7
			C106.4,666,91,608,87.9,549.5c-1-21.1-0.7-42.4,1.2-63.5c4.4-48.4,17.4-96,37.5-140.2c20-43.1,46.9-83.1,79.7-117.4
			c3-3.3,6-6.6,9.2-9.8c18.7-18.4,38.9-35.5,60.5-50.5c25.3-17.4,52.5-32.3,81-44.1C410.4,102.2,468.3,91.1,526,92z M219.6,226.6
			c-19,18.9-36.1,39.7-51.2,61.8c-17.3,25.8-32.3,53.5-43.6,82.4C104.9,421.7,94.8,476.3,95.5,531c0.5,52,10.9,104.1,30.1,152.4
			C150.4,745.3,189.9,801.1,240,845c33.1,29.2,70.9,53,111.4,70.6c43,18.5,89,29.9,135.6,33.5c77,6.1,155.8-9.4,224.7-44.4
			c56.5-28.6,106.2-69.9,145-120.1c16.7-21.6,31.2-45.1,43.5-69.4c28.3-56.7,43.5-119.9,44.4-183.2c0.8-54.7-9.2-109.5-29.1-160.5
			c-29.2-74.3-79.6-139.9-144-187.1c-28-20.8-58.7-37.7-90.9-51.1c-110.9-45.5-240.7-41.4-348,12.2
			C290.8,166.1,252.4,193.6,219.6,226.6z"/>
	</g>
	<g>
		<path id="p3_00000183947335854422211600000003104663421894215810_" class="st11" d="M680.6,133.4c32.2,13.3,62.9,30.3,90.9,51.1
			c64.4,47.2,114.8,112.8,144,187.1c19.8,51,29.8,105.7,29.1,160.5c-0.9,63.3-16.1,126.6-44.4,183.2c-12.4,24.3-26.8,47.9-43.5,69.4
			c-38.7,50.1-88.4,91.5-145,120.1c-68.9,35-147.7,50.5-224.7,44.4c-46.6-3.6-92.6-15.1-135.6-33.5C311,898,273.1,874.2,240,845
			c-50.2-43.9-89.6-99.7-114.5-161.5C106.4,635.1,96,583,95.5,531c-0.7-54.7,9.4-109.3,29.3-160.2c11.3-28.9,26.3-56.6,43.6-82.4
			c15.1-22.1,32.2-42.9,51.2-61.8c32.8-33,71.2-60.5,113-81C439.9,92,569.7,87.9,680.6,133.4z M222.1,614.6
			c12.8,31,30.2,60.1,50.6,86.6c2,2.7,4.9,5.2,4.9,8.8c3.2,29.5,12.1,58.8,26.9,84.5c7.5,13.1,16.5,25.2,26.5,36.5
			c4,4.4,8.4,8.4,12.4,12.7c-0.9,1.8-1.7,3.7-2.5,5.6c22.7,11.4,46,21.6,69.5,31.2c37.1,15.1,75.4,26.2,114.6,34.4
			c4.6,1,9,1.4,13.5-0.4c9.1-3.2,13-16.6,7-24.1c-4.3-5.2-9.7-8.7-16.5-9.3c-21-4.4-41.8-9.6-62.3-15.9c-17.5-5.4-34.4-12-51.4-18.8
			c-19.3-7.7-38.3-16-57.3-24.2c-2.4,0.4-3.4,1-5.3-1c-22.4-20.5-40.4-46-51.3-74.5c-2.4-5.7-3.8-11.8-6.2-17.5
			c4.7,4.2,8.6,9,13,13.5c10.1,10.9,21,21,31.8,31.2c26.9,24.9,59,44.1,93.3,56.7c26.4,9.6,54,15.2,81.9,17.4
			c8.2,1,16.4,0.3,24.5,1.1c4.1,0.3,8.1-0.6,12.2-0.4c12.1,0.1,23.9-1.2,35.9-2.5c4.7-0.7,9.5-1.5,14.2-1.9l0.7-0.5
			c5.5-0.6,10.9-1.8,16.3-2.9c49.2-10.2,96.4-30,138.5-57.4c20.5-13.6,40.1-29.1,57.5-46.5c24-23.9,44.7-51.9,59.2-82.7
			c16.3-34.9,24.8-73.8,22.7-112.4c-1.2-23-6-45.1-12.5-67.1c3-3.3,5.8-7,4.7-11.9c-1.7-6.3-7.3-10.3-12.2-14.1
			c-1.9-1.4-2.9-3.3-3.8-5.4c-9.4-22.7-22.2-43.9-37.9-62.8c-8.2-9.5-16.5-18.8-25.9-27.1c-6.7-5.5-11.7-13-17.9-19.1
			c-14.2-14.6-29.2-28.2-45.7-40.2c-33.6-24.1-71.7-42.1-111.8-52.2c-25.8-6.5-52.4-10.1-78.9-10.6c-61.5-1.3-122.9,14.5-178,41.4
			c-35.3,17.3-68.3,39.1-96.4,66.7c-14.3,13.8-27,29.2-38.1,45.6c7-25.2,18.7-49.3,34.4-70.2c15.5-20.8,35-38.3,56.8-52.2
			c20.2-13,42.8-23,65.6-30.4c35.4-11.5,72.7-17.8,109.8-20.2c8-1,15.9-0.4,23.9-1.3c12.4-0.4,24.8-0.3,37.1,0
			c5.6,0.6,11.3,0.6,16.9,0.7c31.2,1.7,62.3,5,93,10.5c3.2,0.6,6.6,1,9.4,2.6c2.5,1.3,5.1,2.5,7.8,3.4c17.6,5.2,38,9,54.2,17.9
			c4.6,2.3,7.2,6.3,12.1,6.8c-0.6-1.8-0.5-3.5-2.2-4.8c-5.7-4.9-13-8.3-20-11c-13.7-5.3-29-8.6-43-12.6c21,2.7,43.3,5.8,63.3,13.1
			c4.4,1.4,8.2,3.9,12.3,6c1.1-0.2,2.1-0.5,3.2-0.8c-1.3-2-2.7-3.7-4.9-4.8c-10.1-5.5-22.1-8.6-33.3-11.1c-4.4-1.1-8.9-1.7-13.4-2.3
			c8.8-0.5,17.5,0.4,26.2,1.2c5.8,0.7,11.4,1.3,17,2.9c2.3,0.7,4.6,1.1,7,1.2c-0.1-1.1-0.3-2.2-0.4-3.2c-13.7-5.5-30.8-5.1-45.4-6.7
			c-9.7-0.3-19.4,0-29.1-0.3c12.8-0.2,25.4-0.7,38.1,0.5c11,0.2,22,1.1,33,1.5c4.6,0.4,9.1,0.9,13.6,0.1c-0.1-1-0.1-2.1-0.2-3.1
			c-7.5-1.1-15-0.7-22.5-1.6c-14.3-0.6-28.6-1.6-43-1.5c-8.3,0.1-17-0.4-25.2,0.9c-2.8,0.3-5.2,1.4-7.6,2.8
			c-30.4-5.7-61.2-9.4-92.1-11.2c-9-0.9-18-0.6-27.1-1.2c-43.9-0.8-89,1.8-132,11c-26.6,5.6-53,13.8-77.6,25.2
			c-24.6,11.3-47.8,26.3-67.5,44.9c-5.4,4.6-10,10-14.7,15.2c-26.9,30.5-44.3,69.4-52.6,109c-1.2,5.4-1.4,10.4-3.7,15.5
			c-3.5,8-6.2,16.2-8.7,24.6c-0.5,2.1-1.6,2.7-3.5,3.7c-19.7,10-39.7,21.7-56,36.8c-8.8,8.3-16.8,18.4-19.8,30.3
			c-2,7-1.8,13.9-1.4,21.1c1.6,14.1,8.6,26.3,18.2,36.5c11.4,11.6,25.6,19.6,40.7,25.4C199.9,609.8,210.9,612.6,222.1,614.6z"/>
	</g>
	<g>
		<path id="p4_00000037660657042261942780000011631061110945627579_" d="M568,206.8c9,0.7,18.1,0.4,27.1,1.2
			c30.9,1.7,61.7,5.4,92.1,11.2c2.4-1.4,4.8-2.5,7.6-2.8c8.2-1.2,16.9-0.8,25.2-0.9c14.4-0.1,28.7,0.9,43,1.5
			c7.5,0.8,15.1,0.5,22.5,1.6c0.1,1,0.1,2.1,0.2,3.1c-4.6,0.8-9.1,0.3-13.6-0.1c-11-0.5-22-1.4-33-1.5c-12.7-1.2-25.4-0.7-38.1-0.5
			c9.7,0.3,19.4,0,29.1,0.3c14.6,1.6,31.7,1.2,45.4,6.7c0.1,1.1,0.3,2.2,0.4,3.2c-2.4-0.1-4.7-0.6-7-1.2c-5.6-1.6-11.2-2.2-17-2.9
			c-8.8-0.8-17.4-1.7-26.2-1.2c4.5,0.6,9,1.3,13.4,2.3c11.2,2.5,23.2,5.6,33.3,11.1c2.2,1.1,3.6,2.7,4.9,4.8
			c-1.1,0.3-2.1,0.5-3.2,0.8c-4.1-2-7.9-4.5-12.3-6c-20-7.3-42.2-10.4-63.3-13.1c14,4,29.3,7.3,43,12.6c7,2.7,14.2,6.2,20,11
			c1.6,1.3,1.6,3,2.2,4.8c-4.9-0.5-7.5-4.5-12.1-6.8c-16.2-8.9-36.5-12.6-54.2-17.9c-2.7-0.8-5.3-2-7.8-3.4c-2.8-1.6-6.2-2-9.4-2.6
			c-30.8-5.5-61.8-8.8-93-10.5c-5.7-0.1-11.3-0.2-16.9-0.7c-12.4-0.3-24.8-0.3-37.1,0c-8,0.9-15.9,0.3-23.9,1.3
			c-37.1,2.4-74.4,8.7-109.8,20.2c-22.8,7.5-45.4,17.4-65.6,30.4c-21.9,13.9-41.3,31.4-56.8,52.2c-15.7,20.9-27.4,45-34.4,70.2
			c11.1-16.5,23.8-31.8,38.1-45.6c28.1-27.6,61.2-49.3,96.4-66.7c55.1-26.9,116.5-42.7,178-41.4c26.6,0.5,53.2,4.1,78.9,10.6
			c40.1,10.1,78.2,28.1,111.8,52.2c16.5,12,31.5,25.5,45.7,40.2c6.2,6.2,11.2,13.6,17.9,19.1c9.3,8.4,17.7,17.6,25.9,27.1
			c15.7,18.9,28.5,40.1,37.9,62.8c0.9,2.1,1.8,4.1,3.8,5.4c4.9,3.8,10.5,7.8,12.2,14.1c1.2,4.8-1.6,8.5-4.7,11.9
			c6.5,22,11.3,44.1,12.5,67.1c2.1,38.5-6.4,77.5-22.7,112.4c-14.5,30.8-35.1,58.7-59.2,82.7c-17.4,17.5-36.9,32.9-57.5,46.5
			c-42.1,27.3-89.3,47.2-138.5,57.4c-5.4,1.1-10.8,2.3-16.3,2.9l-0.7,0.5c-4.7,0.5-9.5,1.2-14.2,1.9c-12,1.2-23.8,2.6-35.9,2.5
			c-4.1-0.1-8.1,0.8-12.2,0.4c-8.1-0.9-16.4-0.1-24.5-1.1c-27.9-2.2-55.6-7.8-81.9-17.4C399,818,367,798.8,340.1,773.9
			c-10.9-10.2-21.7-20.3-31.8-31.2c-4.4-4.5-8.3-9.3-13-13.5c2.4,5.7,3.8,11.8,6.2,17.5c10.9,28.5,28.9,53.9,51.3,74.5
			c1.8,2,2.9,1.3,5.3,1c19,8.2,38.1,16.5,57.3,24.2c17,6.8,34,13.5,51.4,18.8c20.5,6.3,41.3,11.5,62.3,15.9
			c6.9,0.6,12.2,4.1,16.5,9.3c6,7.6,2.1,20.9-7,24.1c-4.5,1.8-8.9,1.3-13.5,0.4c-39.2-8.3-77.5-19.4-114.6-34.4
			c-23.5-9.6-46.8-19.9-69.5-31.2c0.7-1.9,1.6-3.8,2.5-5.6c-4.1-4.3-8.4-8.3-12.4-12.7c-10-11.2-19-23.4-26.5-36.5
			c-14.7-25.8-23.6-55.1-26.9-84.5c0-3.6-3-6-4.9-8.8c-20.4-26.5-37.8-55.7-50.6-86.6c-11.2-2-22.2-4.8-32.9-8.8
			c-15.1-5.8-29.3-13.8-40.7-25.4c-9.6-10.2-16.6-22.4-18.2-36.5c-0.3-7.2-0.5-14.1,1.4-21.1c3-11.9,11-22,19.8-30.3
			c16.2-15.1,36.3-26.8,56-36.8c1.8-1,3-1.6,3.5-3.7c2.5-8.3,5.2-16.6,8.7-24.6c2.3-5.1,2.5-10.1,3.7-15.5
			c8.2-39.6,25.7-78.5,52.6-109c4.8-5.3,9.3-10.6,14.7-15.2c19.7-18.5,42.9-33.6,67.5-44.9c24.7-11.3,51.1-19.5,77.6-25.2
			C479,208.6,524.1,206,568,206.8z M232.1,444.5c9.7-4.3,19.6-8.2,29.5-11.9c14.3-5.1,28.8-10.2,43.7-13.5
			c0.3-10.8,0.9-21.7,1.2-32.5c0.7-12.7,1-24.6,5.2-36.8c2.2-6.3,5.1-12.6,9.4-17.7c4.4-5.3,11.6-7.9,17.8-10.4
			c21.6-8.4,43.8-15.5,65.9-22.5c29.3-9,58.9-17.2,88.8-24.2c12-2.7,24.2-5.4,36.4-6.9c17.3-1.9,34.6-2.7,52-2.1
			c10,0.7,20.2,1.5,29.8,4.8c4.9,1.7,10.8,4.5,12.7,9.8c1.5,4.4,3.1,8.7,5.3,12.8c30.5-0.2,61.4,3.6,90.7,12.1
			c23.2,6.8,45.4,16.8,65.7,30c-20.7-22.3-45.5-40.9-72-55.8c-30.9-17.4-64.5-29.8-99.2-36.7c-31.9-6.2-64.6-8.1-97-5.2
			c-48.7,4-96,18.4-139.9,39.5c-27.3,12.9-52.8,29.6-75.6,49.4c-28.3,24.7-51.7,54.8-66.6,89.4c-1.6,3.7-1.7,7.4-2.3,11.3
			C233,433,232.3,438.7,232.1,444.5z M305,475c-0.6,3.8-2.9,8.2-0.6,11.8c3.8,7.2,12.4,9.8,19.5,12.5c27.7,9.5,59,11.7,88.1,11.5
			c29.6-0.3,58.8-3.6,88-8.5c44.9-7.5,90.3-19.6,131.7-38.7c12.3-5.8,24.8-12,35.7-20.2c3.9-3.2,8-7,10.4-11.5
			c0.2-4.6-1-9.3-1.7-13.9c-4-19.3-10.2-38.4-16.9-57c-6.6-17.9-13.9-36-23.7-52.4c-3.2-5.5-7.4-10-10.2-15.8
			c-1.9-3.7-3-7.7-4.6-11.5c-1.3-3.4-5.4-5.1-8.5-6.4c-8.9-3.3-18.7-4.3-28-5c-10-0.1-20-0.1-30,0c-11.9,0.7-23.5,1.5-35.2,3.7
			c-25.8,4.8-51.5,11.6-76.8,18.6c-28.8,8.2-57.5,17.1-85.8,27.1c-8.4,3.1-17,6-25,9.9c-8.3,4-12.7,13.1-15.7,21.3
			c-4,11-4.3,22-5.2,33.5c-0.2,5,0,9.9-0.5,14.8c-1,9.6,0,19.2-1,28.8c-0.8,7.2-0.1,14.4-1.1,21.7C307.3,457.9,306.6,466.5,305,475z
			 M791,413.1c18.4,5,36.3,11.2,53.8,19c-8.3-24.7-20.4-48-35.7-69.1c-2.5-3.3-4.9-7.1-8-9.9c-21.4-17-45.9-29.2-71.9-37.6
			c-30.2-9.6-62-14.2-93.7-14.4c6.1,9.2,11,19.1,15.5,29.1c7.1,15.9,13.1,32.3,18.5,48.8c1.4,3.9,2.2,8,3.9,11.8
			c2.8,1.2,6.3,0.9,9.2,1.5C719,397,755.4,403.5,791,413.1z M854.3,436.4c3.5,1.8,7.1,3.5,10.6,5.3c-3.2-6.7-5.9-13.6-9.3-20.2
			c-9-17.5-19.8-34.5-33.2-48.9c5,8.1,10,16,14.4,24.4C843.7,409.6,849.4,422.9,854.3,436.4z M302.2,470.3
			c1.1-9.8,2.2-19.5,2.3-29.3c0.6-6,1.1-11.9,0.7-18c-7.9,1.7-15.8,4.2-23.5,6.7c-21.9,7.1-43.3,15.9-64.2,25.6
			c-19.3,9.2-37.7,19.4-54.5,32.7c-5.3,4-9.8,8.8-14.5,13.5c-7.8,8.2-13.6,19-14.2,30.5c-0.2,7-0.5,13.4,1.7,20.1
			c4.3,14.3,13.8,25.6,25.5,34.5c16.8,12.5,37.9,19.8,58.3,23.7c12,2.2,24.1,3.6,36.2,3.7c7.1,0.8,13.8,0.9,21,0
			c17-0.2,34.1-2.2,51-4.4c32.4-4.5,64.3-12.1,95.5-21.9c55.1-17,104.6-42,158.6-61.6c27.8-10.1,56.2-18.2,85-24.6
			c39.2-8.6,79.1-14.5,119.2-17.2c7.2-0.7,14.5-0.4,21.8-1.2c9.3-0.1,18.6-1,27.9-1.5c12.7-1.2,26.5-2,38.7-6
			c4.3-1.5,9.3-3.6,10.6-8.5c1.1-4-2.2-7.7-4.9-10.3c-5.9-5.3-13-9.4-20-13c-20.9-10.5-42.8-19.2-65.3-25.5
			c-39.4-11-80-18.1-120.7-23c1.5,6.6,3.6,13.1,4.8,19.8c0.5,2.2,0.7,4.9,1.9,6.9c2.8,1.7,5.8,2.5,8.4,4.7c4,3.4,6.6,8.2,6.3,13.5
			c0.4,6.6-4.3,12.6-8.8,17c-9,8.1-20.3,14.4-30.9,20.1c-14.9,7.9-30.4,14.7-46.3,20.5c-48.9,17.9-99.9,28.2-151.8,32.4
			c-6.3,0.8-12.6,0.7-18.8,1.4c-5.7,0.6-11.4,0.2-17.1,0.6c-9.4,0.4-18.6,1.2-28,0.4c-9.3-0.7-18.7-0.3-28-1.3
			c-18.3-1.4-37.7-3.7-55-10c-6.7-2.5-13.9-5.9-19.1-10.9c-3.9-3.8-6.5-8.9-7.8-14.2c-1.4-6.1,1-12.3,5-16.8
			C292.6,475.1,297.6,472.8,302.2,470.3z M681.7,426c0,2.2,0.2,4.5-0.1,6.7c-0.7,2.2-2.4,4.2-3.9,6c-6.8,8.3-17.3,14.2-26.6,19.4
			c-23.4,12.6-48.5,22.3-73.9,30.1c-25,7.6-50.6,13.3-76.3,17.7c-23.8,4-47.8,6.8-72,8.2c-14.4,0.2-28.6,0.3-43-0.1
			c-22.5-1.5-46.1-4.7-67.4-12.7c-7.3-3-14.3-5.6-17.8-13.3c-2.4-4.4-1-8.2,0-12.8c-5.5,2.7-10.8,6.8-12.8,12.8
			c-2,7.6,2.2,16,7.9,20.9c6.8,5.4,15.7,8.7,23.9,11.1c21.9,6.1,43.5,7.5,66,8.7c10.7,0.1,21.3,0,32,0c7,0,14-1.1,21-1
			c34.6-2.1,68.9-6.4,102.7-14.1c39.6-9,79.7-22,115.5-41.5c9.9-5.5,19.3-10.4,27.5-18.4c3.7-3.6,7.5-8.4,7.9-13.8
			c-0.4-5.2-3.5-9.8-8.1-12.4C683.6,427.1,682.6,426.6,681.7,426z M865.7,481.8c3.7,22.8,4,46.2,1.6,69.2c-5,43-19.5,85-44.9,120.2
			c-27.2,37.7-65.6,65.6-108.2,83.4c-49.7,20.7-103.5,29.3-157.1,29.7c-38.9,0.3-77.8-3.5-115.9-11.3c-17.6-3.6-36.1-7.6-52.8-14.3
			c-26.4-10.2-50.2-25.9-71-45c12,13.6,25,26.4,38.3,38.7c19.1,16.9,40.1,31.4,63.1,42.5c40.7,19.6,86.2,29.5,131.4,28.8
			c23.8,0.2,47.8-2.9,71-7.8c44.9-9.8,87.9-27.4,126.5-52.5c26.5-16.9,50.4-37.4,71.3-60.8c24.2-27.6,44.1-59.6,55.3-94.7
			c1-3.3,2-6.6,3-9.9c3.9-15,6.7-30.6,7.4-46.1c0.1-6.1,1-12,0.3-18c-0.3-14.3-2.1-28.5-5.2-42.5c-0.9-4.1-2-8.2-2.6-12.4
			C873.2,479.9,869.5,480.9,865.7,481.8z M696.8,499c0.8,0.2,1.5,0.5,2.3,0.7c2.6,0.8,5.3,1.6,8,2.1l0.6,0.5
			c1.2,0.1,2.3,0.3,3.5,0.4c-13.7,9.8-21.8,23.4-28.8,38.4c-3.7,0.7-6.7,2.3-10.5,1.3c-5.6-1.4-11.2-3-16.8-4.5
			c-8.1-2.2-16.3-4.4-24.4-6.7c-4.9-1.4-9.6-3.1-14.8-2.2c-4,0.5-6.9,2.5-11,1.4c-4.3-1.1-8.8-2.1-13-3.8c-2.5,0.9-5.1,1.8-7.6,2.7
			c6.4,2.3,13.1,3.4,19.5,5.5c-6.1,4.2-11.5,9.2-16,15c-9.9,12.4-17.1,27-22,42.1c-4.4,13.3-6.8,27.1-7.2,41.1
			c0.2,6,0.8,12.2,2.3,18c0.4,1.8,0.8,3.6,1.1,5.4c-29.4-13.3-58.8-26.9-88.2-40.2c-3.8-1.5-6.1-4.6-7.8-8.2
			c-4.5-9.6-3.8-19.5-3.2-29.8c-1.5,0.5-2.9,1-4.4,1.5c-0.2,3.7-0.4,7.4-0.6,11.1c-3.9-1.8-7.8-3.8-11.8-5.3
			c-2.3-0.9-5.2,0.5-7.4,1.2c-41.9,14.2-84.8,24.5-128.9,28.9c-6.1,0.7-12.2,1-18.3,1.7c-1.2,7.2-2.1,14.5-2.9,21.7
			c-0.1,2.7-1,5.1,1,7.4c7.9,11.2,16.6,21.9,26.3,31.7c27.8,29.1,62.9,50.8,102,60.9c33.8,8.5,68.4,13.7,103.2,15.9
			c13.9,0.9,28,0.7,42,0.7c15.4-0.1,30.7-1.1,46-2.9c35.3-3.9,70.8-12.3,103.5-26.4c26.6-11.4,52.1-26.8,73.2-46.8
			c3.7-3.2,7.3-6.6,10.5-10.4c15.1-15.9,27.6-34.1,37-53.8c15.3-32.2,23.5-67.8,24.2-103.4c0.2-9.6-0.4-19.2-1.4-28.7
			c-24.6,3.3-50.5,3.4-75,5.2C752.7,490.4,724.8,494.5,696.8,499z M271.9,618.4c2.6,4.6,5.2,9.1,8.1,13.5c0.7-4.7,1.5-9.5,2.5-14.2
			c-2.5,0-5,0-7.6,0.2C273.9,618,272.9,618.2,271.9,618.4z"/>
	</g>
	<g>
		<path id="p5_00000105384468986144120140000001083761289145773967_" class="st11" d="M615,242.9c34.8,6.9,68.4,19.3,99.2,36.7
			c26.5,14.9,51.3,33.5,72,55.8c-20.3-13.1-42.4-23.2-65.7-30c-29.3-8.6-60.2-12.3-90.7-12.1c-2.3-4.1-3.8-8.4-5.3-12.8
			c-1.9-5.2-7.8-8.1-12.7-9.8c-9.6-3.2-19.8-4-29.8-4.8c-17.4-0.6-34.7,0.2-52,2.1c-12.2,1.5-24.4,4.2-36.4,6.9
			c-29.8,7-59.5,15.2-88.8,24.2c-22.1,6.9-44.3,14.1-65.9,22.5c-6.2,2.6-13.5,5.1-17.8,10.4c-4.2,5.2-7.2,11.5-9.4,17.7
			c-4.2,12.1-4.5,24.1-5.2,36.8c-0.3,10.9-0.9,21.7-1.2,32.5c-14.8,3.3-29.4,8.4-43.7,13.5c-9.9,3.8-19.8,7.6-29.5,11.9
			c0.2-5.8,0.9-11.5,1.5-17.3c0.5-4,0.7-7.6,2.3-11.3c14.9-34.6,38.3-64.7,66.6-89.4c22.8-19.9,48.2-36.5,75.6-49.4
			c43.9-21,91.3-35.4,139.9-39.5C550.4,234.8,583.1,236.7,615,242.9z"/>
	</g>
	<g>
		<path id="p6_00000088132801347140510760000017303438945281463998_" class="st12" d="M554,269.9c10-0.1,20-0.1,30,0
			c9.4,0.6,19.2,1.7,28,5c3.1,1.3,7.2,3.1,8.5,6.4c1.6,3.8,2.7,7.8,4.6,11.5c2.8,5.8,7,10.2,10.2,15.8c9.8,16.4,17.1,34.5,23.7,52.4
			c6.7,18.5,12.9,37.7,16.9,57c0.8,4.5,1.9,9.3,1.7,13.9c-2.4,4.5-6.4,8.4-10.4,11.5c-10.9,8.2-23.4,14.4-35.7,20.2
			c-41.5,19.1-86.8,31.2-131.7,38.7c-29.2,4.9-58.4,8.1-88,8.5c-29.1,0.3-60.3-2-88.1-11.5c-7.1-2.7-15.7-5.3-19.5-12.5
			c-2.3-3.6,0.1-8,0.6-11.8c1.5-8.5,2.2-17.1,2.7-25.8c1-7.2,0.3-14.4,1.1-21.7c1-9.6,0-19.2,1-28.8c0.6-4.9,0.4-9.8,0.5-14.8
			c0.9-11.5,1.2-22.5,5.2-33.5c3-8.2,7.3-17.4,15.7-21.3c8.1-3.9,16.6-6.8,25-9.9c28.3-10,56.9-18.9,85.8-27.1
			c25.3-7,51-13.8,76.8-18.6C530.5,271.4,542.2,270.6,554,269.9z M334.7,336.2c-0.7,1.1-1.3,2.2-1.7,3.5c4.5,2.1,9,3.8,13.9,4.3
			c12.9,1.2,26.1-0.9,39-2.7c16.8-2.1,33.6-5.9,50.2-9.3c42.7-9.2,85.4-19.1,127.6-30.3c12.8-3.7,27-7.4,38.4-14.6
			c3.7-2.4,5.1-4.8,5.9-9.1c-2.1,0.5-3.3,0.6-4.6,2.5c-3.5,4.5-8.2,6.6-13.3,8.7c-13.5,5.5-27.2,8.9-41.3,12.6
			c-44,11.2-88.2,21.6-132.7,30.6c-9.3,1.8-18.7,3.7-28.2,4.9c-11.8,1.6-23,3.4-35,3.3C346.5,340.5,340.4,339.4,334.7,336.2z
			 M530.7,322.5c-5.7,9.8-9.1,21.2-10.9,32.4c-1.1,10.9-1,21.5,3.8,31.6c4.7,10,13.9,18.1,23.4,23.5c16.9,9.5,39.2,9.1,55.6-1.3
			c1.4-0.9,2.5-2,3-3.6c-0.1-2.2-1.7-3.6-3.6-4.4c-2.4,0.6-4.7,2.2-6.9,3.4c-5.4,3.1-12,4.6-18.2,5.3c-15.1,1-29.5-5.6-39.6-16.6
			c-8-7.9-10.9-18.7-10.7-29.7c0.8-11.4,3.6-22.5,8.6-32.7c0.7-2,2.5-4.3,0.9-6.4C535.3,321.9,532.5,322.6,530.7,322.5z"/>
	</g>
	<g>
		<path id="p7_00000126287783200716931600000000473251221978853036_" d="M608,278c-0.8,4.3-2.2,6.7-5.9,9.1
			c-11.3,7.2-25.5,11-38.4,14.6c-42.3,11.2-84.9,21.1-127.6,30.3c-16.6,3.4-33.4,7.1-50.2,9.3c-12.9,1.7-26.1,3.9-39,2.7
			c-5-0.4-9.5-2.2-13.9-4.3c0.4-1.3,1-2.4,1.7-3.5c5.7,3.1,11.8,4.3,18.2,4.4c12,0,23.2-1.8,35-3.3c9.4-1.3,18.8-3.1,28.2-4.9
			c44.5-9,88.7-19.5,132.7-30.6c14.1-3.6,27.8-7,41.3-12.6c5.1-2.2,9.8-4.2,13.3-8.7C604.8,278.6,605.9,278.5,608,278z"/>
	</g>
	<g>
		<path id="p8_00000160886763015365986670000004406196659661478076_" class="st11" d="M635.3,301.1c31.7,0.1,63.5,4.8,93.7,14.4
			c26,8.4,50.5,20.6,71.9,37.6c3.2,2.8,5.5,6.6,8,9.9c15.4,21,27.4,44.4,35.7,69.1c-17.4-7.8-35.3-14-53.8-19
			c-35.6-9.5-71.9-16.1-108.4-20.8c-3-0.5-6.5-0.3-9.2-1.5c-1.7-3.8-2.5-7.9-3.9-11.8c-5.5-16.5-11.5-32.9-18.5-48.8
			C646.3,320.2,641.4,310.4,635.3,301.1z"/>
	</g>
	<g>
		<path id="p9_00000011735002881896800400000004522409394765976966_" d="M536.2,323.9c1.6,2-0.2,4.4-0.9,6.4
			c-5,10.2-7.8,21.4-8.6,32.7c-0.3,11,2.7,21.8,10.7,29.7c10.2,11,24.6,17.6,39.6,16.6c6.2-0.7,12.7-2.2,18.2-5.3
			c2.2-1.2,4.5-2.8,6.9-3.4c2,0.7,3.5,2.1,3.6,4.4c-0.5,1.6-1.7,2.7-3,3.6c-16.4,10.4-38.7,10.9-55.6,1.3
			c-9.5-5.4-18.6-13.5-23.4-23.5c-4.8-10.1-4.9-20.7-3.8-31.6c1.8-11.2,5.1-22.6,10.9-32.4C532.5,322.6,535.3,321.9,536.2,323.9z"/>
	</g>
	<g>
		<path id="p10_00000019637080350775891370000017681882571250193853_" class="st11" d="M822.4,372.5c13.4,14.5,24.2,31.4,33.2,48.9
			c3.5,6.6,6.2,13.5,9.3,20.2c-3.5-1.8-7-3.5-10.6-5.3c-4.9-13.6-10.6-26.8-17.5-39.5C832.4,388.5,827.3,380.6,822.4,372.5z"/>
	</g>
	<g>
		<path id="p11_00000085960600719850094540000017230510892043100571_" class="st13" d="M674.3,395.2c40.6,4.9,81.2,12,120.7,23
			c22.5,6.3,44.4,15,65.3,25.5c7,3.6,14.1,7.7,20,13c2.6,2.6,6,6.3,4.9,10.3c-1.4,4.8-6.3,6.9-10.6,8.5c-12.2,3.9-26,4.8-38.7,6
			c-9.3,0.5-18.5,1.4-27.9,1.5c-7.2,0.9-14.5,0.5-21.8,1.2c-40.1,2.7-80,8.6-119.2,17.2c-28.8,6.4-57.2,14.5-85,24.6
			c-54,19.7-103.4,44.6-158.6,61.6c-31.2,9.9-63.1,17.4-95.5,21.9c-16.9,2.2-34,4.2-51,4.4c-7.2,0.8-13.8,0.7-21,0
			c-12.2-0.1-24.3-1.4-36.2-3.7c-20.5-3.8-41.5-11.1-58.3-23.7c-11.7-8.9-21.2-20.2-25.5-34.5c-2.2-6.7-1.9-13.1-1.7-20.1
			c0.6-11.5,6.4-22.3,14.2-30.5c4.7-4.7,9.2-9.5,14.5-13.5c16.8-13.3,35.2-23.5,54.5-32.7c20.9-9.8,42.2-18.5,64.2-25.6
			c7.7-2.5,15.6-5,23.5-6.7c0.4,6.1-0.1,12-0.7,18c-0.1,9.8-1.2,19.5-2.3,29.3c-4.6,2.5-9.5,4.8-13.1,8.8c-4,4.6-6.4,10.7-5,16.8
			c1.2,5.3,3.9,10.4,7.8,14.2c5.2,5.1,12.3,8.4,19.1,10.9c17.3,6.3,36.7,8.7,55,10c9.3,1,18.7,0.6,28,1.3c9.4,0.8,18.6,0,28-0.4
			c5.8-0.4,11.4,0,17.1-0.6c6.3-0.7,12.6-0.6,18.8-1.4c51.9-4.2,102.9-14.5,151.8-32.4c15.8-5.9,31.3-12.6,46.3-20.5
			c10.7-5.7,21.9-11.9,30.9-20.1c4.5-4.4,9.2-10.3,8.8-17c0.3-5.3-2.3-10.1-6.3-13.5c-2.6-2.2-5.7-3-8.4-4.7c-1.2-2-1.4-4.6-1.9-6.9
			C678,408.3,675.8,401.8,674.3,395.2z"/>
	</g>
	<g>
		<path id="p12_00000029764102179677516230000003088114278014116250_" class="st14" d="M681.7,426c0.9,0.5,1.9,1,2.8,1.6
			c4.5,2.6,7.7,7.2,8.1,12.4c-0.4,5.4-4.2,10.2-7.9,13.8c-8.2,8-17.6,12.9-27.5,18.4c-35.8,19.4-75.9,32.5-115.5,41.5
			c-33.8,7.6-68.1,12-102.7,14.1c-7-0.1-14,1-21,1c-10.7,0-21.3,0.1-32,0c-22.5-1.2-44.1-2.6-66-8.7c-8.3-2.4-17.2-5.7-23.9-11.1
			c-5.7-4.9-10-13.2-7.9-20.9c2-6.1,7.3-10.1,12.8-12.8c-0.9,4.6-2.4,8.4,0,12.8c3.5,7.7,10.5,10.3,17.8,13.3
			c21.2,8,44.8,11.2,67.4,12.7c14.4,0.4,28.6,0.3,43,0.1c24.1-1.4,48.1-4.2,72-8.2c25.8-4.4,51.3-10,76.3-17.7
			c25.4-7.8,50.5-17.5,73.9-30.1c9.3-5.2,19.8-11.1,26.6-19.4c1.5-1.8,3.1-3.8,3.9-6C682,430.6,681.7,428.3,681.7,426z"/>
	</g>
	<g>
		<path id="p13_00000027575465833169069410000002760455661240435630_" class="st11" d="M877,479.1c0.7,4.2,1.7,8.3,2.6,12.4
			c3,14,4.9,28.2,5.2,42.5c0.8,6.1-0.2,12-0.3,18c-0.7,15.5-3.5,31.1-7.4,46.1c-1,3.3-2,6.6-3,9.9c-11.3,35.1-31.1,67.1-55.3,94.7
			c-21,23.3-44.9,43.9-71.3,60.8c-38.5,25.1-81.6,42.7-126.5,52.5c-23.3,4.9-47.2,8-71,7.8c-45.2,0.7-90.6-9.1-131.4-28.8
			c-23-11.1-44-25.6-63.1-42.5c-13.3-12.3-26.3-25.1-38.3-38.7c20.9,19.1,44.6,34.8,71,45c16.7,6.7,35.2,10.7,52.8,14.3
			c38.1,7.7,77,11.5,115.9,11.3c53.6-0.4,107.4-9,157.1-29.7c42.6-17.8,81-45.8,108.2-83.4c25.4-35.2,40-77.2,44.9-120.2
			c2.5-23,2.2-46.4-1.6-69.2C869.5,480.9,873.2,479.9,877,479.1z"/>
	</g>
	<g>
		<path id="p14_00000036947076575731157220000012204091167800581783_" class="st11" d="M856,483.3c1,9.5,1.6,19.2,1.4,28.7
			c-0.8,35.6-8.9,71.2-24.2,103.4c-9.5,19.7-22,38-37,53.8c-3.2,3.8-6.7,7.2-10.5,10.4c-21.1,19.9-46.6,35.3-73.2,46.8
			c-32.7,14.1-68.2,22.5-103.5,26.4c-15.3,1.8-30.6,2.8-46,2.9c-14-0.1-28,0.2-42-0.7c-34.8-2.2-69.4-7.4-103.2-15.9
			c-39.1-10.1-74.1-31.9-102-60.9c-9.6-9.8-18.3-20.5-26.3-31.7c-1.9-2.3-1.1-4.7-1-7.4c0.8-7.2,1.7-14.5,2.9-21.7
			c6.1-0.7,12.2-1,18.3-1.7c44-4.5,87-14.7,128.9-28.9c6.5,3.1,13.2,5.9,19.6,9.1c1.3,6.7,2.3,12.9,6.5,18.5
			c2.2,3.1,5.2,4.9,8.6,6.4c26.9,12,53.6,24.4,80.3,36.7c3.8,1.8,8.7,3.2,11.5,6.5c2.2,2.3,3.9,4.6,6.7,6.3c3.5,2,7.4,3.3,11,5
			c12.8,5.8,25.5,11.8,38.3,17.7c3.2,1.4,5.2,4,7.6,6.5c3.1,3.4,7.6,5.5,11.8,7.2c2.1,0.9,4.2,0.9,6.4,0.8c4.9,5.4,11.8,8.4,19,8.2
			c9.1-0.6,17-4.8,24-10.4c7.3-6.1,13.6-13.3,18.9-21.2c8.9-13,15.7-27.6,20.6-42.6c4,6.5,10.2,9.7,17.2,12c4.8,1.4,9.4,4.5,14.4,3
			c10.5,0.8,18.7-4.4,26.3-10.9c13-11.5,22.2-27.6,28.4-43.7c7-18.7,11.1-40.3,7.3-60.2c-2-9.3-5.2-18.6-13.9-23.7
			c-0.3-0.8-0.6-1.6-0.9-2.4c-5.4-2-10.8-4-16.2-5.7c-3.9-1.1-7.8-2-11.9-1.2c-2.3,0.4-4.8,1.3-7.1,1.2c-2.7-0.3-5.4-1.2-8-2
			c-10.4-3-20.9-5.6-31.3-8.6c-2.9-0.8-5.9-1.6-8.8-1.8c-3.3,0-6.7,1.4-10,1.5c-2.6-0.1-5.3-0.8-7.8-0.6c-2.7,0.2-5.3,0.9-8,1.3
			c-0.8-0.2-1.5-0.4-2.3-0.7c27.9-4.5,55.9-8.6,84.1-10.6C805.5,486.6,831.4,486.5,856,483.3z"/>
	</g>
	<g>
		<path id="p15_00000121278336692769585320000014561201667300221861_" class="st10" d="M707.2,498.4c2.5-0.2,5.3,0.5,7.8,0.6
			c3.3-0.1,6.7-1.6,10-1.5c3,0.1,6,1,8.8,1.8c10.4,3,20.9,5.6,31.3,8.6c2.6,0.7,5.3,1.7,8,2c2.4,0,4.8-0.8,7.1-1.2
			c4.1-0.8,8,0.1,11.9,1.2c5.5,1.7,10.9,3.7,16.2,5.7c0.3,0.8,0.6,1.6,0.9,2.4c-3.3-1.4-6.7-2.2-10.3-1.6
			c-6.8,0.9-12.7,4.5-17.9,8.8c-7.9,6.8-14.4,15.3-19.7,24.3c-10.2,17.6-16.8,37.5-18.9,57.8c-0.3,11.5-1.1,22,2.9,33
			c2.6,7.7,7.8,13.7,15.7,16.1c-4.9,1.5-9.6-1.7-14.4-3c-7-2.3-13.2-5.5-17.2-12c0.5-1.7,1.1-3.4,1.6-5.1c1.5,2.7,2.9,5.3,5.2,7.5
			c3.1,2.9,7,3.8,10.9,5.2c-3.6-6.2-5.7-12.7-6.6-19.8c-0.5-6-1.5-11.8-0.5-17.9c0.8-13.8,4.1-27.2,8.7-40.2
			c5-13,11.3-25.2,19.9-36.2c7-8.5,14.8-15.9,25.4-19.8c-6-2.3-11.4-4.2-17.7-1.6c-13,5.6-23,18-30.2,29.9c-5,8.3-9,17.4-12.2,26.5
			c-0.8-2.3-1.6-4.5-2.5-6.7c7.8-19.3,18.4-38.1,35.9-50.2c-13-3.5-25.9-7.1-38.8-10.6c-3.1-0.8-6.4-1.4-9.2,0.5
			c-4.4,3-8.8,5.4-12.5,9.1c-8.5,8.2-14.1,17.9-19.4,28.4c6.5,1.1,12.3,3.8,18.6,5.7c-4.9,0.5-8.6,2.6-13.3,0
			c-5.1-1.3-11-1.3-15.8,1.1c-5.6,2.7-10.8,6.3-15.3,10.7c-11.6,11-20.4,25.6-26.9,40.1c-8.7,19.8-14.3,41.4-14.2,63.1
			c0.3,11.7,2.1,24.4,9.3,34c3.4,4.4,8,6.2,13.1,7.8c1.3,1.5,2.5,3,3.8,4.5c-2.2,0.1-4.3,0.1-6.4-0.8c-4.2-1.8-8.7-3.9-11.8-7.2
			c-2.4-2.5-4.4-5-7.6-6.5c-12.8-5.9-25.5-11.9-38.3-17.7c-3.6-1.7-7.6-3-11-5c-2.8-1.7-4.5-4-6.7-6.3c-2.8-3.2-7.7-4.6-11.5-6.5
			c-26.7-12.3-53.4-24.7-80.3-36.7c-3.4-1.5-6.4-3.4-8.6-6.4c-4.2-5.6-5.2-11.8-6.5-18.5c-6.5-3.2-13.1-6-19.6-9.1
			c2.2-0.7,5.1-2,7.4-1.2c4,1.5,7.9,3.5,11.8,5.3c0.2-3.7,0.4-7.4,0.6-11.1c1.5-0.5,2.9-1,4.4-1.5c-0.5,10.3-1.2,20.2,3.2,29.8
			c1.7,3.6,4,6.6,7.8,8.2c29.5,13.3,58.8,26.9,88.2,40.2c-0.3-1.8-0.7-3.6-1.1-5.4c-1.5-5.9-2-12-2.3-18c0.4-14,2.8-27.8,7.2-41.1
			c4.9-15.1,12.1-29.7,22-42.1c4.6-5.8,10-10.8,16-15c-6.4-2.1-13.2-3.2-19.5-5.5c2.5-0.9,5.1-1.8,7.6-2.7c4.1,1.7,8.6,2.7,13,3.8
			c4.1,1.2,7-0.9,11-1.4c5.2-0.9,9.8,0.9,14.8,2.2c8.1,2.3,16.3,4.4,24.4,6.7c5.6,1.5,11.2,3.1,16.8,4.5c3.8,1,6.8-0.5,10.5-1.3
			c7-15,15.1-28.6,28.8-38.4c-1.2-0.1-2.3-0.3-3.5-0.4l-0.6-0.5c-2.7-0.6-5.3-1.3-8-2.1C701.8,499.4,704.5,498.6,707.2,498.4z
			 M579.1,668.9c14,6,27.8,12.6,41.6,19c-2.6-7.4-4.2-15-4.4-22.9c-0.2-6.4,0.1-12.8,0.3-19.2l0.6-0.7c0.1-2.1,0.3-4.3,0.4-6.4
			l0.5-0.6c0.7-5.6,2-11.2,3.5-16.6c4.9-17.9,12.6-35.4,23.2-50.7c6.5-9.3,13.7-17.7,23.4-23.8c0.1-0.3,0.2-0.7,0.3-1
			c-14.2-3.6-28.4-7.6-42.5-11.5c-4.3-1.4-8.4-1.5-12.8-0.6c-2.9,2.4-6.2,4.2-9.3,6.3c-7.8,5.6-14.1,13.7-19.3,21.6
			c-11.7,18.4-18.9,39.6-21.2,61.2c-0.4,8.8-0.8,18.4,1.5,26.9c1,4.2,3,8.3,4.6,12.3C571.5,665.9,575.6,667.4,579.1,668.9z"/>
	</g>
	<g>
		<path id="p16_00000046311526217827833810000016779342112189175703_" d="M719.5,502.8c2.8-1.9,6.1-1.3,9.2-0.5
			c12.9,3.5,25.9,7.1,38.8,10.6c-17.5,12.1-28.1,30.9-35.9,50.2c0.8,2.2,1.7,4.5,2.5,6.7c3.1-9.2,7.1-18.2,12.2-26.5
			c7.1-11.8,17.2-24.3,30.2-29.9c6.3-2.6,11.8-0.8,17.7,1.6c-10.6,3.8-18.3,11.2-25.4,19.8c-8.7,11-14.9,23.2-19.9,36.2
			c-4.7,13-7.9,26.4-8.7,40.2c-0.9,6.1,0,11.9,0.5,17.9c0.9,7.2,3,13.6,6.6,19.8c-3.9-1.4-7.8-2.3-10.9-5.2
			c-2.4-2.1-3.7-4.7-5.2-7.5c-0.5,1.7-1,3.4-1.6,5.1c-4.9,15-11.7,29.6-20.6,42.6c-5.3,7.9-11.6,15.1-18.9,21.2
			c-7,5.7-14.8,9.9-24,10.4c-7.2,0.2-14.2-2.8-19-8.2c-1.3-1.5-2.6-3-3.8-4.5c-5.1-1.6-9.7-3.4-13.1-7.8c-7.2-9.6-9-22.3-9.3-34
			c-0.1-21.7,5.5-43.3,14.2-63.1c6.5-14.5,15.3-29,26.9-40.1c4.5-4.4,9.6-8,15.3-10.7c4.8-2.4,10.7-2.4,15.8-1.1
			c4.8,2.5,8.4,0.5,13.3,0c-6.2-1.8-12.1-4.5-18.6-5.7c5.2-10.5,10.8-20.2,19.4-28.4C710.7,508.2,715.1,505.8,719.5,502.8z
			 M648.7,618.9c-0.1,0.8-0.3,1.5-0.4,2.3l-0.5,0.6c-4.4,14.8-7.3,29.7-7,45.2c0.6,10.6,2,21,8,30.1c2.8,4.4,6.9,7.8,11.9,9.2
			c6.2,1,12.6,0.7,18.2-2.2c11.4-5.4,20.6-16.1,27.5-26.4c13.5-20.6,22.3-45.2,24.8-69.7c0.5-11.4,0.8-22.2-2.7-33.1
			c-2.3-7.2-6.5-14.4-13.4-18.1c-4.6-2.6-10-3.2-15-1.7c-9.5,2.4-17.6,8.9-24.2,15.9C663.2,584.9,655.2,601.2,648.7,618.9z"/>
	</g>
	<g>
		<path id="p17_00000162341221683008645630000005961901357394694538_" d="M799,516.3c3.6-0.6,7,0.3,10.3,1.6
			c8.7,5.1,11.9,14.4,13.9,23.7c3.7,19.9-0.3,41.4-7.3,60.2c-6.2,16-15.4,32.1-28.4,43.7c-7.6,6.5-15.8,11.8-26.3,10.9
			c-7.9-2.5-13.1-8.4-15.7-16.1c-4-11-3.2-21.6-2.9-33c2.1-20.3,8.7-40.1,18.9-57.8c5.3-9,11.8-17.5,19.7-24.3
			C786.2,520.8,792.2,517.2,799,516.3z M748.3,601.8c-1.4,11.1-1.6,23.6,2.5,34.2c0.9,2.1,2.1,5.2,4.6,5.8c4.6,1,9.8,0,13.5-2.9
			c4.3-3.2,8.7-6.7,12-10.9c3.3-4.4,5.6-9.7,7.8-14.7c6.7-16,12.1-32,14-49.3c1.2-9.7,1.5-20.7-1.6-30.1c-1.4-4.1-3.8-7.6-8.3-8.5
			c-3.4,1-6.5,3.2-9.2,5.3c-7.6,6.2-13.5,14-18.5,22.4C756.4,567.9,750.6,584.8,748.3,601.8z"/>
	</g>
	<g>
		<path id="p18_00000119102026219396440200000012542922032814178732_" class="st15" d="M792.9,525.5c4.5,0.9,6.9,4.4,8.3,8.5
			c3.1,9.4,2.8,20.3,1.6,30.1c-1.9,17.3-7.4,33.3-14,49.3c-2.2,5-4.5,10.3-7.8,14.7c-3.3,4.2-7.8,7.7-12,10.9
			c-3.8,2.9-9,3.9-13.5,2.9c-2.5-0.6-3.7-3.7-4.6-5.8c-4.2-10.5-4-23.1-2.5-34.2c2.4-17,8.1-33.9,16.9-48.7
			c5-8.4,10.9-16.2,18.5-22.4C786.5,528.7,789.6,526.5,792.9,525.5z"/>
	</g>
	<g>
		<path id="p19_00000140735790813415147360000000566312700826197414_" d="M613.3,533.8c4.4-0.9,8.5-0.8,12.8,0.6
			c14.1,3.9,28.3,7.8,42.5,11.5c-0.1,0.3-0.2,0.7-0.3,1c-9.6,6.2-16.9,14.6-23.4,23.8c-10.6,15.3-18.3,32.8-23.2,50.7
			c-1.5,5.5-2.8,11-3.5,16.6l-0.5,0.6c-0.1,2.1-0.3,4.3-0.4,6.4l-0.6,0.7c-0.2,6.4-0.6,12.8-0.3,19.2c0.1,7.9,1.8,15.5,4.4,22.9
			c-13.9-6.4-27.6-13-41.6-19c-3.5-1.5-7.6-3-9.4-6.7c-1.7-4-3.6-8.1-4.6-12.3c-2.3-8.5-1.9-18.1-1.5-26.9
			c2.3-21.6,9.5-42.8,21.2-61.2c5.2-8,11.5-16,19.3-21.6C607.1,538,610.4,536.2,613.3,533.8z"/>
	</g>
	<g>
		<path id="p20_00000029022322344263930440000006613737949369915547_" class="st10" d="M700.1,555.1c5.1-1.4,10.5-0.9,15,1.7
			c6.9,3.7,11.1,10.8,13.4,18.1c3.5,11,3.2,21.8,2.7,33.1c-2.5,24.5-11.3,49.1-24.8,69.7c-6.9,10.3-16.2,21-27.5,26.4
			c-5.7,2.9-12,3.3-18.2,2.2c-5-1.5-9.1-4.8-11.9-9.2c-6-9-7.4-19.5-8-30.1c-0.4-15.5,2.6-30.4,7-45.2l0.5-0.6
			c0.2-0.8,0.3-1.5,0.4-2.3c6.4-17.6,14.4-34,27.2-47.9C682.5,564,690.6,557.5,700.1,555.1z M705.5,559c4.6,7.9,6.7,16.9,7.2,26
			c1.2,22-4.3,44.6-13,64.6c-6.2,13.8-13.9,26.6-24.7,37.4c-5.4,5.1-11.4,9.3-18.2,12.2c4.8,3.3,9.2,4.5,15,3.1
			c8.6-2.4,16.3-8.9,22.2-15.4c9.5-10.7,16.8-23.5,22.2-36.7c6-14.7,10-30.3,11.2-46.2c0.5-11.9-0.2-25.3-6.5-35.8
			C717.3,562.6,712.3,559,705.5,559z M652.9,695.4l2.1-0.3c10.9-4.2,19.7-13.4,26.6-22.6c11.9-16.2,19.8-35.7,24.1-55.3
			c2.9-13.3,4.2-27.8,1.6-41.2c-1-5.7-3.4-10.7-5.5-16c-2.1-0.2-3.8,0.1-5.7,1c-8.3,3.9-15.5,10.8-21.2,17.9
			c-13.5,16.8-22.3,37.8-26.9,58.7c-2.9,13.7-4.3,27.6-1.7,41.5C647.5,684.9,649.4,690.5,652.9,695.4z"/>
	</g>
	<g>
		<path id="p21_00000161625667810215065090000018151448225741970055_" d="M705.5,559c6.8,0,11.9,3.6,15.3,9.3
			c6.3,10.5,7,23.9,6.5,35.8c-1.1,15.8-5.2,31.5-11.2,46.2c-5.4,13.2-12.7,26-22.2,36.7c-5.9,6.5-13.6,13-22.2,15.4
			c-5.9,1.4-10.2,0.2-15-3.1c6.9-2.8,12.9-7.1,18.2-12.2c10.7-10.8,18.5-23.5,24.7-37.4c8.7-20,14.3-42.7,13-64.6
			C712.2,575.9,710.1,566.9,705.5,559z"/>
	</g>
	<g>
		<path id="p22_00000077305859925738480000000009421923324491936166_" class="st16" d="M701.7,559.9c-1.7,1.3-3.6,2.4-5.5,3.3
			c-6,2.7-11.3,7.4-15.7,12.2c-9.2,10-16.2,22.1-21.5,34.6c-7.8,18.6-12.8,39.6-11.6,60c0.5,8.9,2.6,17.6,7.7,25.1l-2.1,0.3
			c-3.5-4.9-5.4-10.5-6.6-16.4c-2.6-13.8-1.2-27.8,1.7-41.5c4.6-20.9,13.4-41.9,26.9-58.7c5.7-7.1,12.9-14,21.2-17.9
			C698,560,699.6,559.8,701.7,559.9z"/>
	</g>
	<g>
		<path id="p23_00000017478605682877027340000007462638647658022572_" class="st15" d="M701.7,559.9c2.1,5.3,4.5,10.3,5.5,16
			c2.6,13.4,1.3,27.9-1.6,41.2c-4.3,19.6-12.2,39.1-24.1,55.3c-6.9,9.2-15.7,18.4-26.6,22.6c-5-7.5-7.2-16.2-7.7-25.1
			c-1.2-20.3,3.8-41.3,11.6-60c5.3-12.5,12.4-24.6,21.5-34.6c4.5-4.8,9.7-9.5,15.7-12.2C698.2,562.3,700,561.3,701.7,559.9z"/>
	</g>
	<g>
		<path id="p24_00000083798134916283971350000005573232790968138407_" class="st11" d="M271.9,618.4c1-0.2,2-0.3,3-0.5
			c2.5-0.2,5-0.2,7.6-0.2c-1,4.7-1.8,9.4-2.5,14.2C277.1,627.5,274.5,622.9,271.9,618.4z"/>
	</g>
</g>
</svg>
