<?xml version="1.0" encoding="utf-8"?>
<!-- Generator: Adobe Illustrator 27.3.1, SVG Export Plug-In . SVG Version: 6.00 Build 0)  -->
<svg version="1.1" id="Layer_1" xmlns="http://www.w3.org/2000/svg" xmlns:xlink="http://www.w3.org/1999/xlink" x="0px" y="0px"
	 viewBox="0 0 271 273" style="enable-background:new 0 0 271 273;" xml:space="preserve">
<style type="text/css">
	.st0{stroke:#B2CA46;stroke-width:10;}
	.st1{stroke:#FFFFFF;stroke-width:10;}
	.st2{stroke:#195E9A;stroke-width:10;}
	.st3{stroke:#457DBF;stroke-width:10;}
	.st4{stroke:#000000;stroke-width:10;}
	.st5{stroke:#F9ECDF;stroke-width:10;}
	.st6{stroke:#9A6833;stroke-width:10;}
	.st7{stroke:#81503C;stroke-width:10;}
	.st8{stroke:#0B0B0B;stroke-width:10;}
	.st9{stroke:#090909;stroke-width:10;}
	.st10{stroke:#C3BDB7;stroke-width:10;}
	.st11{stroke:#7E613F;stroke-width:10;}
	.st12{stroke:#CC2229;stroke-width:10;}
	.st13{stroke:#CEC5BD;stroke-width:10;}
	.st14{stroke:#8EA1D1;stroke-width:10;}
	.st15{fill:#B2CA46;}
	.st16{fill:#FFFFFF;}
	.st17{fill:#195E9A;}
	.st18{fill:#457DBF;}
	.st19{fill:#F9ECDF;}
	.st20{fill:#9A6833;}
	.st21{fill:#81503C;}
	.st22{fill:#0B0B0B;}
	.st23{fill:#090909;}
	.st24{fill:#C3BDB7;}
	.st25{fill:#7E613F;}
	.st26{fill:#CC2229;}
	.st27{fill:#CEC5BD;}
	.st28{fill:#8EA1D1;}
</style>
<g>
	<g>
		<path id="p1" class="st0" d="M170.8,10.4c22.8,6.2,43.6,18.8,59.9,35.8c19,19.8,31.6,45.5,35.1,72.8c2.9,21.9,0.3,44.6-7.5,65.3
			c-9.5,25.1-26.9,47-49.3,61.7c-20.4,13.6-44.5,20.9-69,21.6c-30.8,1.1-61.8-8.5-86-27.6c-21.4-16.6-37.1-40.2-44.5-66.2
			c-6.4-22.5-7-46.9-1.2-69.6c5.9-23.5,18.6-45.1,36.1-61.9c15.9-15.2,35.5-26.5,56.8-32.1C123.8,4.1,148.3,4.2,170.8,10.4z
			 M239.5,133c-0.6-19.4-7-38.5-18-54.5c-11.2-16.5-27.2-29.6-45.6-37.3c-20.1-8.5-42.7-10.5-63.9-5.4C91,40.7,71.6,52.3,57.5,68.5
			c-13.6,15.4-22.4,34.7-25,55.1c-2.5,18.3,0.2,37.4,7.5,54.4c8.4,19.6,23.1,36.6,41.3,47.7c18.2,11.4,40.2,16.7,61.7,15.1
			c17.7-1.3,35-7.1,49.8-17c17.1-11.2,30.7-27.6,38.6-46.4C237.3,163.5,240.2,148.1,239.5,133z"/>
	</g>
	<g>
		<path id="p2" class="st1" d="M175.9,41.2c18.4,7.7,34.4,20.9,45.6,37.3c11,15.9,17.4,35.1,18,54.5c0.7,15.1-2.2,30.5-8.1,44.4
			c-8,18.8-21.5,35.2-38.6,46.4c-14.8,9.8-32.1,15.7-49.8,17c-21.4,1.6-43.4-3.8-61.7-15.1c-18.2-11.1-32.9-28.1-41.3-47.7
			c-7.3-17-10-36-7.5-54.4c2.7-20.4,11.4-39.7,25-55.1C71.6,52.3,91,40.7,111.9,35.8C133.1,30.7,155.8,32.7,175.9,41.2z M84.7,47.9
			c7.4,1.7,14.1,4.8,18.7,11.1c6.8-1.8,13.5-3.1,20.6-1.7c8.7,1.6,16.5,6.8,21.9,13.8c1.4,1.7,2.6,3.5,3.9,5.3
			c-3.9,1.8-6.5,3.6-7.3,8.2c2.3-1.3,4-3.3,6.2-4.8c7.2-5.2,16.4-7.5,25.2-5.3c10.1,2.3,19.4,12.9,17.8,23.6
			c-0.8,7.9-5.6,14.5-11.3,19.7c-2.4-2.4-4.7-5.4-8.3-6.1c-1.9-0.4-5,2.8-3.1,4.5c2.1,2.5,6,4.6,9.2,4.7c5.1,0.6,10.1,1.7,15,3.2
			c-9.3,0-18.7,0.1-28,0c-3.1-2.6-5.3-5.8-5.2-10c0.7-5.5,5.4-10.3,11-10.5c3.3-0.2,6,1,8.9,2.5c2.4-3.8,4.6-8.4,3.3-13
			c-0.9-3.9-4.7-7.1-7.9-9.3c-4.8-2.3-10.5-2.6-15.4-0.7c-5.3,2-9.6,5.6-13.2,9.8c-2.8,3-4.6,7-6.9,10.4c-2.3-6.2-5.5-11.4-5.3-18.2
			c-0.2-4,1.4-7.3,3.4-10.6c-3.9-4-8.2-7.3-13.7-8.7c-6.5-1.5-13.4-0.8-19.6,1.9c-2.4,1.3-5.2-0.7-6.9-2.4
			C93.2,57.4,82.4,55,74.1,55C58.9,66.5,46.9,82.1,40,100c-10.6,26.9-9,58.1,4.3,83.7c0.7,1.7,2.6,2.1,4.1,2.9
			c8.3,4,16.4,8.6,25,12.1c0.5-3.3,0.4-6.7,3.2-9.1c3.3-2.8,8.2-3.9,12.4-3.8c5.1-0.2,10.2,1.1,14.7,3.5c6.4,3.4,12.5,7.5,18.3,11.8
			c5.7-1.3,10.5-4.8,16.2-5.8c5.3-1.1,10.9-1.1,16.2-1.5c1,0.2,2,0.2,3.1,0.2c4,0,7.9,0.1,11.9-0.3l1.9,1l0.2-1.2
			c0.4,0.3,0.8,0.7,1.1,1c3.4-0.3,6.7-0.6,10.1-0.5c4.6,0,9.1,0.4,13.7,0.4c3.5,0.2,7.1,0.3,10.6,0.5c-1.7-1.7-3.4-3.4-5.3-4.9
			c2.2-1.8,4.4-3.6,6.5-5.5c3.8,3.7,7.6,7.6,11.7,10.7c10.2-14.6,16.4-32,17.9-49.7c1.4-15.7-1.1-31.8-6.9-46.4
			c-6.6-16.7-17.7-31.2-31.6-42.4C184.1,44.6,165.4,36.9,146,35C124.8,32.6,103.3,37.5,84.7,47.9z M90.3,213.4
			c-11.6-3.7-23.3-7.9-34.1-13.6c-0.7-0.3-1.5-0.6-2.3-0.9c11.1,14.8,26.9,26.2,43.9,33.3c9.1,3.9,18.4,5.3,28.2,6.6
			c6.6,0.6,13.4,0.6,20,0.2c25.8-2.9,50-16.2,66.9-35.8c-13.4-0.3-26.5-1.5-39.9-0.8c-7.7-0.4-15.3-0.2-23-0.2
			c-4.3,0.2-8.8,0.5-12.9,1.8c-5.6,2.2-10.9,5.3-17.2,5.5c-7.6-4.8-15.3-11.3-23.9-14.6c-4.2-1.3-9.5-1.5-13.6,0.5
			c-0.6,1.1-0.8,2.3-0.5,3.5C84.5,203.8,88.3,208.3,90.3,213.4z"/>
	</g>
	<g>
		<path id="p3" class="st2" d="M146,35c19.4,1.9,38.1,9.6,53.3,21.7c13.9,11.2,25,25.7,31.6,42.4c5.8,14.6,8.3,30.8,6.9,46.4
			c-1.4,17.7-7.6,35.1-17.9,49.7c-4.2-3.2-7.9-7.1-11.7-10.7c7-6.1,14.2-10.8,19.6-18.6c3.3-4.8,6.1-11.1,3.1-16.8
			c-1.4-1.8-3.3-4.1-5.7-4c-0.7,4.4,0,8.3-1.8,12.1c-1.7,3.9-4.5,6.8-7.7,9.5c-4.7,3.8-9.3,7.7-13.9,11.5
			c-6.1-6.3-12.4-12.2-18.2-18.7c-2.1-2-2.3-5.8-2.8-8.5c-0.3-3.3,4.8-3.1,6.7-2.3c4.7,2.5,6,7.5,6.9,12.4
			c5.5-1.9,12.4-3.7,15.9-8.7c2.9-4.3,1.6-8.9-0.4-13.2c-1.6-2.9-2.2-5.7-4.5-7.9c10.7-1.7,21.3-3.4,32-5.1L237,124
			c-14.6,0-29.2,0-43.8,0c-4.9-1.5-9.9-2.6-15-3.2c-3.3-0.1-7.2-2.2-9.2-4.7c-1.9-1.7,1.2-4.9,3.1-4.5c3.6,0.7,5.9,3.7,8.3,6.1
			c5.7-5.2,10.5-11.8,11.3-19.7c1.6-10.8-7.7-21.3-17.8-23.6c-8.7-2.2-17.9,0.1-25.2,5.3c-2.2,1.5-3.9,3.5-6.2,4.8
			c0.8-4.5,3.3-6.4,7.3-8.2c-1.3-1.8-2.5-3.5-3.9-5.3c-5.3-7-13.1-12.2-21.9-13.8c-7.1-1.4-13.8-0.1-20.6,1.7
			c-4.5-6.3-11.3-9.4-18.7-11.1C103.3,37.5,124.8,32.6,146,35z"/>
	</g>
	<g>
		<path id="p4" class="st3" d="M74.1,55c8.3,0.1,19.2,2.5,23.7,10.3c1.7,1.6,4.5,3.7,6.9,2.4c6.1-2.7,13-3.4,19.6-1.9
			c5.5,1.4,9.9,4.6,13.7,8.7c-2.1,3.3-3.6,6.6-3.4,10.6c-0.3,6.8,3,12,5.3,18.2c2.3-3.5,4.2-7.4,6.9-10.4c3.7-4.2,8-7.8,13.2-9.8
			c4.9-1.9,10.7-1.6,15.4,0.7c3.2,2.2,6.9,5.4,7.9,9.3c1.3,4.6-0.9,9.2-3.3,13c-2.9-1.5-5.6-2.7-8.9-2.5c-5.6,0.2-10.3,5.1-11,10.5
			c-0.1,4.2,2.1,7.3,5.2,10c-7-0.6-14.1-0.2-21.2-0.3c-3.5-0.2-6.3,0.7-9.4-1.2c-3.1-1.6-5.8-3.5-8.6-5.5c-5.5-3.2-11-6.7-17-9
			c-4-0.1-7.8-1-11.8-1.2c-3.6-2-6.2-2.5-10.2-0.9c0-2.1,0.3-3.9,1.1-5.9c-2.3-4.4-2-9.2-4.4-13.7c-1.4-2.3,0.2-4.2-1.9-6.2
			c-2.6-1.1-5.9-2.8-8.7-2.1c-4,1.3-7.8,3.4-11.3,5.7c-4,3.3-3.5,9-2.1,13.5c1.2,4.7,5.9,8.1,9.4,11c-0.1,2-0.5,3.7-1.4,5.4
			c-1.6,1.4-3.5,2.3-4.9,4c-4.2,5.3-5.2,11.8-4.9,18.3c-0.3,3.4,2.6,6.2,4.4,8.7c3.4,3.8,7.1,7.8,11.5,10.5
			c3.6,2.4,7.2,4.9,10.6,7.4c2.7,2,4.6,4.2,7.6,5.6c1.6,0.6,4.2-0.8,5.5,0.1c1.1,4.3,3.5,8.5,6.4,11.8c3.3,3.2,6.8,5.7,10.6,8.5
			c3.5,0.9,7.1,0.2,10.6,1.3c6.2,0.2,12.4,0,18.6,0.6c4.3,1.2,7.6-0.6,10.9,3.2c-5.3,0.4-10.9,0.4-16.2,1.5
			c-5.7,1-10.5,4.5-16.2,5.8c-5.9-4.3-11.9-8.4-18.3-11.8c-4.5-2.4-9.6-3.7-14.7-3.5c-4.2-0.1-9.1,1-12.4,3.8
			c-2.7,2.4-2.7,5.7-3.2,9.1c-8.6-3.4-16.7-8.1-25-12.1c-1.5-0.9-3.4-1.2-4.1-2.9C30.9,158.1,29.4,126.8,40,100
			C46.9,82.1,58.9,66.5,74.1,55z"/>
	</g>
	<g>
		<path id="p5" class="st4" d="M73.1,78.1c2.8-0.7,6.2,1,8.7,2.1c2.2,1.9,0.5,3.9,1.9,6.2c2.3,4.4,2.1,9.2,4.4,13.7
			c-0.7,2-1.1,3.8-1.1,5.9c4-1.6,6.5-1.1,10.2,0.9c4,0.2,7.8,1.1,11.8,1.2c5.9,2.2,11.5,5.8,17,9c2.8,1.9,5.5,3.9,8.6,5.5
			c-0.6,0.3-1.1,0.5-1.6,0.9c-2.2-0.8-3.9-2.2-5.8-3.5c-5.1-3.3-10.4-6.2-15.7-9.1c-4.3-1.8-8.6-1.4-13-1.9
			c2.9,3.5,4.4,9.5,9.1,10.8c3.6,1.6,6.8,3.4,10.8,4c-2.4-0.2-4.9-0.2-7.3-0.6c-1.9-0.7-3.5-1.9-5.5-2.3c0.2,1.6,2.2,3.6,1.2,5
			c-2.5-4.5-5.5-8.7-8.1-13.1c-1.1-1.8-2.1-4-3.7-5.3c-2.7-0.8-4.2-0.8-6.9,0c0.5,1.9,2.1,3.4,2.7,5.3c1.5,3.3,2.7,7.2,0.6,10.5
			c-2.1,3.5-6.2,4-9.8,2.6c-4.3-2-8.6-3.9-12.7-6.2c-1.4-0.7-1.8-1.8-2.3-3.2c-5,4.3-6.7,10.4-7.1,16.8c0,2.1-0.3,4.1,0.8,6
			c3,4.8,7.4,8.8,11.4,12.7c6.3,4.6,12.7,8.3,18.6,13.4c1.7,1.1,3.5,2.9,5.4,1.3c1.7-1,1.3-3.5,1.6-5.2c1.3-1.3,3.2-2.5,4-4.1
			c1.3,0.3,2.3-1.1,3.3-1.8c4.6-3.6,10-6.6,14.1-10.9c1.3-1.3,0.6-2.4-0.6-3.4c-3.8,3.4-7.7,6.9-11.2,10.6c-1.7,1.8-4.4,3.2-5.6,5.4
			c-2.6,0.7-5.6,3.5-9,3c-5.9-1.8-11.7-3.5-16.4-7.6c-4.7-4-10.6-8.4-12.7-14.4c-0.2-1.5-0.4-3.3,0.2-4.8c1.8-2.4,5.5-3.9,8.3-2.7
			c4.6,1,8.3,4.3,11.7,7.4c2.6,2.2,3.9,5.4,6.2,7.8c2.6,0.8,5.9,0.2,8.3-1c5.7-2,10.7-7.3,15.6-10.6c-2.2-2.7-4.5-5.4-6.5-8.3
			l2.1,0.2c1.6,2.4,3.6,4.4,5.3,6.8c1.7-1.2,2.7-2.9,3-5c0.7,0.3,1.2,1,1.4,2.2c-1.3,3.1-4.5,5.2-7,7.4c-5.5,4.6-11.2,9-18.5,10.3
			c-1.8,0.5-3.4-0.1-5.1-0.7c-4.1-2.5-8.3-5-12.3-7.6c-0.3-0.9-0.1-1.5,0.6-1.6c3.1,1.5,6.1,3.7,9.1,5.4c-2.4-4.1-6.8-7.3-10.7-9.8
			c-2.4-1.6-7-2.3-9.2-0.1c-2.4,2.5,0,5.7,1.2,8.2c4.7,5,10.1,10.4,16.2,13.5c4.2,1.4,8.2,3.9,12.7,2.6c3.4-1.1,6.2-4.1,8.9-6.3
			c5.1-5.2,10.5-10.2,16-14.9c1.6-1.7,2.8-3.8,4.2-5.7c0.5,0.2,1.1,0.4,1.7,0.6c-2,3.2-4,6.1-7.1,8.3c1.3,2.4,2,4.1,0,6.4
			c1,1.8,1.6,4.1,3,5.6c6.6,2.1,11.3,6.5,17.2,9.9c5.8,3.8,12.4,6.1,18.4,9.6c2.9,1.7,4,5.5,5.6,8.3c1.4,2.5,2.1,5.2,2.9,8
			c1.7,2,3.5,3.9,5.2,5.9l-0.2,1.2l-1.9-1c-5.3-5.5-9.8-13.4-16.9-16.1c-7.6-3.7-15.5-7-23.6-9.6c-5.6,0.7-10.6,3.7-13,8.9
			c-1.6,3.2-0.7,6.4-0.8,9.9c5.1,1.5,10.8,0.8,15.9,1.7c6.3,0.2,12.6,0.2,18.9,1.2c3.1,0.1,5.4,2.3,7.5,4.4c-1,0-2.1-0.1-3.1-0.2
			c-3.3-3.9-6.6-2.1-10.9-3.2c-6.1-0.6-12.4-0.4-18.6-0.6c-3.5-1.1-7.1-0.4-10.6-1.3c-3.7-2.7-7.2-5.2-10.6-8.5
			c-2.9-3.4-5.3-7.5-6.4-11.8c-1.3-0.9-3.8,0.6-5.5-0.1c-3-1.4-4.8-3.7-7.6-5.6c-3.5-2.6-7.1-5-10.6-7.4c-4.4-2.7-8.1-6.7-11.5-10.5
			c-1.9-2.5-4.8-5.3-4.4-8.7c-0.3-6.6,0.7-13.1,4.9-18.3c1.4-1.7,3.3-2.6,4.9-4c0.9-1.8,1.3-3.5,1.4-5.4c-3.5-2.9-8.2-6.4-9.4-11
			c-1.4-4.4-1.8-10.2,2.1-13.5C65.3,81.5,69.1,79.4,73.1,78.1z M72.5,89.2c-0.8,6.1-3,12.8-1.5,18.8c-0.6,3.1-1.5,6.2-2.7,9.2
			c4.8,2.6,9.7,5.3,14.8,7.3c2.5,0.8,4.8,0,6.1-2.2c2.9-3.7-0.3-9.7-2.7-13c-1.7,2.3-5.5,3.3-8.2,2.4c-1.7-1-4-1.1-3.2-3.6
			c3.3,1.3,5.1,3.1,8.8,1c2.3-1.6,0.4-3.1,1.3-5.3c0.9-3.2,0.6-4.8-0.7-7.8c-0.4-3.4-1.4-6.4-2.7-9.5C78.8,88.3,75.8,88.3,72.5,89.2
			z M97.9,167.3l0.9-0.4c2.7-3.8,5.2-7.5,9.2-10c3.7-2.2,7.9-5,12.2-5.4c-0.7-1.5-1.4-2.9-2.3-4.3c-5.9,4.6-12.3,8.7-18,13.5
			C97.6,162.4,98.2,164.9,97.9,167.3z M99.3,169.7c1.9,4.6,4.7,9.3,8.8,12.2c1.8,1.3,3.3,3.4,5.6,3.5c-2-5,1-11.4,4.8-14.7
			c2.6-2.8,6.2-3.1,9.4-4.6c-0.1-2.2-0.2-4.3,0.6-6.4c0.3-1.4,1-2.8-0.6-3.6c-2.5-1.7-5.8-2.9-8.9-2.8
			C110.6,156.1,103.2,161.3,99.3,169.7z M130.6,158.1c-0.4,3-1.9,5.3-0.5,8.3c9.2,3.1,18.4,6.8,26.9,11.5c2.6,1.4,4.1,3.7,6.2,5.6
			c-1.4-3.4-3.2-6.6-4.9-9.9c-4.2-2.6-8.7-4.6-13.2-6.8C140.1,164.4,135.4,161,130.6,158.1z"/>
	</g>
	<g>
		<path id="p6" class="st5" d="M82,86.5c1.3,3.1,2.3,6.2,2.7,9.5c1.3,3,1.6,4.6,0.7,7.8c-0.9,2.2,1,3.8-1.3,5.3
			c-3.7,2.1-5.5,0.3-8.8-1c-0.8,2.5,1.5,2.6,3.2,3.6c2.7,0.9,6.5-0.1,8.2-2.4c2.3,3.3,5.5,9.3,2.7,13c-1.3,2.2-3.6,3.1-6.1,2.2
			c-5.1-2-10-4.7-14.8-7.3c1.2-3,2-6,2.7-9.2c-1.5-6,0.7-12.7,1.5-18.8C75.8,88.3,78.8,88.3,82,86.5z"/>
	</g>
	<g>
		<path id="p7" class="st6" d="M94.8,107.3c1.6,1.4,2.5,3.6,3.7,5.3c2.6,4.5,5.6,8.6,8.1,13.1l0.1,0.2c2.1,2.8,4.3,5.5,6.5,8.3
			c-4.8,3.3-9.8,8.5-15.6,10.6c-2.4,1.2-5.8,1.9-8.3,1c-2.3-2.4-3.6-5.6-6.2-7.8c-3.5-3.1-7.1-6.3-11.7-7.4
			c-2.9-1.2-6.5,0.3-8.3,2.7c-0.5,1.5-0.3,3.3-0.2,4.8c2.1,6,7.9,10.4,12.7,14.4c4.8,4.1,10.5,5.8,16.4,7.6c3.4,0.6,6.4-2.3,9-3
			c-0.8,1.6-2.7,2.8-4,4.1c-0.3,1.7,0.1,4.2-1.6,5.2c-2,1.6-3.8-0.1-5.4-1.3c-5.8-5.1-12.3-8.9-18.6-13.4c-4-3.9-8.5-7.9-11.4-12.7
			c-1.1-1.8-0.8-3.9-0.8-6c0.5-6.4,2.1-12.5,7.1-16.8c0.5,1.4,0.8,2.5,2.3,3.2c4.1,2.3,8.5,4.2,12.7,6.2c3.6,1.4,7.7,0.9,9.8-2.6
			c2.1-3.4,0.9-7.2-0.6-10.5c-0.6-1.9-2.2-3.4-2.7-5.3C90.6,106.5,92,106.5,94.8,107.3z M89.8,128.7c3.1,1.5,5.3,4.9,8.4,5.9
			c-1.4-3.3-2.3-7-4.2-10.1C92.4,125.8,91.1,127.1,89.8,128.7z"/>
	</g>
	<g>
		<path id="p8" class="st5" d="M98.4,108.8c4.5,0.5,8.8,0.2,13,1.9c5.3,2.9,10.7,5.8,15.7,9.1c1.9,1.3,3.6,2.7,5.8,3.5
			c-4.7,0.8-10,0.2-14.8,0.3c-3.9-0.6-7.2-2.4-10.8-4C102.8,118.3,101.3,112.3,98.4,108.8z"/>
	</g>
	<g>
		<path id="p9" class="st7" d="M105.4,120.7c2,0.4,3.6,1.7,5.5,2.3c2.4,0.4,4.9,0.3,7.3,0.6c4.8,0,10.1,0.5,14.8-0.3
			c0.5-0.3,1.1-0.6,1.6-0.9c3.1,1.9,5.9,1,9.4,1.2c7,0.1,14.1-0.3,21.2,0.3c9.3,0.1,18.7,0.1,28,0c14.6,0,29.2,0,43.8,0l0.3,2.2
			c-10.7,1.6-21.3,3.4-32,5.1c-3.8,0.6-7.7,1.2-11.5,1.8c-11.5,1.9-23.1,3.7-34.6,5.5c0.2,1.7,1.1,3.5-0.1,4.9
			c-5.6-1.2-11.2-4.5-16.9-5.8c1.5-1.7,0.9-3.5,1-5.6c4,1.5,7.9,3.2,11.9,4.9c9.8-1.3,19.7-3.1,29.5-4.6c1.5-0.2,2.9-0.5,4.4-0.9
			c5-0.3,9.8-1.4,14.7-2.1c5.7-0.9,11.3-1.8,17-2.6l0.5-0.6c-7.6-0.3-15.1-0.1-22.7-0.1c-10-0.1-20.1-0.1-30.1,0
			c-8.1-0.3-16.2-0.2-24.4-0.3c-1.2,0-2.4,0.2-3.5,0.6c-1.4-0.4-2.6-0.5-3.4-0.3c-4.7-0.5-9.4-0.2-14.1-0.1c-0.9,0-1.8,0.1-2.7,0.1
			l0,0.6c4.2,1.2,8.5,2.7,12.4,4.7l-0.7,2c-1.9-0.7-3.8-1.3-5.6-2.1c-0.6-0.2-1.1-0.4-1.7-0.6c-1.9-0.7-3.7-1.5-5.6-2.1l-0.6,1.5
			c-0.2-1.2-0.6-1.9-1.4-2.2c-2.8-1.2-5.2-2.2-8.3-1.8l-2.1-0.2l-0.1-0.2C107.6,124.2,105.6,122.3,105.4,120.7z"/>
	</g>
	<g>
		<path id="p10" class="st8" d="M94,124.5c1.8,3.1,2.8,6.8,4.2,10.1c-3.1-1-5.3-4.5-8.4-5.9C91.1,127.1,92.4,125.8,94,124.5z
			 M93,128.1v0.8h0.8l0-0.8H93z"/>
	</g>
	<g>
		<path id="p11" class="st5" d="M137,126.1c3.9,2.4,5,5,4.5,9.5c-1.3,1.8-5.1,1.6-7,0.8c-1.2-1.4-0.1-4.5-0.3-6.3
			c-3.5-1.7-7.4-3.5-11.3-4.2C127.6,125.8,132.4,125.6,137,126.1z"/>
	</g>
	<g>
		<path id="p12" class="st3" d="M108.8,126.1c3.2-0.4,5.5,0.6,8.3,1.8c-0.3,2-1.3,3.8-3,5C112.4,130.5,110.4,128.4,108.8,126.1z"/>
	</g>
	<g>
		<path id="p13" class="st9" d="M120.2,126.1c0.9-0.1,1.8-0.1,2.7-0.1c3.9,0.6,7.7,2.5,11.3,4.2c0.2,1.8-0.8,4.9,0.3,6.3
			c1.8,0.7,5.7,0.9,7-0.8c0.5-4.5-0.6-7.1-4.5-9.5c0.9-0.2,2-0.1,3.4,0.3c1.9,1.7,2.6,3.2,2.7,5.8c-0.1,2.1,0.5,3.8-1,5.6
			c-1.7,0.6-3.5,1-5.2,1.4c-1.2-0.4-2.4-0.9-3.7-1.3c-1.1-1.5-1.5-2.5-1.4-4.4l0.7-2c-3.9-2.1-8.2-3.5-12.4-4.7L120.2,126.1z"/>
	</g>
	<g>
		<path id="p14" class="st3" d="M144,125.8c8.1,0,16.2-0.1,24.4,0.3c6,3.9,13.8,2.4,20.5,5.4c-1.4,0.4-2.9,0.8-4.4,0.9
			c-9.8,1.5-19.7,3.3-29.5,4.6c-3.9-1.6-7.9-3.4-11.9-4.9c-0.1-2.5-0.8-4-2.7-5.8C141.6,126,142.8,125.8,144,125.8z"/>
	</g>
	<g>
		<path id="p15" class="st1" d="M168.4,126c10-0.1,20.1-0.1,30.1,0c1.7,1.1,3.4,2.2,5.2,3.3c-4.9,0.7-9.8,1.8-14.7,2.1
			C182.2,128.4,174.3,129.9,168.4,126z"/>
	</g>
	<g>
		<path id="p16" class="st2" d="M198.4,126.1c7.6,0,15.1-0.2,22.7,0.1l-0.5,0.6c-5.7,0.8-11.3,1.7-17,2.6
			C201.9,128.3,200.2,127.2,198.4,126.1z"/>
	</g>
	<g>
		<path id="p17" class="st10" d="M93,128.1h0.8l0,0.8H93V128.1z"/>
	</g>
	<g>
		<path id="p18" class="st5" d="M119,128.6c1.9,0.6,3.8,1.4,5.6,2.1c-1.4,1.9-2.6,4.1-4.2,5.7c-5.5,4.8-10.9,9.7-16,14.9
			c-2.7,2.2-5.5,5.2-8.9,6.3c-4.5,1.3-8.4-1.2-12.7-2.6c-6.2-3.1-11.6-8.5-16.2-13.5c-1.3-2.4-3.7-5.7-1.2-8.2
			c2.2-2.2,6.8-1.5,9.2,0.1c4,2.5,8.4,5.7,10.7,9.8c-3.1-1.6-6-3.9-9.1-5.4c-0.7,0.1-0.9,0.7-0.6,1.6c4.1,2.6,8.2,5.1,12.3,7.6
			c1.7,0.6,3.3,1.2,5.1,0.7c7.3-1.3,13-5.7,18.5-10.3c2.4-2.2,5.6-4.4,7-7.4L119,128.6z"/>
	</g>
	<g>
		<path id="p19" class="st1" d="M205.3,131.3c2.3,2.2,2.9,5,4.5,7.9c2,4.3,3.3,8.9,0.4,13.2c-3.5,5-10.4,6.8-15.9,8.7
			c-0.9-4.8-2.2-9.9-6.9-12.4c-2-0.8-7-0.9-6.7,2.3c0.5,2.7,0.7,6.5,2.8,8.5c5.8,6.6,12.1,12.5,18.2,18.7c-2.1,1.8-4.3,3.5-6.4,5.3
			c-6.4-6.2-12.7-12.7-18.5-19.3c-2.8-2.9-3-6.4-3.9-10.2c-0.8-4.3,0-8.8,3.6-11.5c5.7-4.1,14.2-3,19.1,1.9c1.8,1.8,2.9,3.9,4.3,5.9
			c1.7-0.9,4.7-2.5,3.6-4.9c-1.6-3.3-2.8-7.9-5.9-10.1c-1.2-0.9-2.5-1.6-3.8-2.3C197.7,132.5,201.5,131.9,205.3,131.3z"/>
	</g>
	<g>
		<path id="p20" class="st3" d="M126.3,131.4c1.8,0.7,3.7,1.4,5.6,2.1c-0.1,1.9,0.3,2.9,1.4,4.4c1.2,0.4,2.4,0.9,3.7,1.3
			c1.8-0.4,3.5-0.8,5.2-1.4c5.7,1.3,11.2,4.6,16.9,5.8c1.3-1.4,0.4-3.2,0.1-4.9c11.6-1.8,23.1-3.6,34.6-5.5c1.3,0.7,2.7,1.4,3.8,2.3
			c3.1,2.1,4.4,6.8,5.9,10.1c1.1,2.4-2,4-3.6,4.9c-1.4-2-2.5-4.1-4.3-5.9c-4.9-4.9-13.4-6-19.1-1.9c-3.6,2.7-4.4,7.3-3.6,11.5
			c0.9,3.8,1.1,7.2,3.9,10.2c5.9,6.7,12.2,13.1,18.5,19.3c-4.2,3.5-8.4,6.9-12.5,10.5c-3.4-0.1-6.7,0.2-10.1,0.5
			c-0.3-0.3-0.7-0.7-1.1-1c-1.7-2-3.4-3.9-5.2-5.9c-0.8-2.8-1.5-5.5-2.9-8c-1.6-2.9-2.7-6.6-5.6-8.3c-6.1-3.5-12.6-5.8-18.4-9.6
			c-5.9-3.4-10.6-7.8-17.2-9.9c-1.3-1.6-2-3.8-3-5.6c1.9-2.3,1.3-3.9,0-6.4C122.3,137.5,124.3,134.5,126.3,131.4z"/>
	</g>
	<g>
		<path id="p21" class="st11" d="M117.8,141c1.2,1,1.9,2.2,0.6,3.4c-4.1,4.2-9.5,7.2-14.1,10.9c-1,0.6-2,2.1-3.3,1.8
			c1.2-2.2,3.9-3.6,5.6-5.4C110.2,147.9,114,144.4,117.8,141z"/>
	</g>
	<g>
		<path id="p22" class="st12" d="M225.2,145.1c2.4-0.1,4.4,2.2,5.7,4c3,5.7,0.2,11.9-3.1,16.8c-5.3,7.9-12.5,12.6-19.6,18.6
			c-2.1,1.8-4.3,3.7-6.5,5.5c-1.8,1.4-3.6,2.9-5.3,4.4c-4.6,0-9.1-0.4-13.7-0.4c4.1-3.5,8.4-7,12.5-10.5c2.1-1.8,4.3-3.5,6.4-5.3
			c4.6-3.8,9.3-7.7,13.9-11.5c3.2-2.6,6.1-5.6,7.7-9.5C225.2,153.4,224.5,149.6,225.2,145.1z"/>
	</g>
	<g>
		<path id="p23" class="st13" d="M117.8,147.3c0.9,1.4,1.6,2.8,2.3,4.3c-4.3,0.4-8.5,3.1-12.2,5.4c-4,2.5-6.5,6.2-9.2,10l-0.9,0.4
			c0.3-2.4-0.3-4.9,1.9-6.5C105.5,156,111.9,151.9,117.8,147.3z"/>
	</g>
	<g>
		<path id="p24" class="st2" d="M119.1,153.2c3.1-0.1,6.4,1.2,8.9,2.8c1.6,0.8,0.9,2.2,0.6,3.6c-0.8,2.1-0.7,4.2-0.6,6.4
			c-3.2,1.5-6.8,1.8-9.4,4.6c-3.9,3.3-6.8,9.7-4.8,14.7c-2.3-0.1-3.8-2.2-5.6-3.5c-4.1-2.9-6.9-7.6-8.8-12.2
			C103.2,161.3,110.6,156.1,119.1,153.2z"/>
	</g>
	<g>
		<path id="p25" class="st5" d="M130.6,158.1c4.8,3,9.5,6.3,14.6,8.7c4.4,2.2,8.9,4.2,13.2,6.8c1.7,3.3,3.5,6.5,4.9,9.9
			c-2.2-1.9-3.6-4.2-6.2-5.6c-8.6-4.7-17.7-8.3-26.9-11.5C128.7,163.4,130.2,161.1,130.6,158.1z"/>
	</g>
	<g>
		<path id="p26" class="st5" d="M128.9,168c8,2.6,16,5.9,23.6,9.6c7.1,2.8,11.6,10.7,16.9,16.1c-4,0.4-7.9,0.3-11.9,0.3
			c-2.1-2.1-4.4-4.3-7.5-4.4c-6.3-1-12.5-1-18.9-1.2c-5.1-0.8-10.8-0.2-15.9-1.7c0-3.5-0.9-6.6,0.8-9.9
			C118.4,171.7,123.4,168.6,128.9,168z"/>
	</g>
	<g>
		<path id="p27" class="st3" d="M201.8,190c1.9,1.5,3.6,3.2,5.3,4.9c-3.6-0.2-7.1-0.2-10.6-0.5C198.2,192.9,200,191.4,201.8,190z"/>
	</g>
	<g>
		<path id="p28" class="st14" d="M96,194.9c8.6,3.3,16.3,9.8,23.9,14.6c6.2-0.1,11.6-3.2,17.2-5.5c4.1-1.3,8.6-1.7,12.9-1.8
			c7.7,0,15.4-0.1,23,0.2c13.5-0.7,26.5,0.4,39.9,0.8C196,222.9,171.8,236.1,146,239c-6.6,0.4-13.4,0.4-20-0.2
			c-9.8-1.3-19.1-2.7-28.2-6.6c-17-7.1-32.8-18.5-43.9-33.3c0.8,0.3,1.5,0.6,2.3,0.9c10.8,5.7,22.5,9.9,34.1,13.6
			c-2-5.1-5.8-9.6-8.3-14.4c-0.3-1.2-0.1-2.4,0.5-3.5C86.5,193.4,91.8,193.6,96,194.9z"/>
	</g>
</g>
<g>
	<g>
		<path id="p1_00000041995929209091927210000016107481735467256970_" class="st15" d="M170.8,10.4c22.8,6.2,43.6,18.8,59.9,35.8
			c19,19.8,31.6,45.5,35.1,72.8c2.9,21.9,0.3,44.6-7.5,65.3c-9.5,25.1-26.9,47-49.3,61.7c-20.4,13.6-44.5,20.9-69,21.6
			c-30.8,1.1-61.8-8.5-86-27.6c-21.4-16.6-37.1-40.2-44.5-66.2c-6.4-22.5-7-46.9-1.2-69.6c5.9-23.5,18.6-45.1,36.1-61.9
			c15.9-15.2,35.5-26.5,56.8-32.1C123.8,4.1,148.3,4.2,170.8,10.4z M239.5,133c-0.6-19.4-7-38.5-18-54.5
			c-11.2-16.5-27.2-29.6-45.6-37.3c-20.1-8.5-42.7-10.5-63.9-5.4C91,40.7,71.6,52.3,57.5,68.5c-13.6,15.4-22.4,34.7-25,55.1
			c-2.5,18.3,0.2,37.4,7.5,54.4c8.4,19.6,23.1,36.6,41.3,47.7c18.2,11.4,40.2,16.7,61.7,15.1c17.7-1.3,35-7.1,49.8-17
			c17.1-11.2,30.7-27.6,38.6-46.4C237.3,163.5,240.2,148.1,239.5,133z"/>
	</g>
	<g>
		<path id="p2_00000102512928693887836340000015750310995678120887_" class="st16" d="M175.9,41.2c18.4,7.7,34.4,20.9,45.6,37.3
			c11,15.9,17.4,35.1,18,54.5c0.7,15.1-2.2,30.5-8.1,44.4c-8,18.8-21.5,35.2-38.6,46.4c-14.8,9.8-32.1,15.7-49.8,17
			c-21.4,1.6-43.4-3.8-61.7-15.1c-18.2-11.1-32.9-28.1-41.3-47.7c-7.3-17-10-36-7.5-54.4c2.7-20.4,11.4-39.7,25-55.1
			C71.6,52.3,91,40.7,111.9,35.8C133.1,30.7,155.8,32.7,175.9,41.2z M84.7,47.9c7.4,1.7,14.1,4.8,18.7,11.1
			c6.8-1.8,13.5-3.1,20.6-1.7c8.7,1.6,16.5,6.8,21.9,13.8c1.4,1.7,2.6,3.5,3.9,5.3c-3.9,1.8-6.5,3.6-7.3,8.2c2.3-1.3,4-3.3,6.2-4.8
			c7.2-5.2,16.4-7.5,25.2-5.3c10.1,2.3,19.4,12.9,17.8,23.6c-0.8,7.9-5.6,14.5-11.3,19.7c-2.4-2.4-4.7-5.4-8.3-6.1
			c-1.9-0.4-5,2.8-3.1,4.5c2.1,2.5,6,4.6,9.2,4.7c5.1,0.6,10.1,1.7,15,3.2c-9.3,0-18.7,0.1-28,0c-3.1-2.6-5.3-5.8-5.2-10
			c0.7-5.5,5.4-10.3,11-10.5c3.3-0.2,6,1,8.9,2.5c2.4-3.8,4.6-8.4,3.3-13c-0.9-3.9-4.7-7.1-7.9-9.3c-4.8-2.3-10.5-2.6-15.4-0.7
			c-5.3,2-9.6,5.6-13.2,9.8c-2.8,3-4.6,7-6.9,10.4c-2.3-6.2-5.5-11.4-5.3-18.2c-0.2-4,1.4-7.3,3.4-10.6c-3.9-4-8.2-7.3-13.7-8.7
			c-6.5-1.5-13.4-0.8-19.6,1.9c-2.4,1.3-5.2-0.7-6.9-2.4C93.2,57.4,82.4,55,74.1,55C58.9,66.5,46.9,82.1,40,100
			c-10.6,26.9-9,58.1,4.3,83.7c0.7,1.7,2.6,2.1,4.1,2.9c8.3,4,16.4,8.6,25,12.1c0.5-3.3,0.4-6.7,3.2-9.1c3.3-2.8,8.2-3.9,12.4-3.8
			c5.1-0.2,10.2,1.1,14.7,3.5c6.4,3.4,12.5,7.5,18.3,11.8c5.7-1.3,10.5-4.8,16.2-5.8c5.3-1.1,10.9-1.1,16.2-1.5c1,0.2,2,0.2,3.1,0.2
			c4,0,7.9,0.1,11.9-0.3l1.9,1l0.2-1.2c0.4,0.3,0.8,0.7,1.1,1c3.4-0.3,6.7-0.6,10.1-0.5c4.6,0,9.1,0.4,13.7,0.4
			c3.5,0.2,7.1,0.3,10.6,0.5c-1.7-1.7-3.4-3.4-5.3-4.9c2.2-1.8,4.4-3.6,6.5-5.5c3.8,3.7,7.6,7.6,11.7,10.7
			c10.2-14.6,16.4-32,17.9-49.7c1.4-15.7-1.1-31.8-6.9-46.4c-6.6-16.7-17.7-31.2-31.6-42.4C184.1,44.6,165.4,36.9,146,35
			C124.8,32.6,103.3,37.5,84.7,47.9z M90.3,213.4c-11.6-3.7-23.3-7.9-34.1-13.6c-0.7-0.3-1.5-0.6-2.3-0.9
			c11.1,14.8,26.9,26.2,43.9,33.3c9.1,3.9,18.4,5.3,28.2,6.6c6.6,0.6,13.4,0.6,20,0.2c25.8-2.9,50-16.2,66.9-35.8
			c-13.4-0.3-26.5-1.5-39.9-0.8c-7.7-0.4-15.3-0.2-23-0.2c-4.3,0.2-8.8,0.5-12.9,1.8c-5.6,2.2-10.9,5.3-17.2,5.5
			c-7.6-4.8-15.3-11.3-23.9-14.6c-4.2-1.3-9.5-1.5-13.6,0.5c-0.6,1.1-0.8,2.3-0.5,3.5C84.5,203.8,88.3,208.3,90.3,213.4z"/>
	</g>
	<g>
		<path id="p3_00000106119836100703525070000014177428113111457681_" class="st17" d="M146,35c19.4,1.9,38.1,9.6,53.3,21.7
			c13.9,11.2,25,25.7,31.6,42.4c5.8,14.6,8.3,30.8,6.9,46.4c-1.4,17.7-7.6,35.1-17.9,49.7c-4.2-3.2-7.9-7.1-11.7-10.7
			c7-6.1,14.2-10.8,19.6-18.6c3.3-4.8,6.1-11.1,3.1-16.8c-1.4-1.8-3.3-4.1-5.7-4c-0.7,4.4,0,8.3-1.8,12.1c-1.7,3.9-4.5,6.8-7.7,9.5
			c-4.7,3.8-9.3,7.7-13.9,11.5c-6.1-6.3-12.4-12.2-18.2-18.7c-2.1-2-2.3-5.8-2.8-8.5c-0.3-3.3,4.8-3.1,6.7-2.3
			c4.7,2.5,6,7.5,6.9,12.4c5.5-1.9,12.4-3.7,15.9-8.7c2.9-4.3,1.6-8.9-0.4-13.2c-1.6-2.9-2.2-5.7-4.5-7.9c10.7-1.7,21.3-3.4,32-5.1
			L237,124c-14.6,0-29.2,0-43.8,0c-4.9-1.5-9.9-2.6-15-3.2c-3.3-0.1-7.2-2.2-9.2-4.7c-1.9-1.7,1.2-4.9,3.1-4.5
			c3.6,0.7,5.9,3.7,8.3,6.1c5.7-5.2,10.5-11.8,11.3-19.7c1.6-10.8-7.7-21.3-17.8-23.6c-8.7-2.2-17.9,0.1-25.2,5.3
			c-2.2,1.5-3.9,3.5-6.2,4.8c0.8-4.5,3.3-6.4,7.3-8.2c-1.3-1.8-2.5-3.5-3.9-5.3c-5.3-7-13.1-12.2-21.9-13.8
			c-7.1-1.4-13.8-0.1-20.6,1.7c-4.5-6.3-11.3-9.4-18.7-11.1C103.3,37.5,124.8,32.6,146,35z"/>
	</g>
	<g>
		<path id="p4_00000090985194492780493820000001547832440252195993_" class="st18" d="M74.1,55c8.3,0.1,19.2,2.5,23.7,10.3
			c1.7,1.6,4.5,3.7,6.9,2.4c6.1-2.7,13-3.4,19.6-1.9c5.5,1.4,9.9,4.6,13.7,8.7c-2.1,3.3-3.6,6.6-3.4,10.6c-0.3,6.8,3,12,5.3,18.2
			c2.3-3.5,4.2-7.4,6.9-10.4c3.7-4.2,8-7.8,13.2-9.8c4.9-1.9,10.7-1.6,15.4,0.7c3.2,2.2,6.9,5.4,7.9,9.3c1.3,4.6-0.9,9.2-3.3,13
			c-2.9-1.5-5.6-2.7-8.9-2.5c-5.6,0.2-10.3,5.1-11,10.5c-0.1,4.2,2.1,7.3,5.2,10c-7-0.6-14.1-0.2-21.2-0.3c-3.5-0.2-6.3,0.7-9.4-1.2
			c-3.1-1.6-5.8-3.5-8.6-5.5c-5.5-3.2-11-6.7-17-9c-4-0.1-7.8-1-11.8-1.2c-3.6-2-6.2-2.5-10.2-0.9c0-2.1,0.3-3.9,1.1-5.9
			c-2.3-4.4-2-9.2-4.4-13.7c-1.4-2.3,0.2-4.2-1.9-6.2c-2.6-1.1-5.9-2.8-8.7-2.1c-4,1.3-7.8,3.4-11.3,5.7c-4,3.3-3.5,9-2.1,13.5
			c1.2,4.7,5.9,8.1,9.4,11c-0.1,2-0.5,3.7-1.4,5.4c-1.6,1.4-3.5,2.3-4.9,4c-4.2,5.3-5.2,11.8-4.9,18.3c-0.3,3.4,2.6,6.2,4.4,8.7
			c3.4,3.8,7.1,7.8,11.5,10.5c3.6,2.4,7.2,4.9,10.6,7.4c2.7,2,4.6,4.2,7.6,5.6c1.6,0.6,4.2-0.8,5.5,0.1c1.1,4.3,3.5,8.5,6.4,11.8
			c3.3,3.2,6.8,5.7,10.6,8.5c3.5,0.9,7.1,0.2,10.6,1.3c6.2,0.2,12.4,0,18.6,0.6c4.3,1.2,7.6-0.6,10.9,3.2
			c-5.3,0.4-10.9,0.4-16.2,1.5c-5.7,1-10.5,4.5-16.2,5.8c-5.9-4.3-11.9-8.4-18.3-11.8c-4.5-2.4-9.6-3.7-14.7-3.5
			c-4.2-0.1-9.1,1-12.4,3.8c-2.7,2.4-2.7,5.7-3.2,9.1c-8.6-3.4-16.7-8.1-25-12.1c-1.5-0.9-3.4-1.2-4.1-2.9
			C30.9,158.1,29.4,126.8,40,100C46.9,82.1,58.9,66.5,74.1,55z"/>
	</g>
	<g>
		<path id="p5_00000133530077954746559520000009400508965879228547_" d="M73.1,78.1c2.8-0.7,6.2,1,8.7,2.1c2.2,1.9,0.5,3.9,1.9,6.2
			c2.3,4.4,2.1,9.2,4.4,13.7c-0.7,2-1.1,3.8-1.1,5.9c4-1.6,6.5-1.1,10.2,0.9c4,0.2,7.8,1.1,11.8,1.2c5.9,2.2,11.5,5.8,17,9
			c2.8,1.9,5.5,3.9,8.6,5.5c-0.6,0.3-1.1,0.5-1.6,0.9c-2.2-0.8-3.9-2.2-5.8-3.5c-5.1-3.3-10.4-6.2-15.7-9.1c-4.3-1.8-8.6-1.4-13-1.9
			c2.9,3.5,4.4,9.5,9.1,10.8c3.6,1.6,6.8,3.4,10.8,4c-2.4-0.2-4.9-0.2-7.3-0.6c-1.9-0.7-3.5-1.9-5.5-2.3c0.2,1.6,2.2,3.6,1.2,5
			c-2.5-4.5-5.5-8.7-8.1-13.1c-1.1-1.8-2.1-4-3.7-5.3c-2.7-0.8-4.2-0.8-6.9,0c0.5,1.9,2.1,3.4,2.7,5.3c1.5,3.3,2.7,7.2,0.6,10.5
			c-2.1,3.5-6.2,4-9.8,2.6c-4.3-2-8.6-3.9-12.7-6.2c-1.4-0.7-1.8-1.8-2.3-3.2c-5,4.3-6.7,10.4-7.1,16.8c0,2.1-0.3,4.1,0.8,6
			c3,4.8,7.4,8.8,11.4,12.7c6.3,4.6,12.7,8.3,18.6,13.4c1.7,1.1,3.5,2.9,5.4,1.3c1.7-1,1.3-3.5,1.6-5.2c1.3-1.3,3.2-2.5,4-4.1
			c1.3,0.3,2.3-1.1,3.3-1.8c4.6-3.6,10-6.6,14.1-10.9c1.3-1.3,0.6-2.4-0.6-3.4c-3.8,3.4-7.7,6.9-11.2,10.6c-1.7,1.8-4.4,3.2-5.6,5.4
			c-2.6,0.7-5.6,3.5-9,3c-5.9-1.8-11.7-3.5-16.4-7.6c-4.7-4-10.6-8.4-12.7-14.4c-0.2-1.5-0.4-3.3,0.2-4.8c1.8-2.4,5.5-3.9,8.3-2.7
			c4.6,1,8.3,4.3,11.7,7.4c2.6,2.2,3.9,5.4,6.2,7.8c2.6,0.8,5.9,0.2,8.3-1c5.7-2,10.7-7.3,15.6-10.6c-2.2-2.7-4.5-5.4-6.5-8.3
			l2.1,0.2c1.6,2.4,3.6,4.4,5.3,6.8c1.7-1.2,2.7-2.9,3-5c0.7,0.3,1.2,1,1.4,2.2c-1.3,3.1-4.5,5.2-7,7.4c-5.5,4.6-11.2,9-18.5,10.3
			c-1.8,0.5-3.4-0.1-5.1-0.7c-4.1-2.5-8.3-5-12.3-7.6c-0.3-0.9-0.1-1.5,0.6-1.6c3.1,1.5,6.1,3.7,9.1,5.4c-2.4-4.1-6.8-7.3-10.7-9.8
			c-2.4-1.6-7-2.3-9.2-0.1c-2.4,2.5,0,5.7,1.2,8.2c4.7,5,10.1,10.4,16.2,13.5c4.2,1.4,8.2,3.9,12.7,2.6c3.4-1.1,6.2-4.1,8.9-6.3
			c5.1-5.2,10.5-10.2,16-14.9c1.6-1.7,2.8-3.8,4.2-5.7c0.5,0.2,1.1,0.4,1.7,0.6c-2,3.2-4,6.1-7.1,8.3c1.3,2.4,2,4.1,0,6.4
			c1,1.8,1.6,4.1,3,5.6c6.6,2.1,11.3,6.5,17.2,9.9c5.8,3.8,12.4,6.1,18.4,9.6c2.9,1.7,4,5.5,5.6,8.3c1.4,2.5,2.1,5.2,2.9,8
			c1.7,2,3.5,3.9,5.2,5.9l-0.2,1.2l-1.9-1c-5.3-5.5-9.8-13.4-16.9-16.1c-7.6-3.7-15.5-7-23.6-9.6c-5.6,0.7-10.6,3.7-13,8.9
			c-1.6,3.2-0.7,6.4-0.8,9.9c5.1,1.5,10.8,0.8,15.9,1.7c6.3,0.2,12.6,0.2,18.9,1.2c3.1,0.1,5.4,2.3,7.5,4.4c-1,0-2.1-0.1-3.1-0.2
			c-3.3-3.9-6.6-2.1-10.9-3.2c-6.1-0.6-12.4-0.4-18.6-0.6c-3.5-1.1-7.1-0.4-10.6-1.3c-3.7-2.7-7.2-5.2-10.6-8.5
			c-2.9-3.4-5.3-7.5-6.4-11.8c-1.3-0.9-3.8,0.6-5.5-0.1c-3-1.4-4.8-3.7-7.6-5.6c-3.5-2.6-7.1-5-10.6-7.4c-4.4-2.7-8.1-6.7-11.5-10.5
			c-1.9-2.5-4.8-5.3-4.4-8.7c-0.3-6.6,0.7-13.1,4.9-18.3c1.4-1.7,3.3-2.6,4.9-4c0.9-1.8,1.3-3.5,1.4-5.4c-3.5-2.9-8.2-6.4-9.4-11
			c-1.4-4.4-1.8-10.2,2.1-13.5C65.3,81.5,69.1,79.4,73.1,78.1z M72.5,89.2c-0.8,6.1-3,12.8-1.5,18.8c-0.6,3.1-1.5,6.2-2.7,9.2
			c4.8,2.6,9.7,5.3,14.8,7.3c2.5,0.8,4.8,0,6.1-2.2c2.9-3.7-0.3-9.7-2.7-13c-1.7,2.3-5.5,3.3-8.2,2.4c-1.7-1-4-1.1-3.2-3.6
			c3.3,1.3,5.1,3.1,8.8,1c2.3-1.6,0.4-3.1,1.3-5.3c0.9-3.2,0.6-4.8-0.7-7.8c-0.4-3.4-1.4-6.4-2.7-9.5C78.8,88.3,75.8,88.3,72.5,89.2
			z M97.9,167.3l0.9-0.4c2.7-3.8,5.2-7.5,9.2-10c3.7-2.2,7.9-5,12.2-5.4c-0.7-1.5-1.4-2.9-2.3-4.3c-5.9,4.6-12.3,8.7-18,13.5
			C97.6,162.4,98.2,164.9,97.9,167.3z M99.3,169.7c1.9,4.6,4.7,9.3,8.8,12.2c1.8,1.3,3.3,3.4,5.6,3.5c-2-5,1-11.4,4.8-14.7
			c2.6-2.8,6.2-3.1,9.4-4.6c-0.1-2.2-0.2-4.3,0.6-6.4c0.3-1.4,1-2.8-0.6-3.6c-2.5-1.7-5.8-2.9-8.9-2.8
			C110.6,156.1,103.2,161.3,99.3,169.7z M130.6,158.1c-0.4,3-1.9,5.3-0.5,8.3c9.2,3.1,18.4,6.8,26.9,11.5c2.6,1.4,4.1,3.7,6.2,5.6
			c-1.4-3.4-3.2-6.6-4.9-9.9c-4.2-2.6-8.7-4.6-13.2-6.8C140.1,164.4,135.4,161,130.6,158.1z"/>
	</g>
	<g>
		<path id="p6_00000072244228482077485690000000821059522788228260_" class="st19" d="M82,86.5c1.3,3.1,2.3,6.2,2.7,9.5
			c1.3,3,1.6,4.6,0.7,7.8c-0.9,2.2,1,3.8-1.3,5.3c-3.7,2.1-5.5,0.3-8.8-1c-0.8,2.5,1.5,2.6,3.2,3.6c2.7,0.9,6.5-0.1,8.2-2.4
			c2.3,3.3,5.5,9.3,2.7,13c-1.3,2.2-3.6,3.1-6.1,2.2c-5.1-2-10-4.7-14.8-7.3c1.2-3,2-6,2.7-9.2c-1.5-6,0.7-12.7,1.5-18.8
			C75.8,88.3,78.8,88.3,82,86.5z"/>
	</g>
	<g>
		<path id="p7_00000129901041765675271820000018045696971016786305_" class="st20" d="M94.8,107.3c1.6,1.4,2.5,3.6,3.7,5.3
			c2.6,4.5,5.6,8.6,8.1,13.1l0.1,0.2c2.1,2.8,4.3,5.5,6.5,8.3c-4.8,3.3-9.8,8.5-15.6,10.6c-2.4,1.2-5.8,1.9-8.3,1
			c-2.3-2.4-3.6-5.6-6.2-7.8c-3.5-3.1-7.1-6.3-11.7-7.4c-2.9-1.2-6.5,0.3-8.3,2.7c-0.5,1.5-0.3,3.3-0.2,4.8
			c2.1,6,7.9,10.4,12.7,14.4c4.8,4.1,10.5,5.8,16.4,7.6c3.4,0.6,6.4-2.3,9-3c-0.8,1.6-2.7,2.8-4,4.1c-0.3,1.7,0.1,4.2-1.6,5.2
			c-2,1.6-3.8-0.1-5.4-1.3c-5.8-5.1-12.3-8.9-18.6-13.4c-4-3.9-8.5-7.9-11.4-12.7c-1.1-1.8-0.8-3.9-0.8-6c0.5-6.4,2.1-12.5,7.1-16.8
			c0.5,1.4,0.8,2.5,2.3,3.2c4.1,2.3,8.5,4.2,12.7,6.2c3.6,1.4,7.7,0.9,9.8-2.6c2.1-3.4,0.9-7.2-0.6-10.5c-0.6-1.9-2.2-3.4-2.7-5.3
			C90.6,106.5,92,106.5,94.8,107.3z M89.8,128.7c3.1,1.5,5.3,4.9,8.4,5.9c-1.4-3.3-2.3-7-4.2-10.1C92.4,125.8,91.1,127.1,89.8,128.7
			z"/>
	</g>
	<g>
		<path id="p8_00000103259403568421156660000004484620540028445867_" class="st19" d="M98.4,108.8c4.5,0.5,8.8,0.2,13,1.9
			c5.3,2.9,10.7,5.8,15.7,9.1c1.9,1.3,3.6,2.7,5.8,3.5c-4.7,0.8-10,0.2-14.8,0.3c-3.9-0.6-7.2-2.4-10.8-4
			C102.8,118.3,101.3,112.3,98.4,108.8z"/>
	</g>
	<g>
		<path id="p9_00000036959477116287356820000004627989071050368421_" class="st21" d="M105.4,120.7c2,0.4,3.6,1.7,5.5,2.3
			c2.4,0.4,4.9,0.3,7.3,0.6c4.8,0,10.1,0.5,14.8-0.3c0.5-0.3,1.1-0.6,1.6-0.9c3.1,1.9,5.9,1,9.4,1.2c7,0.1,14.1-0.3,21.2,0.3
			c9.3,0.1,18.7,0.1,28,0c14.6,0,29.2,0,43.8,0l0.3,2.2c-10.7,1.6-21.3,3.4-32,5.1c-3.8,0.6-7.7,1.2-11.5,1.8
			c-11.5,1.9-23.1,3.7-34.6,5.5c0.2,1.7,1.1,3.5-0.1,4.9c-5.6-1.2-11.2-4.5-16.9-5.8c1.5-1.7,0.9-3.5,1-5.6c4,1.5,7.9,3.2,11.9,4.9
			c9.8-1.3,19.7-3.1,29.5-4.6c1.5-0.2,2.9-0.5,4.4-0.9c5-0.3,9.8-1.4,14.7-2.1c5.7-0.9,11.3-1.8,17-2.6l0.5-0.6
			c-7.6-0.3-15.1-0.1-22.7-0.1c-10-0.1-20.1-0.1-30.1,0c-8.1-0.3-16.2-0.2-24.4-0.3c-1.2,0-2.4,0.2-3.5,0.6
			c-1.4-0.4-2.6-0.5-3.4-0.3c-4.7-0.5-9.4-0.2-14.1-0.1c-0.9,0-1.8,0.1-2.7,0.1l0,0.6c4.2,1.2,8.5,2.7,12.4,4.7l-0.7,2
			c-1.9-0.7-3.8-1.3-5.6-2.1c-0.6-0.2-1.1-0.4-1.7-0.6c-1.9-0.7-3.7-1.5-5.6-2.1l-0.6,1.5c-0.2-1.2-0.6-1.9-1.4-2.2
			c-2.8-1.2-5.2-2.2-8.3-1.8l-2.1-0.2l-0.1-0.2C107.6,124.2,105.6,122.3,105.4,120.7z"/>
	</g>
	<g>
		<path id="p10_00000010276248956619928720000011777430262129177786_" class="st22" d="M94,124.5c1.8,3.1,2.8,6.8,4.2,10.1
			c-3.1-1-5.3-4.5-8.4-5.9C91.1,127.1,92.4,125.8,94,124.5z M93,128.1v0.8h0.8l0-0.8H93z"/>
	</g>
	<g>
		<path id="p11_00000062166324181603968850000007756106369793691288_" class="st19" d="M137,126.1c3.9,2.4,5,5,4.5,9.5
			c-1.3,1.8-5.1,1.6-7,0.8c-1.2-1.4-0.1-4.5-0.3-6.3c-3.5-1.7-7.4-3.5-11.3-4.2C127.6,125.8,132.4,125.6,137,126.1z"/>
	</g>
	<g>
		<path id="p12_00000034774215414013906430000000827404187343053952_" class="st18" d="M108.8,126.1c3.2-0.4,5.5,0.6,8.3,1.8
			c-0.3,2-1.3,3.8-3,5C112.4,130.5,110.4,128.4,108.8,126.1z"/>
	</g>
	<g>
		<path id="p13_00000031921356754813952870000009418050096224680381_" class="st23" d="M120.2,126.1c0.9-0.1,1.8-0.1,2.7-0.1
			c3.9,0.6,7.7,2.5,11.3,4.2c0.2,1.8-0.8,4.9,0.3,6.3c1.8,0.7,5.7,0.9,7-0.8c0.5-4.5-0.6-7.1-4.5-9.5c0.9-0.2,2-0.1,3.4,0.3
			c1.9,1.7,2.6,3.2,2.7,5.8c-0.1,2.1,0.5,3.8-1,5.6c-1.7,0.6-3.5,1-5.2,1.4c-1.2-0.4-2.4-0.9-3.7-1.3c-1.1-1.5-1.5-2.5-1.4-4.4
			l0.7-2c-3.9-2.1-8.2-3.5-12.4-4.7L120.2,126.1z"/>
	</g>
	<g>
		<path id="p14_00000150094614587434364100000007786957927697308812_" class="st18" d="M144,125.8c8.1,0,16.2-0.1,24.4,0.3
			c6,3.9,13.8,2.4,20.5,5.4c-1.4,0.4-2.9,0.8-4.4,0.9c-9.8,1.5-19.7,3.3-29.5,4.6c-3.9-1.6-7.9-3.4-11.9-4.9c-0.1-2.5-0.8-4-2.7-5.8
			C141.6,126,142.8,125.8,144,125.8z"/>
	</g>
	<g>
		<path id="p15_00000174590236115279603310000011879726036009182141_" class="st16" d="M168.4,126c10-0.1,20.1-0.1,30.1,0
			c1.7,1.1,3.4,2.2,5.2,3.3c-4.9,0.7-9.8,1.8-14.7,2.1C182.2,128.4,174.3,129.9,168.4,126z"/>
	</g>
	<g>
		<path id="p16_00000084506168321682998590000012915419498139826316_" class="st17" d="M198.4,126.1c7.6,0,15.1-0.2,22.7,0.1
			l-0.5,0.6c-5.7,0.8-11.3,1.7-17,2.6C201.9,128.3,200.2,127.2,198.4,126.1z"/>
	</g>
	<g>
		<path id="p17_00000016796574575444301490000010374599569840463278_" class="st24" d="M93,128.1h0.8l0,0.8H93V128.1z"/>
	</g>
	<g>
		<path id="p18_00000135665609914115374300000003335700504726344364_" class="st19" d="M119,128.6c1.9,0.6,3.8,1.4,5.6,2.1
			c-1.4,1.9-2.6,4.1-4.2,5.7c-5.5,4.8-10.9,9.7-16,14.9c-2.7,2.2-5.5,5.2-8.9,6.3c-4.5,1.3-8.4-1.2-12.7-2.6
			c-6.2-3.1-11.6-8.5-16.2-13.5c-1.3-2.4-3.7-5.7-1.2-8.2c2.2-2.2,6.8-1.5,9.2,0.1c4,2.5,8.4,5.7,10.7,9.8c-3.1-1.6-6-3.9-9.1-5.4
			c-0.7,0.1-0.9,0.7-0.6,1.6c4.1,2.6,8.2,5.1,12.3,7.6c1.7,0.6,3.3,1.2,5.1,0.7c7.3-1.3,13-5.7,18.5-10.3c2.4-2.2,5.6-4.4,7-7.4
			L119,128.6z"/>
	</g>
	<g>
		<path id="p19_00000142867340438239830010000013977056787462089109_" class="st16" d="M205.3,131.3c2.3,2.2,2.9,5,4.5,7.9
			c2,4.3,3.3,8.9,0.4,13.2c-3.5,5-10.4,6.8-15.9,8.7c-0.9-4.8-2.2-9.9-6.9-12.4c-2-0.8-7-0.9-6.7,2.3c0.5,2.7,0.7,6.5,2.8,8.5
			c5.8,6.6,12.1,12.5,18.2,18.7c-2.1,1.8-4.3,3.5-6.4,5.3c-6.4-6.2-12.7-12.7-18.5-19.3c-2.8-2.9-3-6.4-3.9-10.2
			c-0.8-4.3,0-8.8,3.6-11.5c5.7-4.1,14.2-3,19.1,1.9c1.8,1.8,2.9,3.9,4.3,5.9c1.7-0.9,4.7-2.5,3.6-4.9c-1.6-3.3-2.8-7.9-5.9-10.1
			c-1.2-0.9-2.5-1.6-3.8-2.3C197.7,132.5,201.5,131.9,205.3,131.3z"/>
	</g>
	<g>
		<path id="p20_00000091728564635030246150000001254371393811473042_" class="st18" d="M126.3,131.4c1.8,0.7,3.7,1.4,5.6,2.1
			c-0.1,1.9,0.3,2.9,1.4,4.4c1.2,0.4,2.4,0.9,3.7,1.3c1.8-0.4,3.5-0.8,5.2-1.4c5.7,1.3,11.2,4.6,16.9,5.8c1.3-1.4,0.4-3.2,0.1-4.9
			c11.6-1.8,23.1-3.6,34.6-5.5c1.3,0.7,2.7,1.4,3.8,2.3c3.1,2.1,4.4,6.8,5.9,10.1c1.1,2.4-2,4-3.6,4.9c-1.4-2-2.5-4.1-4.3-5.9
			c-4.9-4.9-13.4-6-19.1-1.9c-3.6,2.7-4.4,7.3-3.6,11.5c0.9,3.8,1.1,7.2,3.9,10.2c5.9,6.7,12.2,13.1,18.5,19.3
			c-4.2,3.5-8.4,6.9-12.5,10.5c-3.4-0.1-6.7,0.2-10.1,0.5c-0.3-0.3-0.7-0.7-1.1-1c-1.7-2-3.4-3.9-5.2-5.9c-0.8-2.8-1.5-5.5-2.9-8
			c-1.6-2.9-2.7-6.6-5.6-8.3c-6.1-3.5-12.6-5.8-18.4-9.6c-5.9-3.4-10.6-7.8-17.2-9.9c-1.3-1.6-2-3.8-3-5.6c1.9-2.3,1.3-3.9,0-6.4
			C122.3,137.5,124.3,134.5,126.3,131.4z"/>
	</g>
	<g>
		<path id="p21_00000093863299200031773890000007628446079486505636_" class="st25" d="M117.8,141c1.2,1,1.9,2.2,0.6,3.4
			c-4.1,4.2-9.5,7.2-14.1,10.9c-1,0.6-2,2.1-3.3,1.8c1.2-2.2,3.9-3.6,5.6-5.4C110.2,147.9,114,144.4,117.8,141z"/>
	</g>
	<g>
		<path id="p22_00000010303684589273160150000018044151454158293393_" class="st26" d="M225.2,145.1c2.4-0.1,4.4,2.2,5.7,4
			c3,5.7,0.2,11.9-3.1,16.8c-5.3,7.9-12.5,12.6-19.6,18.6c-2.1,1.8-4.3,3.7-6.5,5.5c-1.8,1.4-3.6,2.9-5.3,4.4
			c-4.6,0-9.1-0.4-13.7-0.4c4.1-3.5,8.4-7,12.5-10.5c2.1-1.8,4.3-3.5,6.4-5.3c4.6-3.8,9.3-7.7,13.9-11.5c3.2-2.6,6.1-5.6,7.7-9.5
			C225.2,153.4,224.5,149.6,225.2,145.1z"/>
	</g>
	<g>
		<path id="p23_00000017475380647394312060000001512558816648984502_" class="st27" d="M117.8,147.3c0.9,1.4,1.6,2.8,2.3,4.3
			c-4.3,0.4-8.5,3.1-12.2,5.4c-4,2.5-6.5,6.2-9.2,10l-0.9,0.4c0.3-2.4-0.3-4.9,1.9-6.5C105.5,156,111.9,151.9,117.8,147.3z"/>
	</g>
	<g>
		<path id="p24_00000158711846700629432080000000903536283139982757_" class="st17" d="M119.1,153.2c3.1-0.1,6.4,1.2,8.9,2.8
			c1.6,0.8,0.9,2.2,0.6,3.6c-0.8,2.1-0.7,4.2-0.6,6.4c-3.2,1.5-6.8,1.8-9.4,4.6c-3.9,3.3-6.8,9.7-4.8,14.7c-2.3-0.1-3.8-2.2-5.6-3.5
			c-4.1-2.9-6.9-7.6-8.8-12.2C103.2,161.3,110.6,156.1,119.1,153.2z"/>
	</g>
	<g>
		<path id="p25_00000151527637103591854760000006115425685059963541_" class="st19" d="M130.6,158.1c4.8,3,9.5,6.3,14.6,8.7
			c4.4,2.2,8.9,4.2,13.2,6.8c1.7,3.3,3.5,6.5,4.9,9.9c-2.2-1.9-3.6-4.2-6.2-5.6c-8.6-4.7-17.7-8.3-26.9-11.5
			C128.7,163.4,130.2,161.1,130.6,158.1z"/>
	</g>
	<g>
		<path id="p26_00000140704715355391198880000006636142677556064181_" class="st19" d="M128.9,168c8,2.6,16,5.9,23.6,9.6
			c7.1,2.8,11.6,10.7,16.9,16.1c-4,0.4-7.9,0.3-11.9,0.3c-2.1-2.1-4.4-4.3-7.5-4.4c-6.3-1-12.5-1-18.9-1.2
			c-5.1-0.8-10.8-0.2-15.9-1.7c0-3.5-0.9-6.6,0.8-9.9C118.4,171.7,123.4,168.6,128.9,168z"/>
	</g>
	<g>
		<path id="p27_00000059301898950184474700000012119261717308205235_" class="st18" d="M201.8,190c1.9,1.5,3.6,3.2,5.3,4.9
			c-3.6-0.2-7.1-0.2-10.6-0.5C198.2,192.9,200,191.4,201.8,190z"/>
	</g>
	<g>
		<path id="p28_00000152232992229152486960000009703993170974925196_" class="st28" d="M96,194.9c8.6,3.3,16.3,9.8,23.9,14.6
			c6.2-0.1,11.6-3.2,17.2-5.5c4.1-1.3,8.6-1.7,12.9-1.8c7.7,0,15.4-0.1,23,0.2c13.5-0.7,26.5,0.4,39.9,0.8
			C196,222.9,171.8,236.1,146,239c-6.6,0.4-13.4,0.4-20-0.2c-9.8-1.3-19.1-2.7-28.2-6.6c-17-7.1-32.8-18.5-43.9-33.3
			c0.8,0.3,1.5,0.6,2.3,0.9c10.8,5.7,22.5,9.9,34.1,13.6c-2-5.1-5.8-9.6-8.3-14.4c-0.3-1.2-0.1-2.4,0.5-3.5
			C86.5,193.4,91.8,193.6,96,194.9z"/>
	</g>
</g>
</svg>
