<?xml version="1.0" encoding="utf-8"?>
<!-- Generator: Adobe Illustrator 27.7.0, SVG Export Plug-In . SVG Version: 6.00 Build 0)  -->
<svg version="1.1" id="Layer_1" xmlns="http://www.w3.org/2000/svg" xmlns:xlink="http://www.w3.org/1999/xlink" x="0px" y="0px"
	 viewBox="0 0 864 864" style="enable-background:new 0 0 864 864;" xml:space="preserve">
<style type="text/css">
	.st0{display:none;fill-rule:evenodd;clip-rule:evenodd;fill:#939598;}
	.st1{fill:#FFFFFF;}
	.st2{fill-rule:evenodd;clip-rule:evenodd;fill:#ED1C24;}
	.st3{fill-rule:evenodd;clip-rule:evenodd;fill:#2E3192;}
</style>
<rect x="-3" y="-8" class="st0" width="867" height="872"/>
<path class="st1" d="M794.2,335.1c2.5-3.2,4.6-7.2,6-12.3l2.9-11c0,0-22.8-2.1-25.9-2.1c0.9,0.7,0.2,0.7-0.9,0c0.3,0,0.6,0,0.9,0
	c-61.1-52-134.2-58-206.2-29C546.5,181.1,487.9,98.1,440.6,7.9c-10.6,19-20.3,36.3-30,53.6c-39.2,70.4-81.8,139.2-100.9,220.1
	c-34.3-16.2-69.8-22.1-106.8-18.6c-37.3,3.5-86.1,26.7-96.6,46.1c2.6,0-26.7,4.1-26.7,4.1l3.9,10.7c1.5,4.2,3.5,7.9,5.8,10.9
	l-6.1,4.8c-19,44.5-17.2,88.3,1.6,131.7c20.5,47.2,58,77.2,104.7,99.5c-2.8-21.8-6.1-41.8,3.8-61c9.9-19.2,26.8-29.3,46.5-36.3
	c4.8,1.8,70.6,39.9,74.5,41.9c8.3,4.3,16.9,8.8,25.5,13.2c-10.2,10.4-20.5,21-30.5,31.3c-4.4,4.5-19.3,19.8-19.3,19.8l5.2,6.9
	c8.2,10.8,17.9,20.8,29.2,29.9c2.2-2.3,2.1,1.7,0,0c-3.1,3.2-5.9,6.1-7,6.8c-9.6,6.4-19.6,11.7-31.7,11.5
	c-24.1-0.4-42.3-13.4-50.8-37.5c-3.4-9.8-5.4-20.2-8-30.3c-0.6,0.3-1.2,0.4-1.4,0.8c-0.7,1.1-1.3,2.3-1.9,3.5
	c-11.9,23.7-15.5,49-13.5,75.1c4.2,57,49,104.9,103.2,111c18.1,2,35.3-1.6,52.5-9.5c16.8,41.4,41.5,76.7,74.5,106.1
	c33.3-29.7,57.8-65.1,74.5-105.8c45.3,18.9,84.5,9.3,118.2-22.9c38-36.4,44.9-81.4,32.8-130.7c-2.4-9.7-6.9-18.8-10.5-28.2
	c-0.8,0.2-1.5,0.4-2.3,0.6c-3.8,23.7-8.3,47.4-31.1,60.7c-23.5,13.6-45.4,7.2-65.1-9.1c-0.2,0.2-0.5,0.3-0.8,0.3l37.9-35.6l-6.8-7.3
	c-4.7-5-9.2-9.9-13.7-14.7c-10.5-11.2-20.4-21.9-30.4-32.5c8.9-4.4,71.3-36.8,83.3-47.6l10.2-9.1c20.7,7.1,41.6,19.7,51.2,38.7
	c9.6,19.1,5.8,39.1,3.6,59.3C784.7,538.7,843.4,404.3,794.2,335.1z"/>
<g>
	<path class="st2" d="M309.8,281.6c19.1-80.9,61.7-149.7,100.9-220.1c9.6-17.3,19.3-34.6,30-53.6C488,98.1,546.6,181.1,571.2,280.8
		c73-29.5,141.7-27.1,203.4,27c-14.7,0.4-28.6,2.8-43.2-5.7c-52.6-30.6-129-22.8-175.8,16c-0.7,0.6-1.5,1.2-3.4,2.6
		c1.2-29.9-5.6-57.1-17.4-82.7c-17.1-37.3-35.9-73.9-54.6-110.5c-11.1-21.7-23.2-42.9-34.9-64.3c-1.4-2.5-2.8-5-4.9-8.8
		c-7.1,13.1-13.7,25-20,37c-23.4,45.2-47.6,90-69.8,135.8c-14,28.7-23,59.3-21.8,93.3c-3.8-3-6.7-5.4-9.8-7.7
		c-25.4-18.8-54.4-27-85.4-28.9c-33.5-2.1-64.9,4.6-93.3,23.3c-1.7,1.1-3.9,1.8-5.9,1.9c-9.2,0.2-18.5,0.1-28,0.1
		c10.5-19.4,59.3-42.6,96.6-46.1C240,259.5,275.5,265.4,309.8,281.6z"/>
	<path class="st2" d="M650.4,633.2c-9.3,5.7-17.7,12.3-27.2,16.6c-25.9,11.7-50.2,6.9-72.7-9.4c-9.1-6.6-9.1-9.9-0.6-16.5
		c2.1-1.6,4.2-3.2,7-5.4c19.7,16.3,41.6,22.7,65.1,9.1c22.8-13.2,27.4-37,31.1-60.7c0.8-0.2,1.5-0.4,2.3-0.6
		c3.5,9.4,8.1,18.5,10.5,28.2c12.2,49.2,5.2,94.3-32.8,130.7c-33.7,32.3-72.9,41.8-118.2,22.9c-16.7,40.7-41.2,76.1-74.5,105.8
		c-33.1-29.5-57.7-64.7-74.5-106.1c-17.2,7.9-34.4,11.5-52.5,9.5c-54.2-6.1-99-54-103.2-111c-1.9-26.1,1.6-51.4,13.5-75.1
		c0.6-1.2,1.2-2.4,1.9-3.5c0.2-0.4,0.8-0.5,1.4-0.8c2.6,10.2,4.6,20.5,8,30.3c8.4,24.1,26.6,37.2,50.8,37.5c12,0.2,22-5.1,31.7-11.5
		c2.6-1.7,5.1-3.7,7.9-5.8c2.4,1.8,4.7,3.5,7,5.3c10.3,7.9,10.3,8.4,0.1,16c-31.6,23.8-64.7,23.1-95.5-1.9c-1.8-1.5-3.6-2.9-5.6-4.5
		c-2.1,32.2,13.6,69.2,45,88.4c26.1,16,60.8,26.5,99.6-5.7c15.2,39.9,32.8,78.2,64.5,109.5c31.5-30.7,49.2-69.2,64.2-108.9
		c7.8,4.8,14.9,10.1,22.7,13.8c19.9,9.3,40,8.5,60.2,0.3C626.5,714,651.8,675.4,650.4,633.2z"/>
	<path class="st2" d="M455.7,296.4c-10.6,0-19.9,0-30.5,0c4.8-67.9,9.5-135.5,14.2-203.1c0.6,0,1.3,0,1.9-0.1
		C446.2,160.7,450.9,228.1,455.7,296.4z"/>
	<path class="st2" d="M186.7,437.2c-5.9,4.4-11.8,8.9-17.9,13c-3.4,2.3-4.4,4.5-2.9,8.5c2.7,7.1,4.7,14.5,7.6,23.5
		c-9.1-6.5-16.5-11.8-24.4-17.4c-7.6,5.4-15.1,10.7-24.4,17.3c2.7-8.7,4.6-15.6,7.1-22.3c1.6-4.4,1.2-7.3-3-9.9
		c-6-3.8-11.5-8.3-17-14.3c6.9,0,13.9-0.5,20.7,0.1c5.7,0.5,8-1.9,9.4-7c1.8-6.6,4.1-13,7-21.7c3,9,5.7,15.7,7.5,22.6
		c1.2,4.9,3.7,6.3,8.4,6c7.1-0.3,14.2-0.1,21.3-0.1C186.4,436,186.5,436.6,186.7,437.2z"/>
	<path class="st2" d="M731.8,407c3.1,9.2,5.2,16.5,8.2,23.4c0.9,2.2,4.1,4.6,6.4,4.8c7.4,0.6,14.8,0.2,23.1,1.7
		c-4.6,3.4-9,7.4-14,10.2c-6.9,3.9-9,8.5-5.4,16.1c2.5,5.4,3.8,11.4,6.3,19c-7.9-5.7-13.9-10.5-20.4-14.5c-2-1.2-6-1.2-8,0
		c-6.5,4-12.6,8.7-20.5,14.4c2.8-8.9,4.8-16.2,7.5-23.1c1.7-4.4,0.6-6.7-3.1-9.1c-6.1-4-11.8-8.6-17.2-14.5c7.6,0,15.1,0.4,22.7-0.2
		c2.4-0.2,5.6-2.6,6.6-4.7C726.8,423.6,728.8,416.3,731.8,407z"/>
	<path class="st2" d="M435.5,496.5c4.5,0,8.2,0,12.5,0c0.2,2.4,0.6,4.7,0.6,7c0,34.5-0.1,69.1,0.1,103.6c0,5.6-1.2,10.1-7.2,9.9
		c-5.7-0.1-6.5-4.8-6.5-9.8c0.1-34.5,0.1-69.1,0.1-103.6C435.1,501.5,435.4,499.4,435.5,496.5z"/>
	<path class="st2" d="M424.1,605.2c-9.9-5.1-13.7-12.1-13.3-23.1c0.9-25.4,0.3-50.9,0.3-76.4c0-2.9,0-5.7,0-9c4.8,0,8.7,0,13.1,0
		C424.1,532.7,424.1,568.7,424.1,605.2z"/>
	<path class="st2" d="M459.6,605.2c0-36.4,0-72.3,0-108.6c4.3,0,8.1,0,13,0c0,3.1,0,6,0,8.8c0,25.2-0.6,50.4,0.3,75.5
		C473.3,592,470.4,599.9,459.6,605.2z"/>
	<path class="st2" d="M400.1,581.4c-8.9-9.6-14.5-19.1-13.4-32.3c1.2-14.7,0.2-29.6,0.3-44.4c0-2.6,0.2-5.1,0.4-8.1
		c4.5,0,8.3,0,12.8,0C400.1,524.6,400.1,552.5,400.1,581.4z"/>
	<path class="st2" d="M483.8,496.5c4.4,0,8,0,12.8,0c0,10.1,0,19.8,0,29.5c0,8.5-0.8,17.1,0.2,25.5c1.4,12.2-5,20.5-13,29.9
		C483.8,552.4,483.8,524.8,483.8,496.5z"/>
	<path class="st2" d="M374.2,538.3c-2.6-13.7-5.2-27.3-8-41.8c4.3,0,6.9,0,10,0c0,13.9,0,27.6,0,41.4
		C375.5,538.1,374.9,538.2,374.2,538.3z"/>
	<path class="st2" d="M507.9,496.5c2.7,0,4.7,0,9.2,0c-2.4,13.9-4.7,27.2-6.9,40.4c-0.8-0.1-1.5-0.2-2.3-0.2
		C507.9,523.5,507.9,510.3,507.9,496.5z"/>
	<path class="st2" d="M794.1,334.7c49.6,69.1-9.1,203.9-102.5,235.2c2.2-20.2,6-40.2-3.6-59.3c-9.5-18.9-25.7-29.6-46.4-36.8
		c7.6-5.3,13.8-10.2,20.6-14c1.9-1.1,6.1,0.4,8.6,1.9c25.2,15.2,38.7,38.3,45.1,67c1.4-0.6,3.1-1,4.6-1.9
		c53.3-33,80.3-99,63.9-159.4c-3.2-11.7-2.5-20,5.8-28C791.4,338.2,792.5,336.6,794.1,334.7z"/>
	<path class="st2" d="M87.2,331.2c4.9,6.5,9.3,11.5,12.6,17.1c1.2,2.1,0.6,6-0.3,8.6c-21.2,59.3,1.5,132.8,62.6,170.9
		c0.8,0.5,1.9,0.7,3.4,1.3c3.2-21.5,13.5-39.1,27.9-54.4c18-19.1,25.5-19.4,47.3-1.5c-20,7.1-37.2,17.2-47.2,36.6
		c-9.8,19.2-6.6,39.2-3.8,61c-46.6-22.3-84.2-52.3-104.7-99.5C65,425.1,64.2,378.6,87.2,331.2z"/>
</g>
<g>
	<path class="st3" d="M224.7,447.6c14.6-0.7,28-1.3,41.3-2c0.1-0.3,0.2-0.6,0.3-1c-6.1-1-12.2-2.1-18.2-3
		c-10.7-1.6-21.6-2.3-32.1-4.9c-8.3-2.1-15.9-6.6-23.9-10c0.3-0.9,0.6-1.9,0.9-2.8c15-0.7,29.9-1.5,44.9-2.2
		c0.1-0.4,0.1-0.8,0.2-1.1c-10.8-1.5-21.6-3-32.4-4.5c-7.3-1-15-1-21.8-3.4c-7.9-2.7-15.1-7.5-22.6-11.3c0.3-0.9,0.7-1.7,1-2.6
		c15.7-0.7,31.5-1.5,47.2-2.2c0-0.3,0.1-0.7,0.1-1c-15.1-2.1-30-5-45.2-6c-13.3-0.9-23.1-6.7-31.8-18.2c17.8,0,34.7,0,51.7,0
		c0-0.8,0.1-1.5,0.1-2.3c-13.1-1.9-26.2-3.7-39.2-5.6c-5-0.7-10-1.2-14.9-2c-8.1-1.2-14.1-5.5-17.9-13.8c23.2,0,46.1,0,69,0
		c0.1-0.6,0.2-1.2,0.2-1.7c-2.7-0.5-5.4-1.3-8.1-1.6c-20.4-2.6-40.9-5.5-61.4-7.7c-10-1.1-15.6-6.6-19.1-16.2
		c1.3-0.3,2.5-0.8,3.6-0.8c59.5,0.1,119-0.4,178.5,0.6c23.4,0.4,44.2,9.6,61,26.8c13.2,13.5,26.6,26.7,40,40c2.4,2.4,5,4.8,7.9,6.6
		c8,4.9,14.3,3.6,18.5-4.8c4.6-9.2,8.2-18.8,12.2-28.2c-6.3-4.2-12.3-8.1-18.2-12c0.3-0.9,0.7-1.7,1-2.6c7.6,0.8,15.5,0.7,22.8,2.6
		c8.6,2.2,10.1,6.5,7.6,14.9c-3.3,11.1-6.6,22.2-10.1,34.1c17.7,0,34.7,0,52.4,0c-2.3-15.6-4.6-31-6.9-46.3
		c-0.6-3.9-1.1-7.8-1.9-11.7c-2.2-11.1-4.5-14.1-15.7-14.9c-7.5-0.6-15.2,1.1-22.9,1.8c-0.1,0.9-0.2,1.8-0.3,2.7
		c3.1,1.6,6.2,3.2,11.4,5.8c-5.4,1.9-9.2,4-13.3,4.5c-6.8,0.9-13.7,0.8-20.6,1.3c-6.7,0.5-11.7,2.5-7,11.9c-7.7-2.7-9-7.7-8.9-13.4
		c0.1-5.6,1.1-11.2,7.4-12.5c5.5-1.2,11.4-0.7,17.2-1.2c2.1-0.2,5.4-0.2,6-1.4c9.7-18,26.3-16.2,42.6-14.9c7.1,0.6,14,2.2,21.6,3.4
		c-11.6,20.6,1.3,40.6,2.1,61c0.2,4.7,1.3,9.5,2.8,13.9c2.9,8.6,9.3,10.5,16.7,5.3c2.8-2,5.4-4.3,7.8-6.7
		c13.2-13.1,26.4-26.2,39.4-39.5c16.6-16.9,37.2-25.9,60.3-26.3c59.5-1,119-0.5,178.5-0.6c1.2,0,2.5,0.3,3.9,0.5
		c-3.9,14.4-15.1,16.5-27.1,17.8c-18.9,2-37.8,4.4-56.8,6.7c-1.6,0.2-3.2,1.2-4.6,2.9c23,0,45.9,0,69.2,0
		c-6.7,14.9-20.4,14-32.6,15.8c-13.1,2-26.3,3.7-39.4,7.4c16.5,0,33,0,51.3,0c-7.9,10.4-15.3,17.2-27.2,18.3
		c-16.5,1.6-32.9,4.2-49.2,7.5c15.6,0.7,31.2,1.4,47.4,2.1c-7.8,10.2-18.1,14.5-30.3,15.7c-13.7,1.4-27.3,3.3-40.9,5.1
		c-1.5,0.2-2.9,1-5.7,2.1c16,0.8,30.6,1.5,46.4,2.3c-8.3,9.5-18.3,12.7-29.1,14.3c-13.4,1.9-26.8,3.5-40.1,5.3c-1.5,0.2-2.9,1-5.7,2
		c14.9,0.7,28.3,1.4,42.9,2.1c-21.4,21.4-49.5,16.8-75.8,23.7c13.2,0.8,24.6,1.5,36.6,2.3c-19.7,17.6-44.2,18.1-67.6,23.1
		c8.1,0.4,16.2,0.9,24.3,1.3c0.2,0.6,0.4,1.3,0.6,1.9c-13.8,7.1-27.5,14.4-41.4,21.2c-7.6,3.8-8,5.6-2,12c15.1,16,30,32.1,46.2,49.5
		c-11.9,11.2-25.7,24.2-40.7,38.3c-6.5-15.1-11.2-28.5-17.8-40.9c-7.8-14.4-8.2-27.4-1.9-42.9c5.1-12.3,6.1-26.7,6.7-40.3
		c1-21.7,0.3-43.4,0.3-65.4c-27.9-6.7-55-13.3-82.2-19.8c-1.5-0.4-3.2-0.4-4.7,0c-27.2,6.5-54.3,13.1-82.5,19.9
		c3.1,37.4-6.4,75.7,8.9,111.8c4.9,11.6,3.8,20.5-1.1,30.9c-6.9,14.5-13,29.4-19.8,45.1c-16.3-10.9-30.4-23.6-41.8-38.7
		c15.5-15.9,30.6-31.5,45.8-47c7.4-7.5,7.3-7.7-1.9-12.5c-13.4-6.8-26.7-13.8-40.1-20.7c0-0.7,0.1-1.4,0.1-2.1
		c8.1-0.5,16.1-1,24.2-1.4c0.1-0.4,0.1-0.7,0.2-1.1c-7.7-1.1-15.5-1.8-23.1-3.3c-7.7-1.6-15.6-3.2-22.9-6.1
		c-7.5-2.9-14.4-7.2-21.2-12.6c11.5-0.7,22.9-1.4,36-2.3C274.4,464.4,246.3,469.1,224.7,447.6z"/>
	<path class="st3" d="M506.3,570.8c9.3,21.7,18.8,43.7,28.3,65.9c-3.4,2-6.6,3.8-9.7,5.6c2.5,10.9,11.9,18.7,24.5,20.5
		c5.8,0.8,11.6,1.3,17.4,1.6c10.2,0.6,13.4,5.3,9.5,15c-1.1,2.7-3.2,5-5.9,7.8c1.5-11.6-5.2-11.7-13.1-11.5
		c-15.9,0.4-31.8,0.1-47.8,0.1c-10.3,0-10.3,0-8.8,10.2c-5.8-3-9.1-9.8-7.3-15.8c1.8-6.4,6.8-7.3,12.5-7.2c4.2,0.1,8.3,0,15.1,0
		c-3.9-5.8-6.6-9.7-9.4-13.9c-6.1,2.1-11.7,4.1-17.8,6.2c-6.6-15.3-13.2-30.2-19.4-45.3c-0.6-1.5,0.6-4.5,1.9-6
		C485.9,593.1,495.7,582.4,506.3,570.8z"/>
	<path class="st3" d="M390.1,654.6c-6.6-1.5-12.6-4.2-18.4-3.6c-2.9,0.3-5.2,6.4-9,11.5c6,0.3,10.3-0.2,14.1,0.8
		c4.4,1.1,11,2.5,12.3,5.5c2.6,6.2,1.7,13.4-5.6,18c-0.7-10.9-0.7-10.9-11.6-10.9c-15.1,0-30.2,0-45.4,0c-11.5,0-11.5,0-12.8,11.5
		c-6.7-4.4-8.9-10.6-7-17.6c0.6-2.2,4.7-4.4,7.5-5c8.8-1.7,17.9-1.8,26.5-4.1c8.6-2.3,15.8-7.4,18.4-17.3c-3.2-2.2-6.4-4.4-10-6.9
		c9.5-22,19-43.9,28.3-65.5c10.6,11.6,20.8,22.5,30.8,33.6c1.1,1.3,2,4.1,1.4,5.5C403.3,625,396.6,639.9,390.1,654.6z"/>
	<path class="st3" d="M419.2,614.4c6.2,4.2,11.9,7.5,17,11.6c4,3.1,7.2,3,11.2,0.1c5.3-3.9,10.8-7.4,17-11.6
		c4.7,10.9,9.2,21.2,14,32.3c-24.7,5.6-48.4,5.3-73,0.1C410,636.1,414.4,625.7,419.2,614.4z"/>
	<path class="st3" d="M515.8,445c0.1-4.5-2-6-5.9-6.8c-6.2-1.3-12.3-3-18.5-4.3c-25.7-5.6-51-16.7-77.9-5.2
		c-1.9,0.8-4.1,1.1-6.1,1.6c-13.4,3.3-26.9,6.6-40.3,9.8c0,13.4,0.4,25.6-0.1,37.8c-0.3,6.8,2.1,8.4,8.6,8.4
		c44.1-0.3,88.2-0.1,132.3-0.1c2.3,0,4.7,0,7.9,0C515.8,471.5,515.6,458.2,515.8,445z M378.7,449.1l2.5-5.1l2.5,5.1l5.7,0.8l-4.1,4
		l1,5.6l-5.1-2.7l-5.1,2.7l1-5.6l-4.1-4L378.7,449.1z M386.9,481.1l-5.1-2.7l-5.1,2.7l1-5.6l-4.1-4l5.7-0.8l2.5-5.1l2.5,5.1l5.7,0.8
		l-4.1,4L386.9,481.1z M392.6,444.9l5.7-0.8l2.5-5.1l2.5,5.1l5.7,0.8l-4.1,4l1,5.6l-5.1-2.7l-5.1,2.7l1-5.6L392.6,444.9z
		 M410.9,481.1l-5.1-2.7l-5.1,2.7l1-5.6l-4.1-4l5.7-0.8l2.5-5.1l2.5,5.1l5.7,0.8l-4.1,4L410.9,481.1z M416.1,450l1-5.6l-4.1-4
		l5.7-0.8l2.5-5.1l2.5,5.1l5.7,0.8l-4.1,4l1,5.6l-5.1-2.7L416.1,450z M434.9,481.1l-5.1-2.7l-5.1,2.7l1-5.6l-4.1-4l5.7-0.8l2.5-5.1
		l2.5,5.1l5.7,0.8l-4.1,4L434.9,481.1z M436.8,445l1-5.6l-4.1-4l5.7-0.8l2.5-5.1l2.5,5.1l5.7,0.8l-4.1,4l1,5.6l-5.1-2.7L436.8,445z
		 M459.2,481.1l-5.1-2.7l-5.1,2.7l1-5.6l-4.1-4l5.7-0.8l2.5-5.1l2.5,5.1l5.7,0.8l-4.1,4L459.2,481.1z M461.8,447.3l-5.1,2.7l1-5.6
		l-4.1-4l5.7-0.8l2.5-5.1l2.5,5.1l5.7,0.8l-4.1,4l1,5.6L461.8,447.3z M482.9,481.1l-5.1-2.7l-5.1,2.7l1-5.6l-4.1-4l5.7-0.8l2.5-5.1
		l2.5,5.1l5.7,0.8l-4.1,4L482.9,481.1z M488.2,454.6l-5.1-2.7l-5.1,2.7l1-5.6l-4.1-4l5.7-0.8l2.5-5.1l2.5,5.1l5.7,0.8l-4.1,4
		L488.2,454.6z M505.9,475.5l1,5.6l-5.1-2.7l-5.1,2.7l1-5.6l-4.1-4l5.7-0.8l2.5-5.1l2.5,5.1l5.7,0.8L505.9,475.5z M507.9,453.9
		l1,5.6l-5.1-2.7l-5.1,2.7l1-5.6l-4.1-4l5.7-0.8l2.5-5.1l2.5,5.1l5.7,0.8L507.9,453.9z"/>
</g>
</svg>
