<?xml version="1.0" encoding="UTF-8"?>
<svg id="Layer_1" xmlns="http://www.w3.org/2000/svg" viewBox="0 0 64.66 64.66">
  <path d="M64.66,30.88v3.31c-.05.19-.12.38-.15.58-.12.95-.18,1.91-.34,2.85-1.29,7.55-4.78,13.91-10.51,19-4.41,3.91-9.53,6.4-15.33,7.48-1.09.2-2.18.37-3.28.56h-5.46c-.98-.16-1.96-.31-2.93-.5-7.54-1.42-13.88-4.98-18.82-10.85C1.61,45.91-.83,37.33.5,27.77c1.03-7.41,4.35-13.74,9.85-18.83C18.02,1.85,27.13-.89,37.42.63c7.9,1.17,14.45,4.98,19.61,11.09,4.22,5,6.67,10.78,7.36,17.29.07.63.18,1.25.27,1.87ZM58.36,32.49c.05-14.27-11.43-25.68-25.27-26.06-14.37-.39-26.72,11.06-26.72,25.98,0,14.54,11.62,25.91,25.74,26.02,14.54.11,26.22-11.52,26.25-25.94Z" style="fill: #b5d235;"/>
  <path d="M64.66,30.88c-.09-.62-.2-1.25-.27-1.87-.69-6.52-3.14-12.3-7.36-17.29C51.87,5.61,45.32,1.8,37.42.63,27.13-.89,18.02,1.85,10.35,8.94,4.85,14.03,1.53,20.36.5,27.77c-1.33,9.56,1.11,18.14,7.34,25.54,4.95,5.87,11.28,9.44,18.82,10.85.97.18,1.95.33,2.93.5H.01s-.01-.04-.01-.06C0,43.07,0,21.54,0,0h64.66v30.88Z" style="fill: #fefefd;"/>
  <path d="M35.06,64.66c1.09-.19,2.19-.36,3.28-.56,5.8-1.08,10.92-3.58,15.33-7.48,5.74-5.09,9.22-11.44,10.51-19,.16-.94.22-1.9.34-2.85.02-.2.1-.39.15-.58v30.47h-29.6Z" style="fill: #fefefd;"/>
  <path d="M58.36,32.49c-.02,14.42-11.71,26.06-26.25,25.94-14.12-.11-25.75-11.48-25.74-26.02,0-14.92,12.35-26.37,26.72-25.98,13.84.38,25.33,11.79,25.27,26.06ZM57.91,32.5c0-13.81-11.07-25.28-25.24-25.43-14.47-.15-25.76,11.22-25.87,25.15-.12,14.39,11.35,25.38,25.01,25.64,14.75.28,26.09-11.53,26.1-25.36Z" style="fill: #fcfcf1;"/>
  <path d="M57.91,32.5c0,13.83-11.35,25.64-26.1,25.36-13.66-.26-25.13-11.25-25.01-25.64.12-13.92,11.57-25.54,26.04-25.39,14.17.15,25.07,11.87,25.07,25.68ZM36.57,19.04s-.08-.09-.12-.13c.69-1.31.92-2.69.43-4.09-.91-2.63-4.72-3.3-6.93-1.26-1.56,1.44-1.86,3.42-.83,5.7-.5-.08-.97-.11-1.43-.23-2.78-.7-5.55-1.41-8.32-2.14-.93-.24-1.83-.31-2.75,0-2.87,1-3.48,4.69-1.04,6.75.82.69,1.85,1.17,2.84,1.63.94.43,1.95.71,2.97,1.06-2.34,1.01-4.06,2.68-5.52,4.64-2.14,2.87-2.64,6.2-2.49,9.67.2,4.65,2.25,8.29,6.29,10.62,4.18,2.41,8.68,2.98,13.36,1.66,2.24-.63,4.35-1.57,5.79-3.5,1.35-1.82,2.32-3.85,2.81-6.07.12-.52.28-.75.82-.86,1.8-.39,2.97-2.15,2.72-3.98-.24-1.73-1.41-2.61-2.97-3.02-.7-.18-1.12-.57-1.42-1.17-.78-1.55-1.56-3.09-2.42-4.76.5-.78,1.1-1.71,1.73-2.7.66.73,1.27,1.31,1.77,1.98,1.42,1.92,2.86,3.83,4.17,5.82.73,1.11.91,2.42.43,3.72-.46,1.25-.93,2.5-1.42,3.74-.47,1.16-.65,2.35-.38,3.58.55,2.49,3.47,3.53,5.47,1.96,1.08-.85,1.9-1.93,2.31-3.23.56-1.79,1.08-3.62,1.39-5.47.26-1.59.38-3.25.25-4.86-.22-2.57-1.54-4.75-3.06-6.77-.79-1.04-1.67-2.02-2.51-3.04.44-.11.88-.2,1.31-.33,1.8-.56,2.88-2.17,2.65-3.93-.23-1.72-1.96-3.15-3.9-3.18-.93-.02-1.85,0-2.77,0,.46-2.85-.11-4.52-1.91-5.46-1.66-.86-3.82-.57-5.14.71-.91.88-1.29,1.99-1.34,3.23-.05,1.24.39,2.32,1.18,3.19-.71.18-1.35.34-2,.5Z" style="fill: #fde04c;"/>
  <path d="M36.57,19.04c.64-.16,1.29-.32,2-.5-.79-.88-1.23-1.95-1.18-3.19.05-1.24.44-2.35,1.34-3.23,1.32-1.28,3.47-1.57,5.14-.71,1.8.94,2.38,2.61,1.91,5.46.91,0,1.84-.02,2.77,0,1.93.04,3.66,1.46,3.9,3.18.24,1.76-.84,3.37-2.65,3.93-.43.13-.87.22-1.31.33.85,1.02,1.72,2,2.51,3.04,1.53,2.02,2.84,4.2,3.06,6.77.14,1.6.02,3.26-.25,4.86-.31,1.85-.83,3.67-1.39,5.47-.4,1.3-1.23,2.38-2.31,3.23-2.01,1.58-4.92.53-5.47-1.96-.27-1.23-.09-2.42.38-3.58.5-1.24.97-2.49,1.42-3.74.48-1.31.29-2.62-.43-3.72-1.31-1.99-2.75-3.9-4.17-5.82-.5-.67-1.11-1.25-1.77-1.98-.63.99-1.23,1.92-1.73,2.7.85,1.67,1.64,3.21,2.42,4.76.3.61.72.99,1.42,1.17,1.56.41,2.72,1.29,2.97,3.02.26,1.83-.92,3.59-2.72,3.98-.54.12-.71.35-.82.86-.5,2.22-1.46,4.25-2.81,6.07-1.44,1.93-3.55,2.86-5.79,3.5-4.68,1.32-9.18.75-13.36-1.66-4.04-2.33-6.09-5.97-6.29-10.62-.15-3.46.35-6.79,2.49-9.67,1.46-1.96,3.18-3.63,5.52-4.64-1.02-.36-2.03-.63-2.97-1.06-.99-.46-2.02-.93-2.84-1.63-2.44-2.05-1.83-5.75,1.04-6.75.92-.32,1.82-.25,2.75,0,2.77.73,5.54,1.44,8.32,2.14.45.11.93.15,1.43.23-1.03-2.29-.72-4.26.83-5.7,2.2-2.04,6.01-1.37,6.93,1.26.49,1.4.26,2.78-.43,4.09-.02.05-.04.11-.06.16.06,0,.12-.02.18-.03ZM40.16,42.9c-1.21.11-2.89.19-4.02.34-.27.04-.62.24-.76.48-1.89,3.23-4.32,4.48-8,3.97-5.79-.8-8.08-6.43-7.34-10.24.88-4.55,6.1-7.72,10.6-6.49,2.03.55,2.62,1.99,1.67,3.91-1.48,3-2.92,6.01-4.36,9.03-.26.55-.46,1.13-.7,1.71,3.09.56,5.02-.31,6.4-3.03.62-1.22,1.02-2.56,1.48-3.87.21-.6.52-1.05,1.21-.99.66.05.91.53,1.02,1.12.13.7.25,1.4.41,2.24,1.46-.19,2.88-.36,4.29-.58.73-.11.98-.72,1.08-1.36.1-.64-.19-1.12-.76-1.4-.34-.17-.7-.31-1.07-.4-.84-.2-1.48-.68-1.92-1.39-.32-.5-.53-1.07-.83-1.58-.69-1.19-1.26-2.49-2.14-3.53-1.02-1.21-2.31-2.2-3.5-3.26-.8-.71-1.1-1.56-.74-2.57.2-.55.49-1.08.8-1.58.44-.72.94-1.4,1.48-2.2-.66.08-1.15.15-1.65.19-2.31.18-4.59-.14-6.83-.68-2.5-.6-4.98-1.32-7.48-1.96-.93-.24-1.8.11-2.2.8-.37.64-.25,1.61.32,2.28.2.23.43.48.7.6,1.28.58,2.54,1.22,3.87,1.64,2.22.7,4.51,1.07,6.84,1.11.63.01.98.38.99,1,0,.59-.36.93-.93,1-.45.06-.91.06-1.36.08-3.68.17-6.74,1.53-9.02,4.54-1.98,2.62-2.48,5.6-2.34,8.74.17,3.89,1.87,6.95,5.26,8.92,3.46,2.01,7.2,2.62,11.13,1.67,4.52-1.09,6.86-2.9,8.39-8.25ZM36.98,27.84c.59-.85,1.14-1.69,1.74-2.49.77-1.03,1.63-1.1,2.52-.19.7.72,1.4,1.45,2.04,2.22,1.67,2.03,3.43,4,4.59,6.39.78,1.59,1.15,3.26.57,4.99-.46,1.38-1.03,2.72-1.48,4.09-.22.67-.33,1.39-.37,2.09-.04.61.3,1.08.9,1.33.58.24,1.15.14,1.5-.32.63-.82,1.28-1.67,1.7-2.61.77-1.71.98-3.57,1.27-5.42.46-2.88-.01-5.5-1.59-7.95-1.24-1.93-2.74-3.62-4.4-5.18-.42-.39-.68-.92-.39-1.41.23-.37.7-.68,1.13-.82.77-.24,1.59-.3,2.38-.5.8-.2,1.34-.82,1.36-1.48.03-.65-.55-1.37-1.32-1.6-.27-.08-.57-.14-.85-.11-1.47.16-2.95.29-4.4.55-1.99.36-3.96.83-5.94,1.29-.33.08-.74.24-.92.5-.99,1.43-1.91,2.9-2.82,4.3.98.82,1.87,1.57,2.78,2.32ZM30.77,33.25c-2.3-1.36-6.8.32-8.2,2.97-1.8,3.42.57,7.68,2.68,8.58,1.83-3.84,3.67-7.68,5.52-11.55ZM43.99,15.2c0-1.38-.84-2.25-2.21-2.26-1.4,0-2.4,1.07-2.39,2.56.01,1.29.99,2.24,2.3,2.23,1.27,0,2.29-1.14,2.3-2.53ZM35.08,16.34c.02-1.24-.71-1.94-2.03-1.96-1.39-.02-2.56,1.15-2.56,2.55,0,1.16.84,1.94,2.1,1.96,1.49.01,2.47-.99,2.49-2.54Z" style="fill: #050403;"/>
  <path d="M39.63,42.9c-1.53,5.34-3.34,7.16-7.86,8.25-3.92.95-7.66.34-11.13-1.67-3.39-1.96-5.09-5.03-5.26-8.92-.14-3.15.36-6.13,2.34-8.74,2.28-3.01,5.33-4.37,9.02-4.54.45-.02.91-.03,1.36-.08.57-.07.94-.41.93-1,0-.62-.36-.99-.99-1-2.34-.04-4.63-.42-6.84-1.11-1.33-.42-2.59-1.06-3.87-1.64-.27-.12-.5-.37-.7-.6-.57-.67-.69-1.64-.32-2.28.4-.69,1.27-1.04,2.2-.8,2.5.64,4.97,1.36,7.48,1.96,2.24.54,4.51.86,6.83.68.5-.04.99-.11,1.65-.19-.54.8-1.04,1.48-1.48,2.2-.31.5-.6,1.03-.8,1.58-.36,1.01-.07,1.86.74,2.57,1.19,1.06,2.48,2.05,3.5,3.26.88,1.04,1.45,2.34,2.14,3.53.3.52.51,1.08.83,1.58.45.71,1.08,1.2,1.92,1.39.37.09.73.23,1.07.4.57.28.87.76.76,1.4-.1.64-.35,1.24-1.08,1.36-1.41.22-2.83.38-4.29.58-.15-.84-.28-1.54-.41-2.24-.11-.59-.37-1.07-1.02-1.12-.69-.05-1,.39-1.21.99-.46,1.3-.86,2.64-1.48,3.87-1.38,2.72-3.31,3.6-6.4,3.03.23-.58.43-1.16.7-1.71,1.44-3.01,2.88-6.03,4.36-9.03.95-1.92.37-3.36-1.67-3.91-4.5-1.23-9.71,1.94-10.6,6.49-.74,3.8,1.55,9.44,7.34,10.24,3.68.51,6.11-.74,8-3.97.14-.23.48-.44.76-.48,1.13-.15,2.27-.23,3.49-.34Z" style="fill: #fcfcfc;"/>
  <path d="M36.98,27.84c-.9-.75-1.8-1.5-2.78-2.32.91-1.4,1.84-2.87,2.82-4.3.18-.26.59-.42.92-.5,1.97-.46,3.95-.92,5.94-1.29,1.45-.27,2.93-.39,4.4-.55.28-.03.58.02.85.11.77.23,1.35.96,1.32,1.6-.03.66-.56,1.28-1.36,1.48-.79.19-1.61.25-2.38.5-.43.14-.91.45-1.13.82-.3.49-.03,1.02.39,1.41,1.67,1.56,3.16,3.25,4.4,5.18,1.58,2.45,2.05,5.07,1.59,7.95-.29,1.85-.51,3.71-1.27,5.42-.42.94-1.07,1.79-1.7,2.61-.35.46-.92.56-1.5.32-.6-.25-.94-.72-.9-1.33.04-.7.15-1.42.37-2.09.45-1.38,1.02-2.72,1.48-4.09.58-1.74.22-3.4-.57-4.99-1.17-2.39-2.92-4.36-4.59-6.39-.64-.77-1.33-1.5-2.04-2.22-.89-.91-1.75-.84-2.52.19-.6.8-1.15,1.64-1.74,2.49Z" style="fill: #fcfcfc;"/>
  <path d="M30.77,33.25c-1.85,3.87-3.68,7.71-5.52,11.55-2.11-.9-4.49-5.17-2.68-8.58,1.4-2.65,5.9-4.33,8.2-2.97Z" style="fill: #fcdf4b;"/>
  <path d="M43.99,15.2c0,1.39-1.03,2.52-2.3,2.53-1.31,0-2.29-.94-2.3-2.23-.01-1.49.99-2.57,2.39-2.56,1.36,0,2.21.88,2.21,2.26Z" style="fill: #fbfbfb;"/>
  <path d="M35.08,16.34c-.02,1.55-1.01,2.55-2.49,2.54-1.26-.01-2.1-.79-2.1-1.96,0-1.4,1.18-2.57,2.56-2.55,1.32.02,2.05.72,2.03,1.96Z" style="fill: #fbfbfb;"/>
  <path d="M36.57,19.04c-.06,0-.12.02-.18.03.02-.05.04-.11.06-.16.04.04.08.09.12.13Z" style="fill: #fde04c;"/>
</svg>